<svg width="20" height="20" viewBox="0 0 20 20" fill="none" xmlns="http://www.w3.org/2000/svg">
<rect width="20" height="20" fill="white"/>
<path d="M10 1.9C5.53357 1.9 1.9 5.53362 1.9 10C1.9 14.4665 5.53357 18.1 10 18.1C14.4664 18.1 18.1 14.4665 18.1 10C18.1 5.53362 14.4664 1.9 10 1.9ZM10 16.4455C6.44602 16.4455 3.55455 13.554 3.55455 10C3.55455 6.44611 6.44602 3.55455 10 3.55455C13.554 3.55455 16.4455 6.44611 16.4455 10C16.4455 13.554 13.5539 16.4455 10 16.4455Z" fill="#040404" stroke="black" stroke-width="0.2"/>
<path d="M9.99978 5.29404C9.40989 5.29404 8.93027 5.77408 8.93027 6.36418C8.93027 6.95388 9.40998 7.43344 9.99978 7.43344C10.5896 7.43344 11.0693 6.95388 11.0693 6.36418C11.0693 5.77408 10.5897 5.29404 9.99978 5.29404Z" fill="#040404" stroke="black" stroke-width="0.2"/>
<path d="M10.0002 8.68784C9.54334 8.68784 9.17295 9.05824 9.17295 9.51511V13.8788C9.17295 14.3356 9.54334 14.706 10.0002 14.706C10.4571 14.706 10.8275 14.3356 10.8275 13.8788V9.51511C10.8275 9.05824 10.4571 8.68784 10.0002 8.68784Z" fill="#040404" stroke="black" stroke-width="0.2"/>
</svg>
