<svg width="14" height="14" viewBox="0 0 15 14" fill="none" xmlns="http://www.w3.org/2000/svg">
<mask id="path-1-outside-1" maskUnits="userSpaceOnUse" x="0" y="0" width="14" height="14" fill="black">
<rect fill="white" width="14" height="14"/>
<path d="M11.508 3.91949C11.7542 3.75123 11.8193 3.41338 11.6295 3.18327C10.8354 2.21991 9.75693 1.52455 8.54169 1.20145C7.15182 0.831919 5.67546 0.9739 4.3815 1.60153C3.08753 2.22917 2.06204 3.30069 1.49181 4.62096C0.921573 5.94123 0.844526 7.42239 1.2747 8.7947C1.70488 10.167 2.61365 11.3391 3.83551 12.0976C5.05738 12.8561 6.51104 13.1505 7.93174 12.9272C9.35244 12.7039 10.6457 11.9777 11.5759 10.8809C12.3892 9.92188 12.8777 8.73534 12.9799 7.49101C13.0043 7.19378 12.758 6.9535 12.4598 6.95591C12.1616 6.95832 11.9249 7.20273 11.8946 7.49943C11.7941 8.48442 11.398 9.42085 10.7522 10.1823C9.98945 11.0817 8.929 11.6772 7.76403 11.8603C6.59905 12.0434 5.40705 11.802 4.40512 11.1801C3.40319 10.5581 2.658 9.59694 2.30525 8.47165C1.95251 7.34636 2.01569 6.13181 2.48328 5.04919C2.95088 3.96657 3.79178 3.08792 4.85283 2.57326C5.91388 2.0586 7.12449 1.94217 8.26418 2.24519C9.22913 2.50174 10.0889 3.04452 10.7337 3.79589C10.9279 4.02221 11.2618 4.08775 11.508 3.91949Z"/>
</mask>
<path d="M11.508 3.91949C11.7542 3.75123 11.8193 3.41338 11.6295 3.18327C10.8354 2.21991 9.75693 1.52455 8.54169 1.20145C7.15182 0.831919 5.67546 0.9739 4.3815 1.60153C3.08753 2.22917 2.06204 3.30069 1.49181 4.62096C0.921573 5.94123 0.844526 7.42239 1.2747 8.7947C1.70488 10.167 2.61365 11.3391 3.83551 12.0976C5.05738 12.8561 6.51104 13.1505 7.93174 12.9272C9.35244 12.7039 10.6457 11.9777 11.5759 10.8809C12.3892 9.92188 12.8777 8.73534 12.9799 7.49101C13.0043 7.19378 12.758 6.9535 12.4598 6.95591C12.1616 6.95832 11.9249 7.20273 11.8946 7.49943C11.7941 8.48442 11.398 9.42085 10.7522 10.1823C9.98945 11.0817 8.929 11.6772 7.76403 11.8603C6.59905 12.0434 5.40705 11.802 4.40512 11.1801C3.40319 10.5581 2.658 9.59694 2.30525 8.47165C1.95251 7.34636 2.01569 6.13181 2.48328 5.04919C2.95088 3.96657 3.79178 3.08792 4.85283 2.57326C5.91388 2.0586 7.12449 1.94217 8.26418 2.24519C9.22913 2.50174 10.0889 3.04452 10.7337 3.79589C10.9279 4.02221 11.2618 4.08775 11.508 3.91949Z" fill="#fed64d"/>
<path d="M11.508 3.91949C11.7542 3.75123 11.8193 3.41338 11.6295 3.18327C10.8354 2.21991 9.75693 1.52455 8.54169 1.20145C7.15182 0.831919 5.67546 0.9739 4.3815 1.60153C3.08753 2.22917 2.06204 3.30069 1.49181 4.62096C0.921573 5.94123 0.844526 7.42239 1.2747 8.7947C1.70488 10.167 2.61365 11.3391 3.83551 12.0976C5.05738 12.8561 6.51104 13.1505 7.93174 12.9272C9.35244 12.7039 10.6457 11.9777 11.5759 10.8809C12.3892 9.92188 12.8777 8.73534 12.9799 7.49101C13.0043 7.19378 12.758 6.9535 12.4598 6.95591C12.1616 6.95832 11.9249 7.20273 11.8946 7.49943C11.7941 8.48442 11.398 9.42085 10.7522 10.1823C9.98945 11.0817 8.929 11.6772 7.76403 11.8603C6.59905 12.0434 5.40705 11.802 4.40512 11.1801C3.40319 10.5581 2.658 9.59694 2.30525 8.47165C1.95251 7.34636 2.01569 6.13181 2.48328 5.04919C2.95088 3.96657 3.79178 3.08792 4.85283 2.57326C5.91388 2.0586 7.12449 1.94217 8.26418 2.24519C9.22913 2.50174 10.0889 3.04452 10.7337 3.79589C10.9279 4.02221 11.2618 4.08775 11.508 3.91949Z" stroke="#fed64d" stroke-width="0.4" mask="url(#path-1-outside-1)"/>
<path d="M5 6.06906L8.42444 9.50004L15 2.93098L14.056 2L8.42444 7.62499L5.93096 5.13153L5 6.06906Z" fill="#fed64d"/>
</svg>
