<svg width="13" height="13" viewBox="0 0 13 13" fill="none" xmlns="http://www.w3.org/2000/svg">
<path d="M12.7749 10.9151L11.7333 1.11515C11.7333 0.49903 11.256 0 10.6667 0H6.4H2.13333C1.544 0 1.06667 0.49903 1.06667 1.11515L0.0250666 10.9151C0.00959996 10.9915 0 11.0701 0 11.1515C0 11.7676 0.477333 12.2667 1.06667 12.2667H6.4H11.7333C12.3227 12.2667 12.8 11.7676 12.8 11.1515C12.8 11.0701 12.7904 10.9915 12.7749 10.9151ZM9.06667 2.73658V3.34545C9.06667 4.88269 7.8704 6.13333 6.4 6.13333C4.9296 6.13333 3.73333 4.88269 3.73333 3.34545V2.73658C3.42347 2.62172 3.2 2.31505 3.2 1.95152C3.2 1.48984 3.5584 1.11515 4 1.11515C4.4416 1.11515 4.8 1.48984 4.8 1.95152V3.34545C4.8 4.26768 5.51787 5.01818 6.4 5.01818C7.28213 5.01818 8 4.26768 8 3.34545V1.95152C8 1.48984 8.3584 1.11515 8.8 1.11515C9.2416 1.11515 9.6 1.48984 9.6 1.95152C9.6 2.31505 9.37653 2.62172 9.06667 2.73658Z" fill="#040404"/>
</svg>
