<svg width="25" height="24" viewBox="0 0 69 100" fill="none" xmlns="http://www.w3.org/2000/svg">
<path d="M2.76554 97.4674L2.76542 97.4673C2.60458 97.4007 2.5 97.2439 2.5 97.0703V2.92969C2.5 2.69243 2.69243 2.5 2.92969 2.5H65.69C65.9274 2.5 66.1197 2.69232 66.1197 2.92969V97.0703C66.1197 97.2437 66.0154 97.4003 65.8548 97.4671C65.6935 97.5339 65.5089 97.4968 65.3863 97.3742L65.3862 97.3741L36.0781 68.0651L34.3104 66.2973L32.5426 68.065L3.23341 97.374L3.23279 97.3746C3.15179 97.4557 3.04301 97.5 2.9291 97.5C2.87406 97.5 2.81908 97.4895 2.76554 97.4674Z" stroke="black" stroke-width="5"/>
</svg>
