<svg width="20" height="20" viewBox="0 0 20 20" fill="none" xmlns="http://www.w3.org/2000/svg">
<rect width="20" height="20" fill="white"/>
<path d="M11.0699 12.7481L11.0685 12.7474C10.946 12.6862 10.8358 12.631 10.7426 12.5732C9.7538 11.9451 8.85349 11.1256 7.9882 10.0626C7.59026 9.55953 7.31878 9.13511 7.11969 8.71084C7.35173 8.49559 7.56983 8.27426 7.78047 8.06051C7.80468 8.03594 7.82879 8.01147 7.85281 7.98712C7.90032 7.93962 7.94777 7.89132 7.99486 7.84339L7.99504 7.8432C8.04237 7.79503 8.08934 7.74722 8.13625 7.70031C8.50638 7.33018 8.69741 6.89883 8.69741 6.46118C8.69741 6.02352 8.50638 5.59218 8.13625 5.22205L7.21435 4.30014C7.10945 4.19525 7.00255 4.08833 6.90253 3.98165L6.90254 3.98164L6.90144 3.9805C6.69897 3.77128 6.48503 3.5539 6.26381 3.34962C5.92025 3.01015 5.50453 2.82552 5.06344 2.82552C4.62208 2.82552 4.19961 3.01035 3.84602 3.34979L3.84601 3.34978L3.84457 3.35122L3.83781 3.35797L3.83781 3.35797L3.8375 3.35829L2.68965 4.51627C2.6896 4.51632 2.68955 4.51637 2.6895 4.51642C2.24075 4.96523 1.98405 5.51389 1.92796 6.14845H1.92795L1.9279 6.14906C1.84499 7.15786 2.14202 8.09351 2.36605 8.6977C2.91774 10.1859 3.74136 11.5632 4.9663 13.0359L4.96651 13.0361C6.45449 14.8129 8.24535 16.2165 10.2913 17.2055L10.292 17.2058C11.0711 17.575 12.1221 18.0177 13.3002 18.0932L13.3018 18.0933C13.3724 18.0967 13.449 18.1002 13.5193 18.1002C14.3262 18.1002 15.0084 17.809 15.5413 17.2305L15.5509 17.2201L15.552 17.2179C15.5528 17.217 15.5537 17.216 15.5546 17.215C15.557 17.2121 15.5597 17.2086 15.5626 17.2045C15.7204 17.014 15.9008 16.8396 16.0955 16.6512C16.1108 16.6365 16.1261 16.6216 16.1416 16.6067C16.2872 16.4678 16.4368 16.3216 16.5834 16.1683C16.9327 15.8048 17.1212 15.3756 17.1212 14.9305C17.1212 14.4816 16.9289 14.0551 16.5717 13.7014C16.5716 13.7013 16.5716 13.7013 16.5715 13.7012L14.7187 11.8416C14.3753 11.4843 13.9554 11.2881 13.5058 11.2881C13.0597 11.2881 12.6368 11.4808 12.2802 11.8375L11.2654 12.849C11.2283 12.8296 11.1913 12.8106 11.155 12.792C11.126 12.7771 11.0975 12.7625 11.0699 12.7481ZM15.9211 15.3951C15.9014 15.4188 15.8802 15.4424 15.8574 15.4661L15.8561 15.4649V15.369C15.8645 15.3692 15.8737 15.3704 15.8836 15.3735C15.8961 15.3774 15.9094 15.3843 15.9211 15.3951ZM15.4521 15.7322C15.4267 15.7569 15.4009 15.7819 15.3747 15.8075C15.1553 16.0168 14.9301 16.2385 14.7178 16.4883C14.3968 16.8307 14.0222 16.9918 13.5227 16.9918C13.4714 16.9918 13.4207 16.9917 13.374 16.9886L13.3737 16.9886C12.3909 16.9257 11.4734 16.5413 10.7766 16.2081C8.87846 15.2891 7.21148 13.9845 5.82579 12.3305C4.67998 10.9494 3.91656 9.67588 3.41134 8.3108L3.41124 8.31052C3.10036 7.47818 2.98996 6.83838 3.03899 6.23987C3.07079 5.86828 3.21255 5.56282 3.47607 5.29931L4.62647 4.14891C4.78011 4.00504 4.93204 3.9373 5.07019 3.9373C5.24281 3.9373 5.39067 4.04255 5.49252 4.14439L5.56323 4.07368L5.49252 4.14439L5.50265 4.15452L5.50261 4.15456L5.50508 4.15688C5.70915 4.34756 5.90356 4.54529 6.10936 4.75785L6.10938 4.75786C6.16205 4.81223 6.21552 4.86655 6.26908 4.92096L6.27032 4.92221C6.32356 4.97629 6.37691 5.03049 6.43023 5.08546L6.43022 5.08547L6.4313 5.08656L7.35321 6.00846C7.52269 6.17794 7.59239 6.32619 7.59239 6.46118C7.59239 6.59617 7.52269 6.74442 7.35321 6.91389C7.31954 6.94757 7.2867 6.98078 7.25424 7.01363C7.19061 7.078 7.12841 7.14094 7.06404 7.20308L7.06401 7.20305L7.06197 7.20515C6.77869 7.49517 6.5104 7.76341 6.21914 8.02454L6.21904 8.02443L6.21624 8.02723L6.2149 8.02833L6.2111 8.03151C6.20731 8.03477 6.19955 8.04152 6.19162 8.0519C6.03609 8.21002 5.96785 8.37166 5.95017 8.52439C5.93255 8.67658 5.96619 8.81167 5.99805 8.91256L5.99804 8.91256L5.99854 8.91407L6.0036 8.92926L6.00867 8.94446L6.00844 8.94454L6.0111 8.95099C6.25539 9.54278 6.59865 10.0978 7.11573 10.7544L7.11517 10.7548L7.1233 10.7629C8.06013 11.9162 9.04966 12.8175 10.1428 13.5089C10.2856 13.5994 10.4312 13.6722 10.5652 13.7392L10.567 13.7401C10.6897 13.8015 10.8001 13.8567 10.8933 13.9146L10.8931 13.915L10.9014 13.9191C10.9031 13.92 10.9057 13.9215 10.9133 13.9263C10.9193 13.93 10.9301 13.9369 10.9419 13.9427C11.0687 14.0062 11.192 14.0377 11.3209 14.0377C11.6427 14.0377 11.8432 13.8371 11.9038 13.7766L11.9049 13.7754L13.0598 12.6205C13.1702 12.5102 13.3278 12.3965 13.499 12.3965C13.6668 12.3965 13.8141 12.5037 13.9114 12.6104L13.9113 12.6105L13.9146 12.6138L13.918 12.6171L13.9214 12.6205L15.7821 14.4812L15.7824 14.4816C15.9448 14.6423 16.0137 14.7931 16.0141 14.9342C16.0144 15.0731 15.9481 15.2247 15.7927 15.3892C15.7864 15.394 15.7801 15.4001 15.7742 15.4078C15.7733 15.409 15.7723 15.4103 15.7712 15.4119C15.6687 15.5215 15.5641 15.6232 15.4521 15.7322ZM6.21662 8.02691L6.21638 8.02713L6.21662 8.02691Z" fill="black" stroke="black" stroke-width="0.2"/>
<path d="M14.7269 9.81578L14.7269 9.81585L14.7305 9.81527C15.0365 9.76564 15.2372 9.47655 15.1881 9.17375L15.1879 9.17296C15.0021 8.08185 14.4857 7.08713 13.6979 6.2993C12.91 5.51147 11.9153 4.99508 10.8242 4.80921L10.8242 4.80921L10.8234 4.80908C10.5199 4.75986 10.2357 4.96111 10.1822 5.26172C10.1289 5.5609 10.3254 5.85477 10.6324 5.90472C11.4961 6.04983 12.2809 6.45856 12.9081 7.08571C13.535 7.71269 13.9406 8.49753 14.0891 9.36175C14.1346 9.63429 14.3701 9.82331 14.6368 9.82331C14.6678 9.82331 14.6957 9.81976 14.7189 9.8168C14.7216 9.81645 14.7243 9.81611 14.7269 9.81578Z" fill="black" stroke="black" stroke-width="0.2"/>
<path d="M10.31 2.36106L10.31 2.36106L10.3097 2.36259C10.2604 2.66651 10.4622 2.95053 10.766 3.00389L10.7666 3.00399C12.3194 3.26725 13.7359 4.00362 14.8629 5.12725C15.9897 6.25408 16.7227 7.67041 16.986 9.22335C17.0315 9.49594 17.2671 9.68499 17.5338 9.68499C17.5648 9.68499 17.5927 9.68144 17.6158 9.67848C17.6186 9.67813 17.6213 9.67779 17.6239 9.67746L17.6239 9.6775L17.6264 9.67712C17.9287 9.63156 18.1347 9.34261 18.0815 9.04138C17.7774 7.25804 16.9369 5.6352 15.6459 4.34418C14.3549 3.05325 12.7322 2.21273 10.949 1.90862C10.6462 1.8549 10.3632 2.06236 10.31 2.36106Z" fill="black" stroke="black" stroke-width="0.2"/>
</svg>
