<svg width="17" height="18" viewBox="0 0 17 18" fill="none" xmlns="http://www.w3.org/2000/svg">
<path d="M3.95816 16.935C3.17519 16.935 2.40981 16.7028 1.75876 16.2679C1.10771 15.8329 0.600271 15.2147 0.300571 14.4914C0.000871599 13.768 -0.0776698 12.9721 0.0749851 12.2041C0.22764 11.4362 0.604616 10.7307 1.15818 10.177L3.09616 8.24097C3.2488 8.08847 3.45578 8.00284 3.67154 8.00293C3.8873 8.00302 4.09412 8.08882 4.24662 8.24146C4.39912 8.39409 4.48475 8.60107 4.48465 8.81683C4.48456 9.03259 4.39876 9.23947 4.24613 9.39197L2.30814 11.328C2.09105 11.5445 1.91883 11.8016 1.8013 12.0847C1.68378 12.3679 1.62326 12.6714 1.62326 12.978C1.62326 13.2845 1.68378 13.5881 1.8013 13.8712C1.91883 14.1544 2.09105 14.4115 2.30814 14.628C2.75224 15.0532 3.34335 15.2905 3.95816 15.2905C4.57298 15.2905 5.16408 15.0532 5.60819 14.628L7.54312 12.691C7.69562 12.5385 7.90253 12.4528 8.1182 12.4528C8.33387 12.4528 8.54065 12.5385 8.69315 12.691C8.84565 12.8435 8.93131 13.0503 8.93131 13.266C8.93131 13.4817 8.84565 13.6885 8.69315 13.841L6.75821 15.778C6.39135 16.1468 5.95489 16.4393 5.47428 16.6384C4.99366 16.8375 4.47839 16.9393 3.95816 16.938V16.935Z" fill="#4F453C"/>
<path d="M8.72315 14.3908C8.58782 14.3911 8.45455 14.3575 8.33545 14.2933C8.21636 14.229 8.11521 14.136 8.04114 14.0228C6.70201 11.9785 4.95568 10.2325 2.9112 8.89379C2.74669 8.78528 2.62705 8.62082 2.57447 8.4309C2.52188 8.24097 2.53991 8.03843 2.62519 7.86077L6.18116 0.460743C6.23131 0.356404 6.30321 0.264011 6.39197 0.189685C6.48073 0.11536 6.58428 0.0608262 6.6958 0.0297734C6.80733 -0.00127944 6.92418 -0.00812758 7.03858 0.00963178C7.15297 0.0273911 7.26227 0.0693974 7.35913 0.132801C11.1223 2.59689 14.3367 5.81087 16.8012 9.57378C16.8651 9.67052 16.9076 9.7798 16.9257 9.89434C16.9438 10.0089 16.9371 10.126 16.9061 10.2377C16.8751 10.3495 16.8205 10.4533 16.746 10.5421C16.6715 10.631 16.5788 10.7028 16.4741 10.7528L9.07422 14.3097C8.9652 14.3629 8.84542 14.3907 8.72412 14.3908H8.72315ZM4.39319 7.93676C6.17724 9.19902 7.73456 10.7544 8.99915 12.5368L14.9202 9.69176C12.831 6.70002 10.2309 4.09995 7.23914 2.01079L4.39319 7.93175V7.93676Z" fill="#4F453C"/>
<path d="M8.41528 17.4086C7.45351 17.3751 6.54338 16.9649 5.88123 16.2666C5.80565 16.1912 5.74566 16.1016 5.70471 16.003C5.66376 15.9044 5.64267 15.7986 5.64258 15.6918C5.64249 15.585 5.66344 15.4793 5.70422 15.3806C5.745 15.2819 5.8048 15.1922 5.88025 15.1166C5.95569 15.0411 6.0453 14.9811 6.14392 14.9401C6.24254 14.8992 6.34829 14.878 6.45508 14.8779C6.56187 14.8778 6.66754 14.8988 6.76624 14.9396C6.86493 14.9804 6.9547 15.0402 7.03027 15.1156C7.73027 15.8156 8.60326 15.9336 8.94226 15.5946C9.01711 15.5165 9.10677 15.4541 9.20605 15.4111C9.30534 15.368 9.41219 15.3452 9.52039 15.3441C9.62859 15.3429 9.73598 15.3633 9.83618 15.4041C9.93639 15.445 10.0275 15.5054 10.104 15.5818C10.1806 15.6583 10.2411 15.7494 10.282 15.8495C10.3229 15.9497 10.3434 16.057 10.3423 16.1652C10.3412 16.2734 10.3186 16.3803 10.2756 16.4796C10.2327 16.5789 10.1704 16.6687 10.0923 16.7437C9.87119 16.9607 9.60892 17.1313 9.32092 17.2455C9.03293 17.3597 8.72503 17.4152 8.41528 17.4086Z" fill="#4F453C"/>
</svg>
