<svg width="20" height="17" viewBox="0 0 20 17" fill="none" xmlns="http://www.w3.org/2000/svg">
<path d="M0.833822 4.58333C1.29382 4.58333 1.66715 4.21083 1.66715 3.75V2.5C1.66715 2.04 2.04132 1.66667 2.50049 1.66667H3.75049C4.21049 1.66667 4.58382 1.29417 4.58382 0.833333C4.58382 0.3725 4.21049 0 3.75049 0H2.50049C1.12215 0 0.000488281 1.12167 0.000488281 2.5V3.75C0.000488281 4.21083 0.373822 4.58333 0.833822 4.58333Z" fill="#040404"/>
<path d="M17.5008 0H16.2508C15.7908 0 15.4175 0.3725 15.4175 0.833333C15.4175 1.29417 15.7908 1.66667 16.2508 1.66667H17.5008C17.96 1.66667 18.3342 2.04 18.3342 2.5V3.75C18.3342 4.21083 18.7075 4.58333 19.1675 4.58333C19.6275 4.58333 20.0008 4.21083 20.0008 3.75V2.5C20.0008 1.12167 18.8792 0 17.5008 0Z" fill="#040404"/>
<path d="M0.000488281 14.1667C0.000488281 15.545 1.12215 16.6667 2.50049 16.6667H3.75049C4.21049 16.6667 4.58382 16.2942 4.58382 15.8334C4.58382 15.3725 4.21049 15 3.75049 15H2.50049C2.04132 15 1.66715 14.6267 1.66715 14.1667V12.9167C1.66715 12.4559 1.29382 12.0834 0.833822 12.0834C0.373822 12.0834 0.000488281 12.4559 0.000488281 12.9167V14.1667Z" fill="#040404"/>
<path d="M19.1675 12.0834C18.7075 12.0834 18.3342 12.4559 18.3342 12.9167V14.1667C18.3342 14.6267 17.96 15 17.5008 15H16.2508C15.7908 15 15.4175 15.3725 15.4175 15.8334C15.4175 16.2942 15.7908 16.6667 16.2508 16.6667H17.5008C18.8792 16.6667 20.0008 15.545 20.0008 14.1667V12.9167C20.0008 12.4559 19.6275 12.0834 19.1675 12.0834Z" fill="#040404"/>
<path d="M10.0003 13.3917C13.2086 13.3917 15.942 11.375 16.6503 8.48336C16.6753 8.38336 16.6753 8.28336 16.6503 8.18336C15.942 5.29169 13.2086 3.27502 10.0003 3.27502C6.79196 3.27502 4.05863 5.29169 3.35029 8.18336C3.32529 8.28336 3.32529 8.38336 3.35029 8.48336C4.05863 11.375 6.79196 13.3917 10.0003 13.3917ZM10.0003 5.83336C11.3753 5.83336 12.5003 6.95836 12.5003 8.33336C12.5003 9.70836 11.3753 10.8334 10.0003 10.8334C8.62529 10.8334 7.50029 9.70836 7.50029 8.33336C7.50029 6.95836 8.62529 5.83336 10.0003 5.83336Z" fill="#040404"/>
</svg>
