<svg width="20" height="20" viewBox="0 0 20 20" fill="none" xmlns="http://www.w3.org/2000/svg">
<rect width="20" height="20" fill="white"/>
<path d="M5.0625 18.8667H14.4375C15.409 18.8667 16.2 18.0765 16.2 17.1042V9.8125C16.2 8.84018 15.409 8.05 14.4375 8.05H5.0625C4.09099 8.05 3.3 8.84018 3.3 9.8125V17.1042C3.3 18.0765 4.09099 18.8667 5.0625 18.8667ZM4.74167 9.8125C4.74167 9.63563 4.88598 9.49167 5.0625 9.49167H14.4375C14.614 9.49167 14.7583 9.63563 14.7583 9.8125V17.1042C14.7583 17.281 14.614 17.425 14.4375 17.425H5.0625C4.88598 17.425 4.74167 17.281 4.74167 17.1042V9.8125Z" fill="#040404" stroke="#040404" stroke-width="0.4"/>
<path d="M12.6752 8.77083C12.6752 9.16878 12.998 9.49166 13.396 9.49166C13.794 9.49166 14.1168 9.16878 14.1168 8.77083V6.16666C14.1168 3.75829 12.1585 1.8 9.75016 1.8C7.34179 1.8 5.3835 3.75829 5.3835 6.16666V8.77083C5.3835 9.16878 5.70637 9.49166 6.10433 9.49166C6.50229 9.49166 6.82516 9.16878 6.82516 8.77083V6.16666C6.82516 4.5542 8.1377 3.24167 9.75016 3.24167C11.3626 3.24167 12.6752 4.5542 12.6752 6.16666V8.77083Z" fill="#040404" stroke="#040404" stroke-width="0.4"/>
<path d="M8.16084 12.4167C8.16084 13.2932 8.8733 14.0056 9.74973 14.0056C10.6262 14.0056 11.3386 13.2932 11.3386 12.4167C11.3386 11.5403 10.6262 10.8278 9.74973 10.8278C8.8733 10.8278 8.16084 11.5403 8.16084 12.4167ZM9.6025 12.4167C9.6025 12.3358 9.66895 12.2695 9.74973 12.2695C9.8305 12.2695 9.89695 12.3358 9.89695 12.4167C9.89695 12.4977 9.8305 12.5639 9.74973 12.5639C9.66895 12.5639 9.6025 12.4977 9.6025 12.4167Z" fill="#040404" stroke="#040404" stroke-width="0.4"/>
<path d="M9.029 15.3681C9.029 15.766 9.35188 16.0889 9.74984 16.0889C10.1478 16.0889 10.4707 15.766 10.4707 15.3681V13.4583C10.4707 13.0604 10.1478 12.7375 9.74984 12.7375C9.35188 12.7375 9.029 13.0604 9.029 13.4583V15.3681Z" fill="#040404" stroke="#040404" stroke-width="0.4"/>
</svg>
