<svg width="23" height="23" viewBox="0 0 23 23" fill="none" xmlns="http://www.w3.org/2000/svg">
<path d="M11.0699 2.49088C12.5272 2.48995 13.9641 2.83333 15.2635 3.49307C16.5629 4.15281 17.688 5.11023 18.5472 6.28729C19.4063 7.46436 19.9752 8.82777 20.2075 10.2664C20.4398 11.7051 20.3289 13.1782 19.8839 14.5659C19.4388 15.9535 18.6722 17.2164 17.6464 18.2516C16.6207 19.2867 15.3649 20.0649 13.9814 20.5227C12.5979 20.9804 11.1258 21.1048 9.68508 20.8857C8.24436 20.6666 6.87579 20.1102 5.69091 19.2619L2.05492 20.7619L3.55492 17.1259C2.56436 15.7439 1.97409 14.1156 1.84902 12.4199C1.72395 10.7242 2.06894 9.0269 2.84603 7.51459C3.62312 6.00227 4.80221 4.73354 6.25365 3.84793C7.70509 2.96232 9.37264 2.49415 11.0729 2.49487L11.0699 2.49088ZM11.0729 0.671876C9.12597 0.671268 7.21329 1.18426 5.52794 2.15906C3.84259 3.13386 2.4442 4.53597 1.4739 6.22391C0.503591 7.91185 -0.00428259 9.82588 0.00151391 11.7728C0.00731041 13.7198 0.526577 15.6307 1.50692 17.3129L0.371906 20.0689C0.234715 20.4016 0.199126 20.7674 0.269611 21.1203C0.340096 21.4732 0.513498 21.7974 0.767963 22.0518C1.02243 22.3063 1.34655 22.4797 1.69945 22.5502C2.05235 22.6207 2.41824 22.5851 2.75093 22.4479L5.50392 21.3139C6.97328 22.1688 8.61976 22.6739 10.3158 22.79C12.0117 22.9061 13.7117 22.6302 15.2839 21.9835C16.856 21.3368 18.2582 20.3368 19.3816 19.061C20.5051 17.7852 21.3197 16.2678 21.7623 14.6264C22.2048 12.9851 22.2635 11.2639 21.9338 9.59619C21.604 7.92851 20.8947 6.35916 19.8607 5.00977C18.8268 3.66037 17.496 2.56717 15.9716 1.81491C14.4471 1.06265 12.7699 0.671546 11.0699 0.671876H11.0729Z" fill="url(#paint0_radial)"/>
<defs>
<radialGradient id="paint0_radial" cx="0" cy="0" r="1" gradientUnits="userSpaceOnUse" gradientTransform="translate(13.6635 35.2829) scale(98.291 98.2972)">
<stop stop-color="#A1DB00"/>
<stop offset="0.4" stop-color="#0064EC"/>
<stop offset="0.6" stop-color="#0800EF"/>
<stop offset="0.8" stop-color="#F1FF6D"/>
<stop offset="1" stop-color="#868700"/>
</radialGradient>
</defs>
</svg>
