<svg width="20" height="20" viewBox="0 0 22 22" fill="none" xmlns="http://www.w3.org/2000/svg">
<path d="M20.4752 16.4282L16.4271 13.7286C15.9134 13.3888 15.2248 13.5006 14.845 13.9856L13.6658 15.5017C13.5143 15.7015 13.2388 15.7595 13.0196 15.6377L12.7953 15.514C12.0517 15.1087 11.1266 14.6042 9.26251 12.7394C7.39845 10.8747 6.89286 9.94883 6.48757 9.20664L6.36458 8.98233C6.24112 8.76315 6.29799 8.48651 6.49788 8.33376L8.01297 7.15495C8.49774 6.77512 8.60972 6.08671 8.27028 5.57284L5.57068 1.52477C5.2228 1.00149 4.52485 0.8444 3.9863 1.16814L2.29355 2.18498C1.76167 2.49767 1.37146 3.00408 1.20472 3.59809C0.595165 5.81909 1.05373 9.65219 6.70024 15.2994C11.1919 19.7907 14.5358 20.9985 16.8341 20.9985C17.363 21.0008 17.8899 20.932 18.4005 20.7939C18.9947 20.6274 19.5011 20.2371 19.8136 19.7051L20.8315 18.0133C21.1557 17.4747 20.9987 16.7763 20.4752 16.4282ZM20.2572 17.6714L19.2417 19.3641C19.0173 19.7481 18.653 20.0305 18.2252 20.152C16.1748 20.7149 12.5927 20.2487 7.17181 14.8278C1.75093 9.40692 1.28471 5.82511 1.84764 3.77443C1.96934 3.34606 2.25203 2.98131 2.6365 2.75658L4.32926 1.74106C4.56294 1.60046 4.86586 1.66861 5.01681 1.89569L6.48328 4.09735L7.71411 5.94341C7.86151 6.16631 7.81308 6.46505 7.6028 6.62999L6.08736 7.8088C5.62618 8.16144 5.49448 8.79951 5.77842 9.30592L5.89875 9.52456C6.32471 10.3058 6.85427 11.2776 8.78766 13.2107C10.721 15.1437 11.6926 15.6733 12.4734 16.0992L12.6924 16.2199C13.1988 16.5038 13.8369 16.3721 14.1895 15.911L15.3683 14.3955C15.5333 14.1853 15.8319 14.137 16.0549 14.2842L20.1026 16.9838C20.3299 17.1346 20.398 17.4377 20.2572 17.6714Z" fill="black" stroke="black" stroke-width="1"/>
<path d="M12.3327 4.33451C15.4604 4.33799 17.995 6.87265 17.9986 10.0003C17.9986 10.1844 18.1478 10.3336 18.3318 10.3336C18.5159 10.3336 18.6651 10.1844 18.6651 10.0003C18.6612 6.50466 15.8284 3.6718 12.3327 3.66797C12.1486 3.66797 11.9995 3.81717 11.9995 4.00124C11.9995 4.18531 12.1486 4.33451 12.3327 4.33451Z" fill="black" stroke="black" stroke-width="1"/>
<path d="M12.3327 6.33451C14.3565 6.33689 15.9965 7.97688 15.9989 10.0006C15.9989 10.1847 16.1481 10.3339 16.3321 10.3339C16.5162 10.3339 16.6654 10.1847 16.6654 10.0006C16.6626 7.60889 14.7244 5.6707 12.3327 5.66797C12.1486 5.66797 11.9995 5.81717 11.9995 6.00124C11.9995 6.18531 12.1486 6.33451 12.3327 6.33451Z" fill="black" stroke="black" stroke-width="1"/>
<path d="M12.3327 8.33353C13.2526 8.33463 13.998 9.08006 13.9992 9.99997C13.9992 10.184 14.1484 10.3332 14.3324 10.3332C14.5165 10.3332 14.6657 10.184 14.6657 9.99997C14.6642 8.71211 13.6206 7.66844 12.3327 7.66699C12.1486 7.66699 11.9995 7.81619 11.9995 8.00026C11.9995 8.18434 12.1486 8.33353 12.3327 8.33353Z" fill="black" stroke="black" stroke-width="1"/>
</svg>
