<svg width="23" height="24" viewBox="0 0 23 24" fill="none" xmlns="http://www.w3.org/2000/svg">
<path d="M21.75 4.69434H1C0.734784 4.69434 0.480444 4.58896 0.292908 4.40143C0.105371 4.21389 0 3.95955 0 3.69434C0 3.42912 0.105371 3.17472 0.292908 2.98718C0.480444 2.79965 0.734784 2.69434 1 2.69434H21.75C22.0152 2.69434 22.2696 2.79965 22.4572 2.98718C22.6447 3.17472 22.75 3.42912 22.75 3.69434C22.75 3.95955 22.6447 4.21389 22.4572 4.40143C22.2696 4.58896 22.0152 4.69434 21.75 4.69434Z" fill="#4F453C"/>
<path d="M13.954 4.10504C13.8323 3.51098 13.5093 2.97718 13.0395 2.59381C12.5697 2.21044 11.9819 2.00104 11.3755 2.00104C10.7691 2.00104 10.1813 2.21044 9.71149 2.59381C9.24166 2.97718 8.91858 3.51098 8.79694 4.10504L6.83594 3.70508C7.04939 2.6589 7.61774 1.7186 8.44476 1.04327C9.27179 0.367945 10.3067 -0.000976562 11.3745 -0.000976562C12.4422 -0.000976562 13.4771 0.367945 14.3041 1.04327C15.1312 1.7186 15.6995 2.6589 15.913 3.70508L13.954 4.10504Z" fill="#4F453C"/>
<path d="M4.63197 23.973C4.11612 23.9628 3.6235 23.7565 3.25423 23.3962C2.88496 23.0358 2.66677 22.5484 2.644 22.033L1.60896 4.69995C1.60111 4.56882 1.61918 4.43744 1.66213 4.31329C1.70507 4.18914 1.77207 4.07463 1.85927 3.97638C1.94647 3.87813 2.0522 3.79805 2.17037 3.74066C2.28854 3.68327 2.41685 3.64975 2.54799 3.64197C2.67963 3.63149 2.81201 3.64772 2.93721 3.6897C3.06242 3.73167 3.17784 3.79853 3.27657 3.88623C3.37529 3.97393 3.4553 4.08069 3.51174 4.20007C3.56817 4.31946 3.59989 4.44898 3.605 4.58093L4.63997 21.9139L18.117 21.973L19.144 4.58093C19.1518 4.44961 19.1854 4.32115 19.2429 4.20282C19.3004 4.08448 19.3806 3.97857 19.479 3.89123C19.5773 3.8039 19.6919 3.73682 19.8162 3.69379C19.9406 3.65075 20.0722 3.63263 20.2035 3.64044C20.3348 3.64825 20.4633 3.68184 20.5816 3.73932C20.7 3.79679 20.8058 3.87702 20.8931 3.9754C20.9805 4.07379 21.0476 4.18843 21.0907 4.31274C21.1337 4.43706 21.1518 4.56863 21.144 4.69995L20.109 22.033C20.086 22.548 19.868 23.035 19.4992 23.3953C19.1304 23.7555 18.6384 23.962 18.123 23.973H4.63197Z" fill="#4F453C"/>
<path d="M7.58103 20.3023C7.32524 20.3027 7.07899 20.2051 6.89299 20.0295C6.70698 19.8539 6.59536 19.6138 6.58103 19.3584L5.91502 7.44236C5.90767 7.31104 5.92625 7.17954 5.96971 7.0554C6.01317 6.93126 6.08066 6.81691 6.16832 6.71885C6.25597 6.62079 6.36206 6.54098 6.48057 6.48393C6.59908 6.42688 6.72767 6.39369 6.85899 6.38633C6.99031 6.37898 7.12181 6.39756 7.24595 6.44102C7.37009 6.48448 7.48444 6.55197 7.5825 6.63963C7.68056 6.72729 7.76044 6.83343 7.81748 6.95195C7.87453 7.07046 7.90767 7.19904 7.91502 7.33036L8.58103 19.2474C8.58833 19.3785 8.56967 19.5098 8.52623 19.6337C8.48278 19.7576 8.41537 19.8718 8.3278 19.9696C8.24023 20.0675 8.13427 20.1472 8.01591 20.2041C7.89755 20.2611 7.76911 20.2941 7.63798 20.3014L7.58103 20.3023Z" fill="#4F453C"/>
<path d="M15.1671 20.3023H15.1101C14.8454 20.2873 14.5976 20.1679 14.4209 19.9703C14.2443 19.7726 14.1533 19.5129 14.1681 19.2483L14.8341 7.33128C14.8414 7.19996 14.8746 7.07137 14.9316 6.95286C14.9887 6.83435 15.0685 6.72826 15.1665 6.64061C15.2646 6.55295 15.3789 6.48546 15.5031 6.442C15.6272 6.39854 15.7587 6.37996 15.89 6.38731C16.0214 6.39466 16.1499 6.42779 16.2685 6.48484C16.387 6.54189 16.4931 6.62171 16.5808 6.71977C16.6684 6.81783 16.7359 6.93218 16.7794 7.05632C16.8228 7.18046 16.8414 7.31196 16.8341 7.44328L16.1681 19.3593C16.1537 19.6147 16.0421 19.8549 15.8561 20.0305C15.6701 20.2061 15.4238 20.3037 15.1681 20.3033L15.1671 20.3023Z" fill="#4F453C"/>
<path d="M11.375 20.3018C11.1098 20.3018 10.8554 20.1964 10.6679 20.0089C10.4804 19.8213 10.375 19.567 10.375 19.3018V7.38574C10.375 7.12053 10.4804 6.86619 10.6679 6.67865C10.8554 6.49111 11.1098 6.38574 11.375 6.38574C11.6402 6.38574 11.8946 6.49111 12.0822 6.67865C12.2697 6.86619 12.375 7.12053 12.375 7.38574V19.3018C12.375 19.567 12.2697 19.8213 12.0822 20.0089C11.8946 20.1964 11.6402 20.3018 11.375 20.3018Z" fill="#4F453C"/>
</svg>
