<svg width="20" height="20" viewBox="0 0 20 20" fill="none" xmlns="http://www.w3.org/2000/svg">
<g clip-path="url(#clip0)">
<path d="M4.29768 10.3727L1.2596 7.33463C0.448099 6.52313 0.00115967 5.4442 0.00115967 4.29652C0.00115967 1.92743 1.92859 0 4.29768 0C6.66681 0 8.5942 1.92743 8.5942 4.29652C8.5942 5.4442 8.1473 6.52313 7.33576 7.33463L4.29768 10.3727ZM4.29768 1.17174C2.57468 1.17174 1.1729 2.57352 1.1729 4.29652C1.1729 5.13119 1.49793 5.9159 2.08814 6.5061L4.29768 8.71564L6.50726 6.5061C7.09746 5.9159 7.4225 5.13119 7.4225 4.29652C7.4225 2.57352 6.02072 1.17174 4.29768 1.17174Z" fill="black"/>
<path d="M4.2977 6.2496C3.22083 6.2496 2.34473 5.37349 2.34473 4.29663C2.34473 3.21976 3.22083 2.34366 4.2977 2.34366C5.37456 2.34366 6.25067 3.21976 6.25067 4.29663C6.25067 5.37349 5.37456 6.2496 4.2977 6.2496ZM4.2977 3.51539C3.86693 3.51539 3.51646 3.86586 3.51646 4.29663C3.51646 4.7274 3.86693 5.07786 4.2977 5.07786C4.72847 5.07786 5.07893 4.7274 5.07893 4.29663C5.07893 3.86586 4.72847 3.51539 4.2977 3.51539Z" fill="black"/>
<path d="M16.874 20L14.6644 17.7905C14.0742 17.2003 13.7492 16.4156 13.7492 15.5809C13.7492 13.8579 15.151 12.4561 16.874 12.4561C18.597 12.4561 19.9988 13.8579 19.9988 15.5809C19.9988 16.4155 19.6738 17.2002 19.0836 17.7905L16.874 20ZM15.4929 16.9619L16.874 18.3429L18.255 16.9619C18.6238 16.593 18.827 16.1025 18.827 15.5808C18.827 14.5039 17.9509 13.6278 16.874 13.6278C15.7971 13.6278 14.9209 14.5039 14.9209 15.5808C14.9209 16.1025 15.1241 16.593 15.4929 16.9619Z" fill="black"/>
<path d="M14.023 19.9976H7.48262C5.40341 19.9976 3.71185 18.306 3.71185 16.2268C3.71185 14.1476 5.40341 12.456 7.48262 12.456H9.65673C10.298 12.456 10.8197 11.9343 10.8197 11.293C10.8197 10.6518 10.298 10.1301 9.65673 10.1301H7.38349V8.95833H9.65673C10.9441 8.95833 11.9915 10.0057 11.9915 11.293C11.9915 12.5804 10.9441 13.6278 9.65673 13.6278H7.48262C6.04951 13.6278 4.88359 14.7937 4.88359 16.2268C4.88359 17.6599 6.04947 18.8259 7.48262 18.8259H14.023V19.9976H14.023Z" fill="black"/>
</g>
<defs>
<clipPath id="clip0">
<rect width="20" height="20" fill="white"/>
</clipPath>
</defs>
</svg>
