<svg width="15" height="15" viewBox="0 0 15 15" fill="none" xmlns="http://www.w3.org/2000/svg">
<path d="M7.5 0C3.36433 0 0 3.36433 0 7.5C0 11.6357 3.36433 15 7.5 15C11.6357 15 15 11.6357 15 7.5C15 3.36433 11.6357 0 7.5 0Z" fill="#FED64D"/>
<path d="M10.2618 9.3781C10.5061 9.62254 10.5061 10.0175 10.2618 10.2619C10.1399 10.3838 9.9799 10.445 9.8198 10.445C9.65981 10.445 9.49982 10.3838 9.37794 10.2619L7.49985 8.38372L5.62176 10.2619C5.49988 10.3838 5.3399 10.445 5.17991 10.445C5.0198 10.445 4.85982 10.3838 4.73794 10.2619C4.4936 10.0175 4.4936 9.62254 4.73794 9.3781L6.61614 7.50001L4.73794 5.62192C4.4936 5.37747 4.4936 4.98253 4.73794 4.73809C4.98238 4.49376 5.37732 4.49376 5.62176 4.73809L7.49985 6.61629L9.37794 4.73809C9.62239 4.49376 10.0173 4.49376 10.2618 4.73809C10.5061 4.98253 10.5061 5.37747 10.2618 5.62192L8.38357 7.50001L10.2618 9.3781Z" fill="#040404"/>
</svg>
