<svg width="20" height="20" viewBox="0 0 20 20" fill="none" xmlns="http://www.w3.org/2000/svg">
<rect width="20" height="20" fill="white"/>
<path d="M7.83366 18.2001H15.8336C16.8627 18.2001 17.7003 17.3633 17.7003 16.3334V6.33341C17.7003 5.30357 16.8627 4.46675 15.8336 4.46675H7.83366C6.80459 4.46675 5.96699 5.30357 5.96699 6.33341V16.3334C5.96699 17.3633 6.80459 18.2001 7.83366 18.2001ZM7.03366 6.33341C7.03366 5.89254 7.39278 5.53341 7.83366 5.53341H15.8336C16.2745 5.53341 16.6336 5.89254 16.6336 6.33341V16.3334C16.6336 16.7743 16.2745 17.1334 15.8336 17.1334H7.83366C7.39278 17.1334 7.03366 16.7743 7.03366 16.3334V6.33341Z" fill="#040404" stroke="#040404" stroke-width="0.4"/>
<path d="M4.50016 16.2H5.16683C5.46128 16.2 5.70016 15.9611 5.70016 15.6667C5.70016 15.3722 5.46128 15.1333 5.16683 15.1333H4.50016C4.05929 15.1333 3.70016 14.7742 3.70016 14.3333V3.66666C3.70016 3.22579 4.05929 2.86667 4.50016 2.86667H12.5002C12.941 2.86667 13.3002 3.22579 13.3002 3.66666C13.3002 3.96112 13.539 4.2 13.8335 4.2C14.1279 4.2 14.3668 3.96112 14.3668 3.66666C14.3668 2.63682 13.5292 1.8 12.5002 1.8H4.50016C3.47109 1.8 2.6335 2.63682 2.6335 3.66666V14.3333C2.6335 15.3632 3.47109 16.2 4.50016 16.2Z" fill="#040404" stroke="#040404" stroke-width="0.4"/>
<path d="M9.16683 13.5334H14.5002C14.7946 13.5334 15.0335 13.2945 15.0335 13.0001C15.0335 12.7056 14.7946 12.4667 14.5002 12.4667H9.16683C8.87237 12.4667 8.6335 12.7056 8.6335 13.0001C8.6335 13.2945 8.87237 13.5334 9.16683 13.5334Z" fill="#040404" stroke="#040404" stroke-width="0.4"/>
<path d="M9.16683 16.1999H14.5002C14.7946 16.1999 15.0335 15.961 15.0335 15.6666C15.0335 15.3721 14.7946 15.1333 14.5002 15.1333H9.16683C8.87237 15.1333 8.6335 15.3721 8.6335 15.6666C8.6335 15.961 8.87237 16.1999 9.16683 16.1999Z" fill="#040404" stroke="#040404" stroke-width="0.4"/>
<path d="M9.16683 10.8667H14.5002C14.7946 10.8667 15.0335 10.6278 15.0335 10.3333C15.0335 10.0389 14.7946 9.8 14.5002 9.8H9.16683C8.87237 9.8 8.6335 10.0389 8.6335 10.3333C8.6335 10.6278 8.87237 10.8667 9.16683 10.8667Z" fill="#040404" stroke="#040404" stroke-width="0.4"/>
<path d="M9.16683 8.19992H14.5002C14.7946 8.19992 15.0335 7.96104 15.0335 7.66658C15.0335 7.37213 14.7946 7.13325 14.5002 7.13325H9.16683C8.87237 7.13325 8.6335 7.37213 8.6335 7.66658C8.6335 7.96104 8.87237 8.19992 9.16683 8.19992Z" fill="#040404" stroke="#040404" stroke-width="0.4"/>
</svg>
