<svg width="20" height="19" viewBox="0 0 25 19" fill="none" xmlns="http://www.w3.org/2000/svg">
<path d="M23.9263 12.8733L23.9263 12.8728C23.8692 11.3613 23.6407 9.68708 23.2983 8.11198L23.2981 8.1111C22.956 6.60307 22.5274 5.18838 22.0109 4.09938L22.0109 4.09937L22.0101 4.09788C21.0078 2.07234 19.9499 1.19156 18.7955 0.932833C17.6524 0.676635 16.4384 1.03868 15.1509 1.42916C15.0777 1.44947 15.0042 1.47001 14.9304 1.49064C14.1705 1.70293 13.3748 1.9252 12.5564 2.01403H12.2827C11.4643 1.9252 10.6686 1.70293 9.90871 1.49064C9.83466 1.46996 9.76095 1.44936 9.68759 1.429C9.66854 1.42346 9.64949 1.41792 9.63047 1.41239C8.36497 1.04443 7.16951 0.696832 6.04352 0.949189C4.88894 1.20796 3.83114 2.08894 2.82878 4.13088L2.82877 4.13088L2.8282 4.13209C2.31211 5.22017 1.85481 6.63452 1.54066 8.14513C1.1983 9.72011 0.969874 11.3942 0.912733 12.9055L0.912721 12.9059C0.85565 14.5795 0.997634 15.8049 1.31706 16.6731L1.31702 16.6731L1.31801 16.6756C1.63788 17.4782 2.11074 17.9973 2.74509 18.2057L2.74735 18.2064C3.31658 18.3787 3.96847 18.3074 4.64055 17.9717C5.76763 17.4396 7.05796 16.3159 8.31107 14.973L8.31109 14.973L8.31234 14.9716C9.16696 14.0205 10.7828 13.5327 12.4195 13.5327C14.0563 13.5327 15.6721 14.0205 16.5267 14.9716L16.5267 14.9717L16.528 14.973C17.7815 16.3163 19.0722 17.4403 20.1995 17.9721L20.2012 17.9729C20.8678 18.2728 21.5197 18.3795 22.0917 18.2064L22.0917 18.2065L22.0954 18.2052C22.6979 17.9973 23.2006 17.5136 23.5218 16.641C23.8417 15.8045 23.9834 14.5784 23.9263 12.8733ZM7.42558 13.953L7.42544 13.9531C6.25907 15.1963 5.10518 16.2287 4.15875 16.645C3.70343 16.8414 3.34144 16.9212 3.07091 16.808L3.07099 16.8079L3.06495 16.8058C2.8209 16.7216 2.60916 16.4924 2.44343 16.0478C2.22281 15.445 2.10835 14.447 2.16509 12.9459C2.22176 11.5451 2.42013 9.94828 2.76006 8.44976L2.76015 8.44935C3.07232 7.04602 3.46848 5.74632 3.94697 4.77527L3.94731 4.77457C4.72224 3.17047 5.54822 2.52211 6.42718 2.33868C7.31839 2.1527 8.28789 2.43678 9.37528 2.76586L9.3758 2.76602C10.2573 3.02763 11.1759 3.29203 12.1822 3.39121L12.1821 3.3917H12.192H12.1921H12.1923H12.1925H12.1926H12.1928H12.193H12.1931H12.1933H12.1934H12.1936H12.1938H12.1939H12.1941H12.1942H12.1944H12.1946H12.1947H12.1949H12.195H12.1952H12.1953H12.1955H12.1956H12.1958H12.1959H12.1961H12.1962H12.1964H12.1965H12.1967H12.1968H12.197H12.1971H12.1973H12.1974H12.1976H12.1977H12.1979H12.198H12.1981H12.1983H12.1984H12.1986H12.1987H12.1988H12.199H12.1991H12.1993H12.1994H12.1995H12.1997H12.1998H12.1999H12.2001H12.2002H12.2004H12.2005H12.2006H12.2008H12.2009H12.201H12.2011H12.2013H12.2014H12.2015H12.2017H12.2018H12.2019H12.2021H12.2022H12.2023H12.2024H12.2026H12.2027H12.2028H12.2029H12.2031H12.2032H12.2033H12.2034H12.2036H12.2037H12.2038H12.2039H12.204H12.2042H12.2043H12.2044H12.2045H12.2046H12.2048H12.2049H12.205H12.2051H12.2052H12.2053H12.2055H12.2056H12.2057H12.2058H12.2059H12.206H12.2061H12.2063H12.2064H12.2065H12.2066H12.2067H12.2068H12.2069H12.207H12.2071H12.2073H12.2074H12.2075H12.2076H12.2077H12.2078H12.2079H12.208H12.2081H12.2082H12.2083H12.2084H12.2085H12.2086H12.2088H12.2089H12.209H12.2091H12.2092H12.2093H12.2094H12.2095H12.2096H12.2097H12.2098H12.2099H12.21H12.2101H12.2102H12.2103H12.2104H12.2105H12.2106H12.2107H12.2108H12.2109H12.211H12.2111H12.2112H12.2113H12.2114H12.2115H12.2116H12.2117H12.2117H12.2118H12.2119H12.212H12.2121H12.2122H12.2123H12.2124H12.2125H12.2126H12.2127H12.2128H12.2129H12.213H12.2131H12.2132H12.2133H12.2133H12.2134H12.2135H12.2136H12.2137H12.2138H12.2139H12.214H12.2141H12.2142H12.2143H12.2143H12.2144H12.2145H12.2146H12.2147H12.2148H12.2149H12.215H12.2151H12.2151H12.2152H12.2153H12.2154H12.2155H12.2156H12.2157H12.2158H12.2158H12.2159H12.216H12.2161H12.2162H12.2163H12.2164H12.2165H12.2165H12.2166H12.2167H12.2168H12.2169H12.217H12.2171H12.2171H12.2172H12.2173H12.2174H12.2175H12.2176H12.2176H12.2177H12.2178H12.2179H12.218H12.2181H12.2182H12.2182H12.2183H12.2184H12.2185H12.2186H12.2187H12.2187H12.2188H12.2189H12.219H12.2191H12.2192H12.2192H12.2193H12.2194H12.2195H12.2196H12.2197H12.2197H12.2198H12.2199H12.22H12.2201H12.2202H12.2202H12.2203H12.2204H12.2205H12.2206H12.2207H12.2207H12.2208H12.2209H12.221H12.2211H12.2212H12.2212H12.2213H12.2214H12.2215H12.2216H12.2217H12.2217H12.2218H12.2219H12.222H12.2221H12.2222H12.2222H12.2223H12.2224H12.2225H12.2226H12.2227H12.2228H12.2228H12.2229H12.223H12.2231H12.2232H12.2233H12.2233H12.2234H12.2235H12.2236H12.2237H12.2238H12.2239H12.2239H12.224H12.2241H12.2242H12.2243H12.2244H12.2245H12.2245H12.2246H12.2247H12.2248H12.2249H12.225H12.2251H12.2252H12.2252H12.2253H12.2254H12.2255H12.2256H12.2257H12.2258H12.2259H12.2259H12.226H12.2261H12.2262H12.2263H12.2264H12.2265H12.2266H12.2267H12.2268H12.2268H12.2269H12.227H12.2271H12.2272H12.2273H12.2274H12.2275H12.2276H12.2277H12.2278H12.2278H12.2279H12.228H12.2281H12.2282H12.2283H12.2284H12.2285H12.2286H12.2287H12.2288H12.2289H12.229H12.2291H12.2292H12.2293H12.2294H12.2295H12.2296H12.2297H12.2297H12.2298H12.2299H12.23H12.2301H12.2302H12.2303H12.2304H12.2305H12.2306H12.2307H12.2308H12.2309H12.231H12.2311H12.2312H12.2313H12.2315H12.2316H12.2317H12.2318H12.2319H12.232H12.2321H12.2322H12.2323H12.2324H12.2325H12.2326H12.2327H12.2328H12.2329H12.233H12.2331H12.2332H12.2333H12.2335H12.2336H12.2337H12.2338H12.2339H12.234H12.2341H12.2342H12.2343H12.2345H12.2346H12.2347H12.2348H12.2349H12.235H12.2351H12.2353H12.2354H12.2355H12.2356H12.2357H12.2358H12.2359H12.2361H12.2362H12.2363H12.2364H12.2365H12.2367H12.2368H12.2369H12.237H12.2371H12.2373H12.2374H12.2375H12.2376H12.2378H12.2379H12.238H12.2381H12.2383H12.2384H12.2385H12.2386H12.2388H12.2389H12.239H12.2392H12.2393H12.2394H12.2395H12.2397H12.2398H12.2399H12.2401H12.2402H12.2403H12.2405H12.2406H12.2407H12.2409H12.241H12.2411H12.2413H12.2414H12.2416H12.2417H12.2418H12.242H12.2421H12.2423H12.2424H12.2425H12.2427H12.2428H12.243H12.2431H12.2433H12.2434H12.2436H12.2437H12.2438H12.244H12.2441H12.2443H12.2444H12.2446H12.2447H12.2449H12.245H12.2452H12.2453H12.2455H12.2457H12.2458H12.246H12.2461H12.2463H12.2464H12.2466H12.2467H12.2469H12.2471H12.2472H12.2474H12.2475H12.2477H12.2479H12.248H12.2482H12.2484H12.2485H12.2487H12.2489H12.5618H12.5619H12.5621H12.5623H12.5624H12.5626H12.5628H12.5629H12.5631H12.5632H12.5634H12.5636H12.5637H12.5639H12.564H12.5642H12.5643H12.5645H12.5647H12.5648H12.565H12.5651H12.5653H12.5654H12.5656H12.5657H12.5659H12.566H12.5662H12.5663H12.5665H12.5666H12.5668H12.5669H12.5671H12.5672H12.5674H12.5675H12.5677H12.5678H12.5679H12.5681H12.5682H12.5684H12.5685H12.5686H12.5688H12.5689H12.5691H12.5692H12.5693H12.5695H12.5696H12.5697H12.5699H12.57H12.5702H12.5703H12.5704H12.5706H12.5707H12.5708H12.5709H12.5711H12.5712H12.5713H12.5715H12.5716H12.5717H12.5719H12.572H12.5721H12.5722H12.5724H12.5725H12.5726H12.5727H12.5729H12.573H12.5731H12.5732H12.5734H12.5735H12.5736H12.5737H12.5738H12.574H12.5741H12.5742H12.5743H12.5744H12.5746H12.5747H12.5748H12.5749H12.575H12.5751H12.5753H12.5754H12.5755H12.5756H12.5757H12.5758H12.5759H12.5761H12.5762H12.5763H12.5764H12.5765H12.5766H12.5767H12.5768H12.5769H12.5771H12.5772H12.5773H12.5774H12.5775H12.5776H12.5777H12.5778H12.5779H12.578H12.5781H12.5782H12.5783H12.5784H12.5785H12.5787H12.5788H12.5789H12.579H12.5791H12.5792H12.5793H12.5794H12.5795H12.5796H12.5797H12.5798H12.5799H12.58H12.5801H12.5802H12.5803H12.5804H12.5805H12.5806H12.5807H12.5808H12.5809H12.581H12.5811H12.5812H12.5813H12.5814H12.5815H12.5815H12.5816H12.5817H12.5818H12.5819H12.582H12.5821H12.5822H12.5823H12.5824H12.5825H12.5826H12.5827H12.5828H12.5829H12.583H12.583H12.5831H12.5832H12.5833H12.5834H12.5835H12.5836H12.5837H12.5838H12.5839H12.584H12.5841H12.5841H12.5842H12.5843H12.5844H12.5845H12.5846H12.5847H12.5848H12.5849H12.5849H12.585H12.5851H12.5852H12.5853H12.5854H12.5855H12.5856H12.5856H12.5857H12.5858H12.5859H12.586H12.5861H12.5862H12.5862H12.5863H12.5864H12.5865H12.5866H12.5867H12.5868H12.5868H12.5869H12.587H12.5871H12.5872H12.5873H12.5874H12.5874H12.5875H12.5876H12.5877H12.5878H12.5879H12.588H12.588H12.5881H12.5882H12.5883H12.5884H12.5885H12.5885H12.5886H12.5887H12.5888H12.5889H12.589H12.589H12.5891H12.5892H12.5893H12.5894H12.5895H12.5895H12.5896H12.5897H12.5898H12.5899H12.59H12.59H12.5901H12.5902H12.5903H12.5904H12.5905H12.5905H12.5906H12.5907H12.5908H12.5909H12.591H12.591H12.5911H12.5912H12.5913H12.5914H12.5915H12.5915H12.5916H12.5917H12.5918H12.5919H12.592H12.592H12.5921H12.5922H12.5923H12.5924H12.5925H12.5926H12.5926H12.5927H12.5928H12.5929H12.593H12.5931H12.5931H12.5932H12.5933H12.5934H12.5935H12.5936H12.5937H12.5937H12.5938H12.5939H12.594H12.5941H12.5942H12.5943H12.5943H12.5944H12.5945H12.5946H12.5947H12.5948H12.5949H12.595H12.595H12.5951H12.5952H12.5953H12.5954H12.5955H12.5956H12.5957H12.5957H12.5958H12.5959H12.596H12.5961H12.5962H12.5963H12.5964H12.5965H12.5965H12.5966H12.5967H12.5968H12.5969H12.597H12.5971H12.5972H12.5973H12.5974H12.5975H12.5976H12.5976H12.5977H12.5978H12.5979H12.598H12.5981H12.5982H12.5983H12.5984H12.5985H12.5986H12.5987H12.5988H12.5989H12.599H12.5991H12.5992H12.5993H12.5994H12.5995H12.5995H12.5996H12.5997H12.5998H12.5999H12.6H12.6001H12.6002H12.6003H12.6004H12.6005H12.6006H12.6007H12.6008H12.6009H12.601H12.6011H12.6012H12.6014H12.6015H12.6016H12.6017H12.6018H12.6019H12.602H12.6021H12.6022H12.6023H12.6024H12.6025H12.6026H12.6027H12.6028H12.6029H12.603H12.6031H12.6033H12.6034H12.6035H12.6036H12.6037H12.6038H12.6039H12.604H12.6041H12.6043H12.6044H12.6045H12.6046H12.6047H12.6048H12.6049H12.605H12.6052H12.6053H12.6054H12.6055H12.6056H12.6057H12.6059H12.606H12.6061H12.6062H12.6063H12.6065H12.6066H12.6067H12.6068H12.6069H12.6071H12.6072H12.6073H12.6074H12.6076H12.6077H12.6078H12.6079H12.6081H12.6082H12.6083H12.6084H12.6086H12.6087H12.6088H12.609H12.6091H12.6092H12.6093H12.6095H12.6096H12.6097H12.6099H12.61H12.6101H12.6103H12.6104H12.6105H12.6107H12.6108H12.6109H12.6111H12.6112H12.6114H12.6115H12.6116H12.6118H12.6119H12.6121H12.6122H12.6123H12.6125H12.6126H12.6128H12.6129H12.6131H12.6132H12.6133H12.6135H12.6136H12.6138H12.6139H12.6141H12.6142H12.6144H12.6145H12.6147H12.6148H12.615H12.6151H12.6153H12.6154H12.6156H12.6158H12.6159H12.6161H12.6162H12.6164H12.6165H12.6167H12.6169H12.617H12.6172H12.6173H12.6175H12.6177H12.6178H12.618H12.6182H12.6183H12.6185H12.6187V3.39216L12.6282 3.39124C13.6628 3.29209 14.5813 3.02776 15.4629 2.76614C15.463 2.7661 15.4631 2.76606 15.4633 2.76602L15.504 2.75431C16.5757 2.44613 17.5318 2.17119 18.4123 2.35104C19.2912 2.53055 20.117 3.17077 20.8918 4.77457L20.8921 4.77527C21.3706 5.74645 21.7667 7.01339 22.0787 8.44836C22.3908 9.9494 22.6174 11.5138 22.674 12.946C22.7307 14.4466 22.6163 15.4448 22.3673 16.113C22.2018 16.5569 21.9905 16.7861 21.747 16.8707C21.4684 16.9576 21.0984 16.9028 20.6527 16.7108C19.6764 16.2614 18.522 15.2604 17.3869 14.0204C16.28 12.7483 14.3417 12.1223 12.4195 12.1223C10.4965 12.1223 8.56001 12.7487 7.42558 13.953Z" fill="black" stroke="black" stroke-width="0.2"/>
<path d="M5.19383 7.31538L5.21629 7.33491C5.21696 7.32683 5.21226 7.3169 5.20291 7.30766C5.19986 7.31021 5.19683 7.31278 5.19383 7.31538ZM5.19383 7.31538L5.21504 7.33997C5.21414 7.34205 5.21277 7.34392 5.21092 7.34552L5.18112 7.32999L5.19383 7.31538ZM9.87755 6.43193L9.87765 6.43184L9.874 6.42807C9.60058 6.14508 9.26607 5.91009 8.87051 5.85147C8.82543 5.43427 8.65285 5.02353 8.39835 4.73086L8.36991 4.69814C8.04005 4.3188 7.61521 4.10764 7.12816 4.10764C6.63977 4.10764 6.18684 4.35264 5.88641 4.69814C5.633 4.98956 5.43304 5.40174 5.38554 5.85109C4.99396 5.90545 4.65943 6.10854 4.38231 6.39535L4.38221 6.39526L4.37877 6.39922L4.35032 6.43193C4.02075 6.81094 3.8422 7.29257 3.8422 7.83878C3.8422 8.38614 4.04993 8.90018 4.35032 9.24563C4.63033 9.56765 4.96801 9.77362 5.38533 9.82713C5.42966 10.2719 5.60363 10.6859 5.88812 10.9814C6.21774 11.3595 6.64195 11.5699 7.12816 11.5699C7.61654 11.5699 8.06947 11.3249 8.36991 10.9794L8.37001 10.9795L8.3732 10.9754C8.62187 10.6577 8.82297 10.2744 8.87074 9.82651C9.26353 9.77237 9.62433 9.56833 9.87924 9.24368C10.2077 8.86498 10.3857 8.38406 10.3857 7.83878C10.3857 7.29142 10.1779 6.77738 9.87755 6.43193ZM5.26441 7.3866C5.36406 7.30239 5.48177 7.25181 5.59207 7.25181H5.99031C6.33948 7.25181 6.63079 6.93536 6.63079 6.53026V6.07228C6.63079 5.89672 6.68106 5.75745 6.77693 5.6472C6.87207 5.53779 6.98695 5.48531 7.12816 5.48531C7.26936 5.48531 7.38425 5.53779 7.47939 5.6472L7.47939 5.64721L7.47944 5.64727L7.47983 5.64772L7.48294 5.65129L7.50317 5.67455C7.5775 5.79069 7.62552 5.9332 7.62552 6.07228V6.53026C7.62552 6.8954 7.88209 7.25181 8.266 7.25181H8.66424C8.80545 7.25181 8.92033 7.30429 9.01547 7.41371C9.11134 7.52395 9.16161 7.66323 9.16161 7.83878C9.16161 8.01434 9.11134 8.15361 9.01547 8.26386C8.92033 8.37327 8.80545 8.42576 8.66424 8.42576H8.266C7.91683 8.42576 7.62552 8.74221 7.62552 9.1473V9.57257C7.62552 9.74813 7.57525 9.8874 7.47939 9.99765C7.38425 10.1071 7.26936 10.1595 7.12816 10.1595C6.98695 10.1595 6.87207 10.1071 6.77693 9.99765C6.68106 9.8874 6.63079 9.74813 6.63079 9.57257V9.11459C6.63079 8.74945 6.37423 8.39304 5.99031 8.39304H5.59207C5.45086 8.39304 5.33598 8.34056 5.24084 8.23115C5.16812 8.14752 5.0947 8.00647 5.0947 7.83878C5.0947 7.66323 5.14497 7.52395 5.24084 7.41371L5.24089 7.41365L5.24128 7.4132L5.2444 7.40962L5.26441 7.3866Z" fill="black" stroke="black" stroke-width="0.2"/>
<path d="M17.3687 6.76109C17.9865 6.76109 18.4644 6.19013 18.4644 5.51614C18.4644 4.84215 17.9865 4.27119 17.3687 4.27119C16.751 4.27119 16.2731 4.84215 16.2731 5.51614C16.2731 6.19013 16.751 6.76109 17.3687 6.76109Z" fill="black" stroke="black" stroke-width="0.2"/>
<path d="M17.3687 11.4064C17.9865 11.4064 18.4644 10.8354 18.4644 10.1614C18.4644 9.48745 17.9865 8.91648 17.3687 8.91648C16.751 8.91648 16.2731 9.48745 16.2731 10.1614C16.2731 10.8354 16.751 11.4064 17.3687 11.4064Z" fill="black" stroke="black" stroke-width="0.2"/>
<path d="M15.3491 9.08376C15.9668 9.08376 16.4447 8.51279 16.4447 7.8388C16.4447 7.16481 15.9668 6.59385 15.3491 6.59385C14.7313 6.59385 14.2535 7.16481 14.2535 7.8388C14.2535 8.51279 14.7313 9.08376 15.3491 9.08376Z" fill="black" stroke="black" stroke-width="0.2"/>
<path d="M19.3884 9.08376C20.0062 9.08376 20.484 8.51279 20.484 7.8388C20.484 7.16481 20.0062 6.59385 19.3884 6.59385C18.7707 6.59385 18.2928 7.16481 18.2928 7.8388C18.2928 8.51279 18.7707 9.08376 19.3884 9.08376Z" fill="black" stroke="black" stroke-width="0.2"/>
</svg>
