<svg width="22" height="21" viewBox="0 0 22 21" fill="none" xmlns="http://www.w3.org/2000/svg">
<path d="M15.61 2.58856C16.117 2.58701 16.6197 2.68203 17.0911 2.86856C19.8541 3.96156 20.5511 7.08856 19.4571 9.85156C17.8201 13.9886 11.477 18.3115 10.847 18.7325C10.8321 18.7431 10.8144 18.749 10.7961 18.7495C10.7771 18.749 10.7587 18.7431 10.743 18.7325C10.067 18.2945 3.80607 14.0406 2.14307 9.85156C1.05007 7.08856 1.74307 3.96156 4.50907 2.86856C4.98053 2.68222 5.4831 2.5872 5.99005 2.58856C6.92315 2.6523 7.8308 2.92059 8.64859 3.37442C9.46638 3.82825 10.1743 4.45646 10.722 5.21454C10.7314 5.22569 10.7432 5.23467 10.7564 5.24081C10.7696 5.24696 10.784 5.25015 10.7986 5.25015C10.8131 5.25015 10.8275 5.24696 10.8407 5.24081C10.8539 5.23467 10.8657 5.22569 10.8751 5.21454C11.4227 4.45637 12.1306 3.82808 12.9484 3.37424C13.7662 2.9204 14.6739 2.65216 15.6071 2.58856H15.61ZM15.6071 0.935547C13.8223 0.998233 12.1181 1.69369 10.799 2.89755C9.47986 1.69391 7.77573 0.998493 5.99106 0.935547C5.2757 0.935598 4.56685 1.07132 3.90207 1.33554C3.041 1.66901 2.26834 2.19637 1.64401 2.87671C1.01969 3.55705 0.560499 4.37206 0.302066 5.25854C-0.181835 6.979 -0.0733757 8.81219 0.610049 10.4636C2.54305 15.3476 9.54605 19.9306 9.84305 20.1226C10.1291 20.3092 10.4638 20.4076 10.8054 20.4055C11.1469 20.4034 11.4804 20.3008 11.7641 20.1105C12.9921 19.2895 19.211 14.9686 20.993 10.4636C21.677 8.81235 21.7859 6.97908 21.3021 5.25854C21.0436 4.3721 20.5843 3.5571 19.96 2.87677C19.3357 2.19644 18.5631 1.66907 17.7021 1.33554C17.0373 1.07132 16.3284 0.935598 15.6131 0.935547H15.6071Z" fill="url(#paint0_radial)"/>
<defs>
<radialGradient id="paint0_radial" cx="0" cy="0" r="1" gradientUnits="userSpaceOnUse" gradientTransform="translate(-18.0353 36.1762) scale(85.1252 85.1811)">
<stop stop-color="#A1DB00"/>
<stop offset="0.4" stop-color="#0064EC"/>
<stop offset="0.6" stop-color="#0800EF"/>
<stop offset="0.8" stop-color="#F1FF6D"/>
<stop offset="1" stop-color="#868700"/>
</radialGradient>
</defs>
</svg>
