<svg width="24" height="20" viewBox="0 0 20 18" fill="none" xmlns="http://www.w3.org/2000/svg">
<path d="M10.0378 16.3106C10.0258 16.3179 10.0141 16.3251 10.0026 16.3321C9.99061 16.3247 9.97837 16.3171 9.96588 16.3094C9.69946 16.144 9.31694 15.9004 8.85709 15.59C7.93597 14.9683 6.71148 14.0836 5.49052 13.028C4.2662 11.9695 3.06628 10.7571 2.17761 9.48327C1.28395 8.20228 0.75 6.92369 0.75 5.7171C0.75 2.93844 2.88443 0.750173 5.44002 0.750173V0.750198L5.44616 0.750148C7.01179 0.737316 8.49219 1.56461 9.36196 2.97254L9.9963 3.99939L10.636 2.97588C11.5127 1.5732 12.9911 0.74653 14.5571 0.750168C17.109 0.763772 19.2363 2.94539 19.25 5.7189C19.2495 6.94804 18.7138 8.23717 17.8218 9.51958C16.9337 10.7964 15.7345 12.0056 14.5109 13.0583C13.2905 14.1082 12.0666 14.9849 11.146 15.5998C10.6863 15.9068 10.304 16.1474 10.0378 16.3106Z" stroke="#040404" stroke-width="1.5"/>
</svg>
