<svg width="22" height="18" viewBox="0 0 22 22" fill="none" xmlns="http://www.w3.org/2000/svg">
<g clip-path="url(#clip0)">
<path d="M2.33507 13.3014L3.38299 12.4952V20.1961V20.2461H3.43299H9.94357H9.99357V20.1961V14.5293H12.2633V20.1961V20.2461H12.3133H18.5671H18.6171V20.1961V12.4952L19.6651 13.3014L19.7047 13.3319L19.7352 13.2922L22.0396 10.2966L22.0701 10.257L22.0305 10.2265L18.9339 7.84435V3.23513V3.18513H18.8839H15.0518H15.0018V3.23513V4.81942L11.0304 1.76429L11 1.74084L10.9695 1.76429L-0.030487 10.2264L-0.0701173 10.2569L-0.0396299 10.2965L2.26496 13.2922L2.29544 13.3319L2.33507 13.3014ZM17.2265 11.4255V18.8555H13.6539V13.1888V13.1388H13.6039H8.65296H8.60296V13.1888V18.8555H4.77351V11.4255L11 6.63581L17.2265 11.4255ZM16.3924 7.54206V4.57569H17.5434V8.50443V8.52905L17.5629 8.54406L20.12 10.5112L19.4503 11.3818L11.0305 4.90454L11 4.88108L10.9695 4.90454L2.54967 11.3818L1.87992 10.5112L11 3.49527L16.3119 7.58169L16.3924 7.64361V7.54206Z" fill="black" stroke="black" stroke-width="0.1"/>
</g>
<defs>
<clipPath id="clip0">
<rect width="22" height="22" fill="white"/>
</clipPath>
</defs>
</svg>
