<svg width="18" height="16" viewBox="0 0 18 16" fill="none" xmlns="http://www.w3.org/2000/svg">
<path d="M8.96446 13.8605C8.41674 13.3861 7.89308 12.9408 7.39667 12.5187C6.0592 11.3815 4.91954 10.4125 4.04022 9.49476C2.8119 8.21273 2.13333 7.07116 2.13333 5.76919C2.13333 3.7949 3.47891 2.34427 5.23112 2.34427C6.06986 2.34427 6.75445 2.73122 7.27746 3.27751C7.80242 3.82582 8.15536 4.52631 8.32187 5.12185C8.32192 5.12204 8.32198 5.12223 8.32203 5.12242L8.51465 5.0686C8.64022 5.52313 9.28714 5.52515 9.41426 5.0686L8.96446 13.8605ZM8.96446 13.8605C9.51255 13.3857 10.0367 12.9402 10.5336 12.5177C11.869 11.3824 13.0078 10.4142 13.8869 9.49687C15.1159 8.2145 15.7956 7.07191 15.7956 5.76919C15.7956 3.7949 14.45 2.34427 12.6978 2.34427C11.8505 2.34427 11.1649 2.73514 10.6436 3.28323C10.1201 3.8336 9.77124 4.53436 9.60693 5.12224L8.96446 13.8605ZM12.6978 1.01094C11.0308 1.01094 9.77565 1.96612 8.96446 3.32273C8.15331 1.9662 6.89814 1.01094 5.23112 1.01094C2.6577 1.01094 0.8 3.17246 0.8 5.76919C0.8 7.49933 1.62946 8.89436 2.99704 10.3363C3.9377 11.3282 5.15144 12.3601 6.54996 13.5493C7.17425 14.0801 7.83536 14.6422 8.52544 15.246L8.52545 15.246C8.77687 15.4659 9.15207 15.4659 9.40344 15.246L9.40347 15.246C10.093 14.6426 10.7538 14.0808 11.3779 13.5502C12.7756 12.3618 13.9894 11.3299 14.9303 10.3378C16.2984 8.89552 17.1289 7.49957 17.1289 5.76919C17.1289 3.17204 15.2709 1.01094 12.6978 1.01094Z" fill="#040404" stroke="#040404" stroke-width="0.4"/>
</svg>
