<svg width="30" height="30" viewBox="0 0 30 30" fill="none" xmlns="http://www.w3.org/2000/svg">
<path fill-rule="evenodd" clip-rule="evenodd" d="M0 15C0 6.71573 6.71573 0 15 0C23.2843 0 30 6.71573 30 15C30 23.2843 23.2843 30 15 30C6.71573 30 0 23.2843 0 15Z" fill="#0077B5"/>
<path fill-rule="evenodd" clip-rule="evenodd" d="M10.8242 9.26419C10.8022 8.26275 10.086 7.5 8.92315 7.5C7.76026 7.5 7 8.26275 7 9.26419C7 10.2449 7.73779 11.0296 8.87902 11.0296H8.90074C10.086 11.0296 10.8242 10.2449 10.8242 9.26419ZM10.6005 12.4237H7.20117V22.6372H10.6005V12.4237ZM18.9462 12.1838C21.1831 12.1838 22.8601 13.6439 22.8601 16.7811L22.86 22.6372H19.4608V17.173C19.4608 15.8005 18.9689 14.8639 17.7383 14.8639C16.7992 14.8639 16.2398 15.4953 15.9941 16.1051C15.9042 16.3236 15.8822 16.6281 15.8822 16.9334V22.6375H12.4824C12.4824 22.6375 12.5272 13.3823 12.4824 12.4239H15.8822V13.8706C16.3333 13.1752 17.1414 12.1838 18.9462 12.1838Z" fill="white"/>
</svg>
