<svg width="20" height="20" viewBox="0 0 20 20" fill="none" xmlns="http://www.w3.org/2000/svg">
<rect width="20" height="20" fill="white"/>
<path d="M16.3233 7.38543L17.7228 8.78497C18.4102 9.47233 18.4102 10.5902 17.7228 11.2775L16.3233 12.6771C16.1622 12.8381 15.9508 12.9187 15.7399 12.9187C15.5291 12.9187 15.3176 12.8381 15.1566 12.6771L16.3233 7.38543ZM16.3233 7.38543C16.0011 7.06323 15.4787 7.06316 15.1566 7.3854M16.3233 7.38543L15.1566 7.3854M15.1566 7.3854C15.1566 7.38542 15.1565 7.38545 15.1565 7.38547C14.8343 7.70759 14.8343 8.22995 15.1565 8.55206C15.1566 8.55207 15.1566 8.55209 15.1566 8.5521L15.8107 9.20625H8.78906C8.33339 9.20625 7.96406 9.57558 7.96406 10.0312C7.96406 10.4869 8.33339 10.8562 8.78906 10.8562H15.8107L15.1566 11.5104C15.1566 11.5104 15.1566 11.5104 15.1565 11.5104C14.8343 11.8326 14.8343 12.3549 15.1566 12.6771L15.1566 7.3854ZM13.5203 15.5V14.25C13.5203 13.7943 13.151 13.425 12.6953 13.425C12.2396 13.425 11.8703 13.7943 11.8703 14.25V15.5C11.8703 16.0788 11.3991 16.55 10.8203 16.55H4.53906C3.96031 16.55 3.48906 16.0788 3.48906 15.5V4.5C3.48906 3.92125 3.96031 3.45 4.53906 3.45H10.8203C11.3991 3.45 11.8703 3.92125 11.8703 4.5V5.75C11.8703 6.20567 12.2396 6.575 12.6953 6.575C13.151 6.575 13.5203 6.20567 13.5203 5.75V4.5C13.5203 3.011 12.3093 1.8 10.8203 1.8H4.53906C3.05007 1.8 1.83906 3.011 1.83906 4.5V15.5C1.83906 16.989 3.05007 18.2 4.53906 18.2H10.8203C12.3093 18.2 13.5203 16.989 13.5203 15.5Z" fill="#040404" stroke="#040404" stroke-width="0.4"/>
</svg>
