<svg width="22" height="22" viewBox="0 0 22 22" fill="none" xmlns="http://www.w3.org/2000/svg">
<g clip-path="url(#clip0)">
<path d="M18.6398 4.5662L14.4966 0.646508C14.0559 0.229582 13.4791 0 12.8724 0H4.98438C3.68126 0 2.62109 1.06017 2.62109 2.36328V19.6367C2.62109 20.9398 3.68126 22 4.98438 22H17.0156C18.3187 22 19.3789 20.9398 19.3789 19.6367V6.28298C19.3789 5.63634 19.1095 5.01059 18.6398 4.5662ZM17.3878 5.15625H14.1797C14.0612 5.15625 13.9648 5.05987 13.9648 4.94141V1.91795L17.3878 5.15625ZM17.0156 20.7109H4.98438C4.39205 20.7109 3.91016 20.229 3.91016 19.6367V2.36328C3.91016 1.77096 4.39205 1.28906 4.98438 1.28906H12.6758V4.94141C12.6758 5.77066 13.3504 6.44531 14.1797 6.44531H18.0898V19.6367C18.0898 20.229 17.6079 20.7109 17.0156 20.7109Z" fill="black" stroke="black" stroke-width="0.3"/>
</g>
<defs>
<clipPath id="clip0">
<rect width="22" height="22" fill="white"/>
</clipPath>
</defs>
</svg>
