<svg width="20" height="20" viewBox="0 0 20 20" fill="none" xmlns="http://www.w3.org/2000/svg">
<rect width="20" height="20" fill="white"/>
<mask id="path-1-outside-1" maskUnits="userSpaceOnUse" x="2" y="0" width="16" height="20" fill="black">
<rect fill="white" x="2" width="16" height="20"/>
<path d="M10.0961 1C6.18333 1 3 4.18329 3 8.09615C3 10.5347 4.23652 12.6897 6.11537 13.9676V18.4807C6.11537 18.6569 6.2047 18.8211 6.35268 18.9167C6.50058 19.0124 6.68698 19.0265 6.84768 18.9542L10.0961 17.4925L13.3446 18.9543C13.4126 18.9848 13.4852 19 13.5576 19C13.6562 19 13.7543 18.9719 13.8396 18.9168C13.9876 18.8211 14.0769 18.6569 14.0769 18.4808V13.9677C15.9558 12.6898 17.1923 10.5347 17.1923 8.09618C17.1923 4.18329 14.009 1 10.0961 1ZM13.0384 17.6778L10.3092 16.4496C10.2414 16.4191 10.1688 16.4039 10.0961 16.4039C10.0235 16.4039 9.95085 16.4191 9.8831 16.4496L7.15385 17.6777V14.5546C7.41482 14.6736 7.68267 14.7758 7.95559 14.8621C7.97106 14.867 7.98649 14.872 8.00203 14.8768C8.03687 14.8875 8.07182 14.8979 8.1068 14.908C8.13271 14.9156 8.15862 14.9231 8.1846 14.9305C8.21283 14.9383 8.24116 14.946 8.2695 14.9535C8.30255 14.9623 8.33566 14.9709 8.36889 14.9793C8.39237 14.9852 8.41589 14.9909 8.43945 14.9965C8.47766 15.0057 8.51598 15.0145 8.55444 15.0231C8.57438 15.0275 8.59434 15.0319 8.61431 15.0362C8.65643 15.0452 8.69869 15.0537 8.74112 15.0619C8.75838 15.0653 8.77564 15.0687 8.79294 15.0719C8.83787 15.0803 8.88298 15.0881 8.92819 15.0957C8.94369 15.0983 8.9592 15.1009 8.97473 15.1034C9.02139 15.1108 9.06825 15.1177 9.11525 15.1242C9.12981 15.1262 9.14433 15.1284 9.15888 15.1303C9.20645 15.1366 9.25423 15.1423 9.30204 15.1476C9.31631 15.1492 9.33052 15.151 9.34479 15.1525C9.3925 15.1576 9.44038 15.1619 9.48837 15.166C9.50292 15.1672 9.51741 15.1687 9.532 15.1699C9.57928 15.1736 9.62678 15.1766 9.67434 15.1794C9.6896 15.1803 9.70479 15.1815 9.72012 15.1823C9.76818 15.1848 9.81641 15.1866 9.86471 15.1881C9.87927 15.1886 9.89372 15.1894 9.90827 15.1898C9.97071 15.1914 10.0334 15.1923 10.0962 15.1923C10.159 15.1923 10.2217 15.1914 10.2841 15.1898C10.2987 15.1894 10.3131 15.1886 10.3277 15.1881C10.376 15.1866 10.4242 15.1848 10.4723 15.1823C10.4875 15.1815 10.5028 15.1803 10.5181 15.1794C10.5656 15.1766 10.6131 15.1736 10.6604 15.1699C10.675 15.1687 10.6895 15.1672 10.704 15.166C10.752 15.1619 10.7999 15.1576 10.8476 15.1525C10.8619 15.151 10.8761 15.1492 10.8904 15.1476C10.9382 15.1422 10.986 15.1366 11.0335 15.1303C11.0481 15.1284 11.0626 15.1262 11.0771 15.1242C11.1241 15.1177 11.171 15.1108 11.2177 15.1034C11.2332 15.1009 11.2487 15.0982 11.2642 15.0957C11.3094 15.0881 11.3545 15.0803 11.3995 15.0719C11.4168 15.0687 11.434 15.0653 11.4513 15.0619C11.4937 15.0537 11.5359 15.0451 11.5781 15.0362C11.5981 15.0319 11.618 15.0275 11.638 15.0231C11.6764 15.0145 11.7147 15.0057 11.753 14.9965C11.7765 14.9909 11.8 14.9851 11.8235 14.9793C11.8567 14.971 11.8898 14.9623 11.9229 14.9535C11.9512 14.9459 11.9796 14.9384 12.0078 14.9305C12.0338 14.9231 12.0597 14.9156 12.0856 14.908C12.1206 14.8978 12.1556 14.8875 12.1904 14.8768C12.2059 14.872 12.2213 14.867 12.2368 14.8621C12.5097 14.7758 12.7776 14.6736 13.0386 14.5547L13.0384 17.6778ZM12.0729 13.8223C12.0522 13.8295 12.0315 13.8366 12.0108 13.8436C11.9792 13.8541 11.9475 13.8645 11.9157 13.8745C11.8786 13.8861 11.8415 13.8974 11.8043 13.9082C11.778 13.916 11.7517 13.9237 11.7253 13.9311C11.6761 13.9448 11.6266 13.958 11.577 13.9704C11.5585 13.9751 11.54 13.9795 11.5215 13.984C11.4729 13.9958 11.4241 14.007 11.3753 14.0175C11.363 14.0202 11.3508 14.023 11.3385 14.0255C11.2754 14.0387 11.2121 14.051 11.1486 14.0621C11.1421 14.0633 11.1356 14.0642 11.1291 14.0654C11.0719 14.0753 11.0145 14.0842 10.9569 14.0924C10.944 14.0943 10.931 14.0961 10.918 14.0979C10.8566 14.1062 10.7952 14.1139 10.7335 14.1204C10.7312 14.1206 10.7289 14.1209 10.7265 14.1212C10.662 14.1279 10.5972 14.1334 10.5323 14.138C10.5183 14.1391 10.5041 14.1398 10.49 14.1407C10.4396 14.144 10.3891 14.1466 10.3386 14.1486C10.3214 14.1493 10.3042 14.15 10.287 14.1506C10.2234 14.1525 10.1599 14.1539 10.0961 14.1539C10.0324 14.1539 9.96885 14.1526 9.90532 14.1505C9.88809 14.15 9.8709 14.1492 9.85375 14.1485C9.80316 14.1465 9.75271 14.1439 9.70226 14.1407C9.68816 14.1398 9.67406 14.139 9.65996 14.138C9.5951 14.1333 9.53034 14.1278 9.46576 14.1211C9.46344 14.1209 9.46112 14.1206 9.4588 14.1203C9.39714 14.1138 9.33568 14.1062 9.27434 14.0978C9.26136 14.0961 9.24839 14.0943 9.23538 14.0924C9.17783 14.0841 9.12042 14.0752 9.06319 14.0653C9.05672 14.0642 9.05022 14.0632 9.04371 14.0621C8.98018 14.0509 8.91687 14.0386 8.85383 14.0255C8.84156 14.0229 8.82933 14.02 8.81702 14.0174C8.76816 14.0069 8.71939 13.9957 8.67084 13.984C8.65228 13.9795 8.63372 13.975 8.61526 13.9704C8.56566 13.9579 8.51623 13.9447 8.46697 13.931C8.44057 13.9236 8.41427 13.9159 8.38801 13.9082C8.35082 13.8972 8.31366 13.8861 8.2766 13.8744C8.24478 13.8644 8.21311 13.854 8.1815 13.8435C8.16069 13.8366 8.13998 13.8294 8.11931 13.8223C5.74683 13.001 4.03845 10.7444 4.03845 8.09615C4.03845 4.75595 6.75592 2.03845 10.0961 2.03845C13.4364 2.03845 16.1539 4.75592 16.1539 8.09615C16.1539 10.7444 14.4454 13.001 12.0729 13.8223Z"/>
</mask>
<path d="M10.0961 1C6.18333 1 3 4.18329 3 8.09615C3 10.5347 4.23652 12.6897 6.11537 13.9676V18.4807C6.11537 18.6569 6.2047 18.8211 6.35268 18.9167C6.50058 19.0124 6.68698 19.0265 6.84768 18.9542L10.0961 17.4925L13.3446 18.9543C13.4126 18.9848 13.4852 19 13.5576 19C13.6562 19 13.7543 18.9719 13.8396 18.9168C13.9876 18.8211 14.0769 18.6569 14.0769 18.4808V13.9677C15.9558 12.6898 17.1923 10.5347 17.1923 8.09618C17.1923 4.18329 14.009 1 10.0961 1ZM13.0384 17.6778L10.3092 16.4496C10.2414 16.4191 10.1688 16.4039 10.0961 16.4039C10.0235 16.4039 9.95085 16.4191 9.8831 16.4496L7.15385 17.6777V14.5546C7.41482 14.6736 7.68267 14.7758 7.95559 14.8621C7.97106 14.867 7.98649 14.872 8.00203 14.8768C8.03687 14.8875 8.07182 14.8979 8.1068 14.908C8.13271 14.9156 8.15862 14.9231 8.1846 14.9305C8.21283 14.9383 8.24116 14.946 8.2695 14.9535C8.30255 14.9623 8.33566 14.9709 8.36889 14.9793C8.39237 14.9852 8.41589 14.9909 8.43945 14.9965C8.47766 15.0057 8.51598 15.0145 8.55444 15.0231C8.57438 15.0275 8.59434 15.0319 8.61431 15.0362C8.65643 15.0452 8.69869 15.0537 8.74112 15.0619C8.75838 15.0653 8.77564 15.0687 8.79294 15.0719C8.83787 15.0803 8.88298 15.0881 8.92819 15.0957C8.94369 15.0983 8.9592 15.1009 8.97473 15.1034C9.02139 15.1108 9.06825 15.1177 9.11525 15.1242C9.12981 15.1262 9.14433 15.1284 9.15888 15.1303C9.20645 15.1366 9.25423 15.1423 9.30204 15.1476C9.31631 15.1492 9.33052 15.151 9.34479 15.1525C9.3925 15.1576 9.44038 15.1619 9.48837 15.166C9.50292 15.1672 9.51741 15.1687 9.532 15.1699C9.57928 15.1736 9.62678 15.1766 9.67434 15.1794C9.6896 15.1803 9.70479 15.1815 9.72012 15.1823C9.76818 15.1848 9.81641 15.1866 9.86471 15.1881C9.87927 15.1886 9.89372 15.1894 9.90827 15.1898C9.97071 15.1914 10.0334 15.1923 10.0962 15.1923C10.159 15.1923 10.2217 15.1914 10.2841 15.1898C10.2987 15.1894 10.3131 15.1886 10.3277 15.1881C10.376 15.1866 10.4242 15.1848 10.4723 15.1823C10.4875 15.1815 10.5028 15.1803 10.5181 15.1794C10.5656 15.1766 10.6131 15.1736 10.6604 15.1699C10.675 15.1687 10.6895 15.1672 10.704 15.166C10.752 15.1619 10.7999 15.1576 10.8476 15.1525C10.8619 15.151 10.8761 15.1492 10.8904 15.1476C10.9382 15.1422 10.986 15.1366 11.0335 15.1303C11.0481 15.1284 11.0626 15.1262 11.0771 15.1242C11.1241 15.1177 11.171 15.1108 11.2177 15.1034C11.2332 15.1009 11.2487 15.0982 11.2642 15.0957C11.3094 15.0881 11.3545 15.0803 11.3995 15.0719C11.4168 15.0687 11.434 15.0653 11.4513 15.0619C11.4937 15.0537 11.5359 15.0451 11.5781 15.0362C11.5981 15.0319 11.618 15.0275 11.638 15.0231C11.6764 15.0145 11.7147 15.0057 11.753 14.9965C11.7765 14.9909 11.8 14.9851 11.8235 14.9793C11.8567 14.971 11.8898 14.9623 11.9229 14.9535C11.9512 14.9459 11.9796 14.9384 12.0078 14.9305C12.0338 14.9231 12.0597 14.9156 12.0856 14.908C12.1206 14.8978 12.1556 14.8875 12.1904 14.8768C12.2059 14.872 12.2213 14.867 12.2368 14.8621C12.5097 14.7758 12.7776 14.6736 13.0386 14.5547L13.0384 17.6778ZM12.0729 13.8223C12.0522 13.8295 12.0315 13.8366 12.0108 13.8436C11.9792 13.8541 11.9475 13.8645 11.9157 13.8745C11.8786 13.8861 11.8415 13.8974 11.8043 13.9082C11.778 13.916 11.7517 13.9237 11.7253 13.9311C11.6761 13.9448 11.6266 13.958 11.577 13.9704C11.5585 13.9751 11.54 13.9795 11.5215 13.984C11.4729 13.9958 11.4241 14.007 11.3753 14.0175C11.363 14.0202 11.3508 14.023 11.3385 14.0255C11.2754 14.0387 11.2121 14.051 11.1486 14.0621C11.1421 14.0633 11.1356 14.0642 11.1291 14.0654C11.0719 14.0753 11.0145 14.0842 10.9569 14.0924C10.944 14.0943 10.931 14.0961 10.918 14.0979C10.8566 14.1062 10.7952 14.1139 10.7335 14.1204C10.7312 14.1206 10.7289 14.1209 10.7265 14.1212C10.662 14.1279 10.5972 14.1334 10.5323 14.138C10.5183 14.1391 10.5041 14.1398 10.49 14.1407C10.4396 14.144 10.3891 14.1466 10.3386 14.1486C10.3214 14.1493 10.3042 14.15 10.287 14.1506C10.2234 14.1525 10.1599 14.1539 10.0961 14.1539C10.0324 14.1539 9.96885 14.1526 9.90532 14.1505C9.88809 14.15 9.8709 14.1492 9.85375 14.1485C9.80316 14.1465 9.75271 14.1439 9.70226 14.1407C9.68816 14.1398 9.67406 14.139 9.65996 14.138C9.5951 14.1333 9.53034 14.1278 9.46576 14.1211C9.46344 14.1209 9.46112 14.1206 9.4588 14.1203C9.39714 14.1138 9.33568 14.1062 9.27434 14.0978C9.26136 14.0961 9.24839 14.0943 9.23538 14.0924C9.17783 14.0841 9.12042 14.0752 9.06319 14.0653C9.05672 14.0642 9.05022 14.0632 9.04371 14.0621C8.98018 14.0509 8.91687 14.0386 8.85383 14.0255C8.84156 14.0229 8.82933 14.02 8.81702 14.0174C8.76816 14.0069 8.71939 13.9957 8.67084 13.984C8.65228 13.9795 8.63372 13.975 8.61526 13.9704C8.56566 13.9579 8.51623 13.9447 8.46697 13.931C8.44057 13.9236 8.41427 13.9159 8.38801 13.9082C8.35082 13.8972 8.31366 13.8861 8.2766 13.8744C8.24478 13.8644 8.21311 13.854 8.1815 13.8435C8.16069 13.8366 8.13998 13.8294 8.11931 13.8223C5.74683 13.001 4.03845 10.7444 4.03845 8.09615C4.03845 4.75595 6.75592 2.03845 10.0961 2.03845C13.4364 2.03845 16.1539 4.75592 16.1539 8.09615C16.1539 10.7444 14.4454 13.001 12.0729 13.8223Z" fill="#040404"/>
<path d="M10.0961 1C6.18333 1 3 4.18329 3 8.09615C3 10.5347 4.23652 12.6897 6.11537 13.9676V18.4807C6.11537 18.6569 6.2047 18.8211 6.35268 18.9167C6.50058 19.0124 6.68698 19.0265 6.84768 18.9542L10.0961 17.4925L13.3446 18.9543C13.4126 18.9848 13.4852 19 13.5576 19C13.6562 19 13.7543 18.9719 13.8396 18.9168C13.9876 18.8211 14.0769 18.6569 14.0769 18.4808V13.9677C15.9558 12.6898 17.1923 10.5347 17.1923 8.09618C17.1923 4.18329 14.009 1 10.0961 1ZM13.0384 17.6778L10.3092 16.4496C10.2414 16.4191 10.1688 16.4039 10.0961 16.4039C10.0235 16.4039 9.95085 16.4191 9.8831 16.4496L7.15385 17.6777V14.5546C7.41482 14.6736 7.68267 14.7758 7.95559 14.8621C7.97106 14.867 7.98649 14.872 8.00203 14.8768C8.03687 14.8875 8.07182 14.8979 8.1068 14.908C8.13271 14.9156 8.15862 14.9231 8.1846 14.9305C8.21283 14.9383 8.24116 14.946 8.2695 14.9535C8.30255 14.9623 8.33566 14.9709 8.36889 14.9793C8.39237 14.9852 8.41589 14.9909 8.43945 14.9965C8.47766 15.0057 8.51598 15.0145 8.55444 15.0231C8.57438 15.0275 8.59434 15.0319 8.61431 15.0362C8.65643 15.0452 8.69869 15.0537 8.74112 15.0619C8.75838 15.0653 8.77564 15.0687 8.79294 15.0719C8.83787 15.0803 8.88298 15.0881 8.92819 15.0957C8.94369 15.0983 8.9592 15.1009 8.97473 15.1034C9.02139 15.1108 9.06825 15.1177 9.11525 15.1242C9.12981 15.1262 9.14433 15.1284 9.15888 15.1303C9.20645 15.1366 9.25423 15.1423 9.30204 15.1476C9.31631 15.1492 9.33052 15.151 9.34479 15.1525C9.3925 15.1576 9.44038 15.1619 9.48837 15.166C9.50292 15.1672 9.51741 15.1687 9.532 15.1699C9.57928 15.1736 9.62678 15.1766 9.67434 15.1794C9.6896 15.1803 9.70479 15.1815 9.72012 15.1823C9.76818 15.1848 9.81641 15.1866 9.86471 15.1881C9.87927 15.1886 9.89372 15.1894 9.90827 15.1898C9.97071 15.1914 10.0334 15.1923 10.0962 15.1923C10.159 15.1923 10.2217 15.1914 10.2841 15.1898C10.2987 15.1894 10.3131 15.1886 10.3277 15.1881C10.376 15.1866 10.4242 15.1848 10.4723 15.1823C10.4875 15.1815 10.5028 15.1803 10.5181 15.1794C10.5656 15.1766 10.6131 15.1736 10.6604 15.1699C10.675 15.1687 10.6895 15.1672 10.704 15.166C10.752 15.1619 10.7999 15.1576 10.8476 15.1525C10.8619 15.151 10.8761 15.1492 10.8904 15.1476C10.9382 15.1422 10.986 15.1366 11.0335 15.1303C11.0481 15.1284 11.0626 15.1262 11.0771 15.1242C11.1241 15.1177 11.171 15.1108 11.2177 15.1034C11.2332 15.1009 11.2487 15.0982 11.2642 15.0957C11.3094 15.0881 11.3545 15.0803 11.3995 15.0719C11.4168 15.0687 11.434 15.0653 11.4513 15.0619C11.4937 15.0537 11.5359 15.0451 11.5781 15.0362C11.5981 15.0319 11.618 15.0275 11.638 15.0231C11.6764 15.0145 11.7147 15.0057 11.753 14.9965C11.7765 14.9909 11.8 14.9851 11.8235 14.9793C11.8567 14.971 11.8898 14.9623 11.9229 14.9535C11.9512 14.9459 11.9796 14.9384 12.0078 14.9305C12.0338 14.9231 12.0597 14.9156 12.0856 14.908C12.1206 14.8978 12.1556 14.8875 12.1904 14.8768C12.2059 14.872 12.2213 14.867 12.2368 14.8621C12.5097 14.7758 12.7776 14.6736 13.0386 14.5547L13.0384 17.6778ZM12.0729 13.8223C12.0522 13.8295 12.0315 13.8366 12.0108 13.8436C11.9792 13.8541 11.9475 13.8645 11.9157 13.8745C11.8786 13.8861 11.8415 13.8974 11.8043 13.9082C11.778 13.916 11.7517 13.9237 11.7253 13.9311C11.6761 13.9448 11.6266 13.958 11.577 13.9704C11.5585 13.9751 11.54 13.9795 11.5215 13.984C11.4729 13.9958 11.4241 14.007 11.3753 14.0175C11.363 14.0202 11.3508 14.023 11.3385 14.0255C11.2754 14.0387 11.2121 14.051 11.1486 14.0621C11.1421 14.0633 11.1356 14.0642 11.1291 14.0654C11.0719 14.0753 11.0145 14.0842 10.9569 14.0924C10.944 14.0943 10.931 14.0961 10.918 14.0979C10.8566 14.1062 10.7952 14.1139 10.7335 14.1204C10.7312 14.1206 10.7289 14.1209 10.7265 14.1212C10.662 14.1279 10.5972 14.1334 10.5323 14.138C10.5183 14.1391 10.5041 14.1398 10.49 14.1407C10.4396 14.144 10.3891 14.1466 10.3386 14.1486C10.3214 14.1493 10.3042 14.15 10.287 14.1506C10.2234 14.1525 10.1599 14.1539 10.0961 14.1539C10.0324 14.1539 9.96885 14.1526 9.90532 14.1505C9.88809 14.15 9.8709 14.1492 9.85375 14.1485C9.80316 14.1465 9.75271 14.1439 9.70226 14.1407C9.68816 14.1398 9.67406 14.139 9.65996 14.138C9.5951 14.1333 9.53034 14.1278 9.46576 14.1211C9.46344 14.1209 9.46112 14.1206 9.4588 14.1203C9.39714 14.1138 9.33568 14.1062 9.27434 14.0978C9.26136 14.0961 9.24839 14.0943 9.23538 14.0924C9.17783 14.0841 9.12042 14.0752 9.06319 14.0653C9.05672 14.0642 9.05022 14.0632 9.04371 14.0621C8.98018 14.0509 8.91687 14.0386 8.85383 14.0255C8.84156 14.0229 8.82933 14.02 8.81702 14.0174C8.76816 14.0069 8.71939 13.9957 8.67084 13.984C8.65228 13.9795 8.63372 13.975 8.61526 13.9704C8.56566 13.9579 8.51623 13.9447 8.46697 13.931C8.44057 13.9236 8.41427 13.9159 8.38801 13.9082C8.35082 13.8972 8.31366 13.8861 8.2766 13.8744C8.24478 13.8644 8.21311 13.854 8.1815 13.8435C8.16069 13.8366 8.13998 13.8294 8.11931 13.8223C5.74683 13.001 4.03845 10.7444 4.03845 8.09615C4.03845 4.75595 6.75592 2.03845 10.0961 2.03845C13.4364 2.03845 16.1539 4.75592 16.1539 8.09615C16.1539 10.7444 14.4454 13.001 12.0729 13.8223Z" stroke="#040404" stroke-width="0.6" mask="url(#path-1-outside-1)"/>
<path d="M10.4276 4.52158L10.4277 4.5216L11.1869 5.73734L12.6194 5.78697C12.6194 5.78697 12.6194 5.78697 12.6194 5.78697C12.8016 5.79328 12.9676 5.89307 13.0587 6.05086C13.1498 6.20865 13.1532 6.40233 13.0675 6.56326L12.3943 7.82863L13.0675 9.094C13.1532 9.25492 13.1498 9.4486 13.0587 9.6064C12.9675 9.76419 12.8015 9.86398 12.6193 9.87028M10.4276 4.52158L12.6142 9.72037M10.4276 4.52158C10.3311 4.36706 10.1618 4.2731 9.97948 4.2731C9.79721 4.2731 9.62786 4.36706 9.53132 4.52158L9.5313 4.5216L8.77209 5.73734L7.33961 5.78697C7.33961 5.78697 7.3396 5.78697 7.3396 5.78697C7.15743 5.79328 6.99141 5.89307 6.9003 6.05086C6.80919 6.20864 6.80577 6.40231 6.89142 6.56323C6.89143 6.56324 6.89143 6.56325 6.89144 6.56326L7.56467 7.82863L6.89144 9.094C6.89143 9.09401 6.89143 9.09402 6.89142 9.09403C6.80577 9.25495 6.80919 9.44861 6.9003 9.6064C6.99141 9.76419 7.15744 9.86398 7.33961 9.87028M10.4276 4.52158L8.77209 9.91991M12.6193 9.87028L12.6142 9.72037M12.6193 9.87028L12.6194 9.87028L12.6142 9.72037M12.6193 9.87028L11.1869 9.91991M12.6142 9.72037L11.1019 9.77277M11.1869 9.91991L11.2291 9.85222L11.1019 9.77277M11.1869 9.91991L10.4277 11.1357L10.4276 11.1357C10.3311 11.2902 10.1618 11.3842 9.97948 11.3842C9.79722 11.3842 9.62783 11.2902 9.53131 11.1357L9.5313 11.1357L8.77209 9.91991M11.1869 9.91991L11.1071 9.92268L11.1019 9.77277M11.1019 9.77277L8.77209 9.91991M8.77209 9.91991L8.85185 9.92268L8.85704 9.77277L8.72982 9.85222L8.77209 9.91991ZM8.77209 9.91991L7.33961 9.87028M7.33961 9.87028L7.34479 9.72037L7.3396 9.87028L7.33961 9.87028ZM9.08445 6.63384L9.08965 6.78375L9.08964 6.78375L8.22181 6.81383L8.62967 7.58043C8.71225 7.7356 8.71225 7.92166 8.62967 8.07683L10.5667 6.45611L10.4394 6.53556L10.4394 6.53556L9.97948 5.79902L9.51953 6.53551L9.51951 6.53554L9.39228 6.45608M9.08445 6.63384C9.21022 6.62948 9.32564 6.56285 9.39228 6.45608M9.08445 6.63384L8.1434 6.66646L9.08445 6.63384ZM9.39228 6.45608L9.89105 5.65743L9.39228 6.45608ZM11.7371 6.81386L11.3293 7.58047L11.3293 7.58048C11.2467 7.73563 11.2467 7.92169 11.3293 8.07684C11.3293 8.07685 11.3293 8.07686 11.3293 8.07686L11.7372 8.84344L10.8693 8.87348C10.6937 8.87956 10.5325 8.9726 10.4395 9.12169C10.4395 9.1217 10.4395 9.12171 10.4395 9.12172L9.97948 9.85826L9.51951 9.12172L9.51951 9.12172L9.39228 9.20117L11.7371 6.81386Z" fill="#040404" stroke="#040404" stroke-width="0.3"/>
</svg>
