<svg width="18" height="18" viewBox="0 0 18 22" fill="none" xmlns="http://www.w3.org/2000/svg">
<path d="M17.0486 17.5077C16.9839 17.4658 16.4972 17.1248 16.0098 16.0933C15.1149 14.1992 14.927 11.5309 14.927 9.62607C14.927 9.61778 14.9268 9.60957 14.9265 9.60132C14.9168 7.08383 13.4093 4.91365 11.2521 3.93993V2.45077C11.2521 1.0994 10.1545 0 8.80537 0H8.6026C7.25346 0 6.15587 1.0994 6.15587 2.45077V3.93985C3.99145 4.9167 2.48097 7.09796 2.48097 9.62607C2.48097 11.5309 2.29311 14.1992 1.39811 16.0933C0.910802 17.1248 0.424095 17.4657 0.359384 17.5077C0.0868766 17.6339 -0.0474868 17.9252 0.0152046 18.2204C0.0784976 18.5186 0.357193 18.7241 0.661541 18.7241H5.38583C5.41221 20.5349 6.89008 22 8.704 22C10.5179 22 11.9958 20.5349 12.0222 18.7241H16.7465C17.0508 18.7241 17.3295 18.5186 17.3928 18.2204C17.4554 17.9252 17.3211 17.6338 17.0486 17.5077ZM7.44497 2.45077C7.44497 1.81135 7.96429 1.29117 8.60264 1.29117H8.80541C9.44375 1.29117 9.96307 1.81135 9.96307 2.45077V3.52142C9.55624 3.43733 9.13511 3.39307 8.70383 3.39307C8.27268 3.39307 7.85167 3.43728 7.44502 3.52129V2.45077H7.44497ZM8.704 20.7088C7.60086 20.7088 6.70106 19.8229 6.67489 18.7242H10.7331C10.7069 19.8229 9.80714 20.7088 8.704 20.7088ZM11.2993 17.4329C11.2992 17.4329 2.13043 17.4329 2.13043 17.4329C2.24193 17.2592 2.35541 17.0624 2.4682 16.8401C3.33205 15.1366 3.77007 12.7095 3.77007 9.62607C3.77007 6.90112 5.98335 4.68424 8.70379 4.68424C11.4242 4.68424 13.6375 6.90112 13.6375 9.62822C13.6375 9.63617 13.6376 9.64408 13.6379 9.65198C13.6404 12.723 14.0784 15.1415 14.9398 16.8401C15.0526 17.0625 15.1661 17.2592 15.2776 17.4329H11.2993Z" fill="black"/>
</svg>
