<svg width="30" height="30" viewBox="0 0 7 8" fill="none" xmlns="http://www.w3.org/2000/svg">
<path d="M6.375 3.60937H4.25C4.18097 3.60937 4.125 3.55384 4.125 3.48534V1.37679C4.125 1.0343 3.84515 0.756622 3.5 0.756622C3.15485 0.756622 2.875 1.0343 2.875 1.37679V3.48534C2.875 3.55384 2.81903 3.60937 2.75 3.60937H0.625C0.279846 3.60937 0 3.88705 0 4.22954C0 4.57202 0.279846 4.8497 0.625 4.8497H2.75C2.81903 4.8497 2.875 4.90524 2.875 4.97373V7.08229C2.875 7.42477 3.15485 7.70245 3.5 7.70245C3.84515 7.70245 4.125 7.42477 4.125 7.08229V4.97373C4.125 4.90524 4.18097 4.8497 4.25 4.8497H6.375C6.72015 4.8497 7 4.57202 7 4.22954C7 3.88705 6.72015 3.60937 6.375 3.60937Z" fill="#c10476"/>
</svg>
