<svg width="23" height="24" viewBox="0 0 23 24" fill="none" xmlns="http://www.w3.org/2000/svg">
<path d="M11.2762 7.03125L9.9762 11.0383H5.76221L9.17114 13.5153L7.87122 17.5223L11.2782 15.0453L14.6873 17.5223L13.3872 13.5153L16.7942 11.0383H12.5802L11.2802 7.03125H11.2762Z" fill="#4F453C"/>
<path d="M11.274 23.5521C8.66506 23.5509 6.13724 22.6452 4.12119 20.9892C2.10514 19.3332 0.725659 17.0295 0.217749 14.4705C-0.290161 11.9114 0.104866 9.25541 1.33567 6.95501C2.56647 4.65462 4.55686 2.85217 6.96763 1.85473C9.3784 0.857298 12.0604 0.726592 14.5567 1.48492C17.0531 2.24325 19.2093 3.84365 20.6579 6.01348C22.1066 8.18332 22.7579 10.7883 22.5012 13.3846C22.2445 15.9809 21.0956 18.4079 19.2501 20.2521C18.205 21.3024 16.9619 22.1348 15.5927 22.7013C14.2236 23.2677 12.7557 23.5569 11.274 23.5521ZM11.274 2.91504C9.10857 2.91572 7.01039 3.66724 5.33689 5.0415C3.66339 6.41576 2.51812 8.32775 2.09629 10.4517C1.67445 12.5757 2.00221 14.7802 3.02354 16.6896C4.04486 18.5991 5.69665 20.0954 7.69749 20.9235C9.69832 21.7517 11.9244 21.8605 13.9964 21.2313C16.0685 20.6022 17.8583 19.2741 19.0609 17.4733C20.2635 15.6725 20.8045 13.5104 20.5918 11.3554C20.379 9.20043 19.4256 7.18589 17.894 5.65503C17.0265 4.78329 15.9948 4.09227 14.8585 3.62194C13.7222 3.15162 12.5038 2.91136 11.274 2.91504Z" fill="#4F453C"/>
</svg>
