<svg width="15" height="18" viewBox="0 0 15 18" fill="none" xmlns="http://www.w3.org/2000/svg">
<path d="M7.09615 0C3.18333 0 0 3.18329 0 7.09615C0 9.53469 1.23652 11.6897 3.11537 12.9676V17.4807C3.11537 17.6569 3.2047 17.8211 3.35268 17.9167C3.50058 18.0124 3.68698 18.0265 3.84768 17.9542L7.09615 16.4925L10.3446 17.9543C10.4126 17.9848 10.4852 18 10.5576 18C10.6562 18 10.7543 17.9719 10.8396 17.9168C10.9876 17.8211 11.0769 17.6569 11.0769 17.4808V12.9677C12.9558 11.6898 14.1923 9.53473 14.1923 7.09618C14.1923 3.18329 11.009 0 7.09615 0ZM10.0384 16.6778L7.3092 15.4496C7.24145 15.4191 7.16878 15.4039 7.09615 15.4039C7.02352 15.4039 6.95085 15.4191 6.8831 15.4496L4.15385 16.6777V13.5546C4.41482 13.6736 4.68267 13.7758 4.95559 13.8621C4.97106 13.867 4.98649 13.872 5.00203 13.8768C5.03687 13.8875 5.07182 13.8979 5.1068 13.908C5.13271 13.9156 5.15862 13.9231 5.1846 13.9305C5.21283 13.9383 5.24116 13.946 5.2695 13.9535C5.30255 13.9623 5.33566 13.9709 5.36889 13.9793C5.39237 13.9852 5.41589 13.9909 5.43945 13.9965C5.47766 14.0057 5.51598 14.0145 5.55444 14.0231C5.57438 14.0275 5.59434 14.0319 5.61431 14.0362C5.65643 14.0452 5.69869 14.0537 5.74112 14.0619C5.75838 14.0653 5.77564 14.0687 5.79294 14.0719C5.83787 14.0803 5.88298 14.0881 5.92819 14.0957C5.94369 14.0983 5.9592 14.1009 5.97473 14.1034C6.02139 14.1108 6.06825 14.1177 6.11525 14.1242C6.12981 14.1262 6.14433 14.1284 6.15888 14.1303C6.20645 14.1366 6.25423 14.1423 6.30204 14.1476C6.31631 14.1492 6.33052 14.151 6.34479 14.1525C6.3925 14.1576 6.44038 14.1619 6.48837 14.166C6.50292 14.1672 6.51741 14.1687 6.532 14.1699C6.57928 14.1736 6.62678 14.1766 6.67434 14.1794C6.6896 14.1803 6.70479 14.1815 6.72012 14.1823C6.76818 14.1848 6.81641 14.1866 6.86471 14.1881C6.87927 14.1886 6.89372 14.1894 6.90827 14.1898C6.97071 14.1914 7.03336 14.1923 7.09622 14.1923C7.15904 14.1923 7.22169 14.1914 7.28413 14.1898C7.29868 14.1894 7.31313 14.1886 7.32769 14.1881C7.37599 14.1866 7.42423 14.1848 7.47229 14.1823C7.48754 14.1815 7.50277 14.1803 7.51806 14.1794C7.56563 14.1766 7.61312 14.1736 7.66041 14.1699C7.675 14.1687 7.68948 14.1672 7.70403 14.166C7.75202 14.1619 7.79991 14.1576 7.84761 14.1525C7.86189 14.151 7.87609 14.1492 7.89036 14.1476C7.93821 14.1422 7.98595 14.1366 8.03352 14.1303C8.04811 14.1284 8.06259 14.1262 8.07715 14.1242C8.12412 14.1177 8.17098 14.1108 8.21767 14.1034C8.23321 14.1009 8.24868 14.0982 8.26422 14.0957C8.30943 14.0881 8.35453 14.0803 8.39946 14.0719C8.41676 14.0687 8.43402 14.0653 8.45128 14.0619C8.49368 14.0537 8.53594 14.0451 8.57809 14.0362C8.59809 14.0319 8.61803 14.0275 8.63796 14.0231C8.67642 14.0145 8.71474 14.0057 8.75296 13.9965C8.77648 13.9909 8.8 13.9851 8.82352 13.9793C8.85674 13.971 8.88982 13.9623 8.9229 13.9535C8.95124 13.9459 8.97958 13.9384 9.0078 13.9305C9.03379 13.9231 9.05973 13.9156 9.08561 13.908C9.12059 13.8978 9.15557 13.8875 9.19037 13.8768C9.20591 13.872 9.22134 13.867 9.23681 13.8621C9.50973 13.7758 9.77759 13.6736 10.0386 13.5547V16.6778H10.0384ZM9.07295 12.8223C9.05224 12.8295 9.03154 12.8366 9.01076 12.8436C8.97919 12.8541 8.94748 12.8645 8.91566 12.8745C8.87864 12.8861 8.84152 12.8974 8.80429 12.9082C8.77802 12.916 8.75173 12.9237 8.72532 12.9311C8.67607 12.9448 8.62664 12.958 8.57703 12.9704C8.55854 12.9751 8.53998 12.9795 8.52145 12.984C8.4729 12.9958 8.42414 13.007 8.37527 13.0175C8.36297 13.0202 8.35077 13.023 8.33847 13.0255C8.2754 13.0387 8.21211 13.051 8.14859 13.0621C8.14212 13.0633 8.13561 13.0642 8.12911 13.0654C8.07187 13.0753 8.01446 13.0842 7.95695 13.0924C7.94398 13.0943 7.931 13.0961 7.91796 13.0979C7.85661 13.1062 7.79516 13.1139 7.7335 13.1204C7.73118 13.1206 7.72886 13.1209 7.72654 13.1212C7.66199 13.1279 7.5972 13.1334 7.53233 13.138C7.51827 13.1391 7.50414 13.1398 7.49004 13.1407C7.43959 13.144 7.38914 13.1466 7.33855 13.1486C7.32136 13.1493 7.30417 13.15 7.28698 13.1506C7.22345 13.1525 7.15985 13.1539 7.09615 13.1539C7.03245 13.1539 6.96885 13.1526 6.90532 13.1505C6.88809 13.15 6.8709 13.1492 6.85375 13.1485C6.80316 13.1465 6.75271 13.1439 6.70226 13.1407C6.68816 13.1398 6.67406 13.139 6.65996 13.138C6.5951 13.1333 6.53034 13.1278 6.46576 13.1211C6.46344 13.1209 6.46112 13.1206 6.4588 13.1203C6.39714 13.1138 6.33568 13.1062 6.27434 13.0978C6.26136 13.0961 6.24839 13.0943 6.23538 13.0924C6.17783 13.0841 6.12042 13.0752 6.06319 13.0653C6.05672 13.0642 6.05021 13.0632 6.04371 13.0621C5.98018 13.0509 5.91687 13.0386 5.85383 13.0255C5.84156 13.0229 5.82933 13.02 5.81702 13.0174C5.76816 13.0069 5.71939 12.9957 5.67084 12.984C5.65228 12.9795 5.63372 12.975 5.61526 12.9704C5.56566 12.9579 5.51623 12.9447 5.46697 12.931C5.44057 12.9236 5.41427 12.9159 5.38801 12.9082C5.35082 12.8972 5.31366 12.8861 5.2766 12.8744C5.24478 12.8644 5.21311 12.854 5.1815 12.8435C5.16069 12.8366 5.13998 12.8294 5.11931 12.8223C2.74683 12.001 1.03845 9.74443 1.03845 7.09615C1.03845 3.75595 3.75592 1.03845 7.09615 1.03845C10.4364 1.03845 13.1539 3.75592 13.1539 7.09615C13.1539 9.74443 11.4454 12.001 9.07295 12.8223Z" fill="black"/>
<path d="M10.1767 7.09613L11.152 5.26309C11.2362 5.10499 11.2328 4.91469 11.1433 4.75961C11.0537 4.60454 10.8906 4.50649 10.7116 4.5003L8.63649 4.42841L7.53666 2.66729C7.44178 2.51542 7.27535 2.4231 7.09626 2.4231C6.91717 2.4231 6.75074 2.51542 6.65586 2.66729L5.55606 4.42841L3.48097 4.5003C3.30199 4.50649 3.13883 4.60454 3.04928 4.75961C2.95974 4.91469 2.9564 5.10499 3.04057 5.26309L4.01583 7.09613L3.04057 8.92918C2.9564 9.08728 2.95974 9.27758 3.04928 9.43265C3.13883 9.58773 3.30199 9.68578 3.48097 9.69197L5.55606 9.76386L6.65586 11.525C6.75071 11.6769 6.91717 11.7692 7.09626 11.7692C7.27535 11.7692 7.44178 11.6769 7.53666 11.525L8.63646 9.76386L10.7116 9.69197C10.8905 9.68578 11.0537 9.58773 11.1432 9.43265C11.2328 9.27758 11.2361 9.08728 11.152 8.92918L10.1767 7.09613ZM8.32444 8.73558C8.15186 8.74155 7.99348 8.83299 7.90204 8.97949L7.09626 10.2698L6.29051 8.97953C6.19904 8.83303 6.04069 8.74162 5.86811 8.73561L4.34789 8.68291L5.06237 7.34001C5.14351 7.18754 5.14351 7.00473 5.06237 6.85226L4.34789 5.50936L5.86811 5.45666C6.04069 5.45068 6.19907 5.35924 6.29051 5.21274L7.09626 3.92254L7.90201 5.21278C7.99348 5.35928 8.15183 5.45068 8.32441 5.45669L9.84463 5.50939L9.13015 6.85229C9.04905 7.00476 9.04905 7.18761 9.13019 7.34005L9.84467 8.68295L8.32444 8.73558Z" fill="black"/>
</svg>
