<svg width="25" height="25" viewBox="0 0 25 25" fill="none" xmlns="http://www.w3.org/2000/svg">
<path d="M12.4995 24.0318C18.8683 24.0318 24.0313 18.8688 24.0313 12.5C24.0313 6.13123 18.8683 0.968292 12.4995 0.968292C6.13071 0.968292 0.967773 6.13123 0.967773 12.5C0.967773 18.8688 6.13071 24.0318 12.4995 24.0318Z" fill="white"/>
<path d="M12.5 25C5.60806 25 0 19.3929 0 12.5C0 5.60806 5.60806 0 12.5 0C19.3929 0 25 5.60806 25 12.5C25 19.3929 19.3929 25 12.5 25ZM12.5 1.93647C6.67505 1.93647 1.93647 6.67505 1.93647 12.5C1.93647 18.325 6.67505 23.0635 12.5 23.0635C18.325 23.0635 23.0635 18.324 23.0635 12.5C23.0635 6.67505 18.325 1.93647 12.5 1.93647Z" fill="#fed64d"/>
</svg>
