<svg width="25" height="25" viewBox="0 0 25 25" fill="none" xmlns="http://www.w3.org/2000/svg">
<path d="M12.4995 24.0318C18.8683 24.0318 24.0313 18.8688 24.0313 12.5C24.0313 6.13123 18.8683 0.968292 12.4995 0.968292C6.13071 0.968292 0.967773 6.13123 0.967773 12.5C0.967773 18.8688 6.13071 24.0318 12.4995 24.0318Z" fill="#FED64D"/>
<path d="M12.5 25C5.60806 25 0 19.3929 0 12.5C0 5.60806 5.60806 0 12.5 0C19.3929 0 25 5.60806 25 12.5C25 19.3929 19.3929 25 12.5 25ZM12.5 1.93647C6.67505 1.93647 1.93647 6.67505 1.93647 12.5C1.93647 18.325 6.67505 23.0635 12.5 23.0635C18.325 23.0635 23.0635 18.324 23.0635 12.5C23.0635 6.67505 18.325 1.93647 12.5 1.93647Z" fill="#FED64D"/>
<path d="M10.9892 17.0992C10.7298 17.0992 10.4819 16.9956 10.2988 16.8097L6.72604 13.1788C6.35133 12.7973 6.35617 12.1854 6.73766 11.8097C7.11916 11.4359 7.73205 11.4398 8.10675 11.8213L10.9611 14.7221L16.8665 8.21846C17.2276 7.82246 17.8396 7.79439 18.2336 8.15264C18.6296 8.51187 18.6587 9.12378 18.2994 9.52075L11.7057 16.7825C11.5266 16.98 11.2749 17.0943 11.0086 17.1001C11.0018 17.0992 10.996 17.0992 10.9892 17.0992Z" fill="#040404"/>
</svg>
