<svg width="22" height="22" viewBox="0 0 22 22" fill="none" xmlns="http://www.w3.org/2000/svg">
<g clip-path="url(#clip0)">
<path d="M18.7917 22H7.79167C6.5285 22 5.5 20.9724 5.5 19.7083V5.95829C5.5 4.69421 6.5285 3.66663 7.79167 3.66663H18.7917C20.0548 3.66663 21.0833 4.69421 21.0833 5.95829V19.7083C21.0833 20.9724 20.0548 22 18.7917 22ZM7.79167 4.58329C7.03358 4.58329 6.41667 5.20021 6.41667 5.95829V19.7083C6.41667 20.4664 7.03358 21.0833 7.79167 21.0833H18.7917C19.5498 21.0833 20.1667 20.4664 20.1667 19.7083V5.95829C20.1667 5.20021 19.5498 4.58329 18.7917 4.58329H7.79167Z" fill="black" stroke="black" stroke-width="0.4"/>
<path d="M4.12484 19.25H3.20817C1.945 19.25 0.916504 18.2224 0.916504 16.9583V2.29167C0.916504 1.02758 1.945 0 3.20817 0H14.2082C15.4713 0 16.4998 1.02758 16.4998 2.29167C16.4998 2.54467 16.2945 2.75 16.0415 2.75C15.7885 2.75 15.5832 2.54467 15.5832 2.29167C15.5832 1.53358 14.9663 0.916667 14.2082 0.916667H3.20817C2.45009 0.916667 1.83317 1.53358 1.83317 2.29167V16.9583C1.83317 17.7164 2.45009 18.3333 3.20817 18.3333H4.12484C4.37784 18.3333 4.58317 18.5387 4.58317 18.7917C4.58317 19.0447 4.37784 19.25 4.12484 19.25Z" fill="black" stroke="black" stroke-width="0.4"/>
<path d="M16.9582 15.5833H9.62484C9.37184 15.5833 9.1665 15.378 9.1665 15.125C9.1665 14.872 9.37184 14.6666 9.62484 14.6666H16.9582C17.2112 14.6666 17.4165 14.872 17.4165 15.125C17.4165 15.378 17.2112 15.5833 16.9582 15.5833Z" fill="black" stroke="black" stroke-width="0.4"/>
<path d="M16.9582 19.25H9.62484C9.37184 19.25 9.1665 19.0447 9.1665 18.7917C9.1665 18.5387 9.37184 18.3334 9.62484 18.3334H16.9582C17.2112 18.3334 17.4165 18.5387 17.4165 18.7917C17.4165 19.0447 17.2112 19.25 16.9582 19.25Z" fill="black" stroke="black" stroke-width="0.4"/>
<path d="M16.9582 11.9167H9.62484C9.37184 11.9167 9.1665 11.7113 9.1665 11.4583C9.1665 11.2053 9.37184 11 9.62484 11H16.9582C17.2112 11 17.4165 11.2053 17.4165 11.4583C17.4165 11.7113 17.2112 11.9167 16.9582 11.9167Z" fill="black" stroke="black" stroke-width="0.4"/>
<path d="M16.9582 8.25005H9.62484C9.37184 8.25005 9.1665 8.04471 9.1665 7.79171C9.1665 7.53871 9.37184 7.33337 9.62484 7.33337H16.9582C17.2112 7.33337 17.4165 7.53871 17.4165 7.79171C17.4165 8.04471 17.2112 8.25005 16.9582 8.25005Z" fill="black" stroke="black" stroke-width="0.4"/>
</g>
<defs>
<clipPath id="clip0">
<rect width="22" height="22" fill="white"/>
</clipPath>
</defs>
</svg>
