<svg width="20" height="20" viewBox="0 0 10 13" fill="none" xmlns="http://www.w3.org/2000/svg">
<path d="M9.52429 9.75387C9.49195 9.73288 9.2486 9.5624 9.00492 9.04667C8.55743 8.0996 8.4635 6.76546 8.4635 5.81304C8.4635 5.80889 8.46341 5.80479 8.46326 5.80066C8.45838 4.54191 7.70465 3.45682 6.62605 2.96997V2.22538C6.62605 1.5497 6.07725 1 5.40268 1H5.3013C4.62673 1 4.07793 1.5497 4.07793 2.22538V2.96992C2.99572 3.45835 2.24048 4.54898 2.24048 5.81304C2.24048 6.76546 2.14655 8.09958 1.69906 9.04667C1.4554 9.56238 1.21205 9.73286 1.17969 9.75387C1.04344 9.81693 0.976257 9.96259 1.0076 10.1102C1.03925 10.2593 1.1786 10.3621 1.33077 10.3621H3.69291C3.7061 11.2674 4.44504 12 5.352 12C6.25896 12 6.9979 11.2674 7.01109 10.3621H9.37323C9.52538 10.3621 9.66475 10.2593 9.6964 10.1102C9.7277 9.96259 9.66054 9.81691 9.52429 9.75387V9.75387ZM4.72249 2.22538C4.72249 1.90567 4.98215 1.64558 5.30132 1.64558H5.4027C5.72188 1.64558 5.98154 1.90567 5.98154 2.22538V2.76071C5.77812 2.71866 5.56755 2.69654 5.35191 2.69654C5.13634 2.69654 4.92584 2.71864 4.72251 2.76064V2.22538H4.72249ZM5.352 11.3544C4.80043 11.3544 4.35053 10.9115 4.33744 10.3621H6.36654C6.35347 10.9115 5.90357 11.3544 5.352 11.3544V11.3544ZM6.64966 9.71647C6.64959 9.71647 2.06521 9.71647 2.06521 9.71647C2.12097 9.62959 2.17771 9.53121 2.2341 9.42003C2.66602 8.56832 2.88504 7.35476 2.88504 5.81304C2.88504 4.45056 3.99167 3.34212 5.35189 3.34212C6.71211 3.34212 7.81875 4.45056 7.81875 5.81411C7.81875 5.81809 7.81882 5.82204 7.81897 5.82599C7.82019 7.36152 8.03918 8.57073 8.4699 9.42003C8.5263 9.53123 8.58306 9.62959 8.63879 9.71647H6.64966Z" fill="black" stroke="black" stroke-width="0.5"/>
</svg>
