<svg width="20" height="20" viewBox="0 0 22 22" fill="none" xmlns="http://www.w3.org/2000/svg">
<path d="M20.6331 8.12024C20.4045 7.86368 20.0921 7.69681 19.7517 7.64943V7.64872L14.4359 6.91439L12.3322 1.88783C12.0251 1.15208 11.1796 0.804648 10.4439 1.11181C10.0932 1.25826 9.81432 1.53709 9.66792 1.88783L7.5643 6.91439L2.24844 7.64872C1.45644 7.75896 0.903761 8.49044 1.014 9.28244C1.06138 9.62279 1.22825 9.93519 1.48482 10.1638L5.48994 13.7353L4.66701 19.3397C4.57786 19.9088 4.83924 20.4758 5.32989 20.7776C5.81364 21.0869 6.43588 21.0754 6.90778 20.7483L11 17.9654L15.0923 20.7511C15.7526 21.1993 16.6513 21.0273 17.0995 20.367C17.3031 20.0669 17.3866 19.7012 17.3331 19.3426L16.5102 13.736L20.5153 10.1645C21.1123 9.6325 21.1651 8.71724 20.6331 8.12024ZM15.2716 12.9288C15.0924 13.0889 15.0057 13.3283 15.0409 13.566L15.898 19.5662L11.4036 16.5104C11.1613 16.3457 10.843 16.3457 10.6008 16.5104L6.07991 19.5476L6.95922 13.5632C6.99337 13.3264 6.90673 13.0883 6.72848 12.9289L2.44264 9.06589L8.16281 8.27656C8.41326 8.24204 8.62676 8.07768 8.72424 7.84442L11.0086 2.42858C11.0112 2.43176 11.0131 2.4354 11.0143 2.43929L13.2751 7.84158C13.3726 8.07483 13.5861 8.23919 13.8365 8.27372L19.5638 9.09803L15.2716 12.9288Z" fill="black" stroke="black" stroke-width="0.8"/>
</svg>
