<svg width="18" height="18" viewBox="0 0 18 18" fill="none" xmlns="http://www.w3.org/2000/svg">
<path d="M11.8186 5.64027L16.0144 6.21986L16.1007 6.23179V6.23552C16.3627 6.29079 16.6012 6.42848 16.7804 6.62958C17.2427 7.14836 17.1968 7.94369 16.6781 8.40597C16.6781 8.40597 16.6781 8.40598 16.678 8.40599L13.5145 11.227L14.1649 15.6584C14.2113 15.9701 14.1388 16.2879 13.9618 16.5487L13.9618 16.5487C13.5723 17.1227 12.7912 17.2721 12.2173 16.8826L12.2172 16.8825L8.99997 14.6924L5.78347 16.8798C5.78335 16.8799 5.78324 16.8799 5.78312 16.88C5.37276 17.1642 4.83189 17.1744 4.41118 16.9057C3.98497 16.6432 3.75791 16.1505 3.83518 15.6558C3.83521 15.6557 3.83524 15.6555 3.83526 15.6553L4.48557 11.2265L1.32202 8.40546C1.32201 8.40545 1.322 8.40544 1.32199 8.40543C1.09906 8.20677 0.954059 7.93531 0.912889 7.63956C0.81709 6.95132 1.29736 6.31568 1.9856 6.21988L1.98571 6.21986L6.18145 5.64027L7.84212 1.67213L11.8186 5.64027ZM11.8186 5.64027L10.1579 1.67212L11.8186 5.64027ZM8.51662 0.997621L8.51662 0.99762C9.15607 0.730643 9.8909 1.03259 10.1579 1.67204L8.51662 0.997621ZM8.51662 0.997621C8.2118 1.1249 7.96942 1.36722 7.84215 1.67204L8.51662 0.997621ZM12.3503 10.468L12.3503 10.468C12.1819 10.6185 12.1005 10.8434 12.1334 11.0667C12.1334 11.0668 12.1334 11.0668 12.1334 11.0669L12.787 15.642L9.37907 13.3249L9.37905 13.3249C9.15138 13.1702 8.85232 13.1701 8.6246 13.3247C8.62453 13.3248 8.62446 13.3248 8.62439 13.3249L5.19606 15.6281L5.86659 11.0646L5.86663 11.0643C5.89872 10.8419 5.81735 10.6181 5.64993 10.4683C5.64987 10.4682 5.64981 10.4682 5.64975 10.4681L2.3814 7.52222L6.74409 6.92022C6.74409 6.92022 6.7441 6.92021 6.7441 6.92021C6.97946 6.88776 7.18009 6.73333 7.27174 6.51417C7.27176 6.51413 7.27178 6.51408 7.2718 6.51403L9.00697 2.40019L10.7276 6.51176C10.8192 6.73089 11.0197 6.88534 11.255 6.91789C11.2551 6.91791 11.2552 6.91792 11.2553 6.91794L15.6236 7.54665L12.3503 10.468Z" fill="black" stroke="black" stroke-width="0.2"/>
</svg>
