<svg width="20" height="20" viewBox="0 0 20 20" fill="none" xmlns="http://www.w3.org/2000/svg">
<rect width="20" height="20" fill="white"/>
<path d="M5.17317 6.62244C5.17317 8.13552 5.87378 9.48752 6.96634 10.3719C5.9422 10.7787 5.00243 11.3939 4.20038 12.196C2.65273 13.7436 1.8 15.8024 1.8 17.9911V18.1911H2H3.24927H3.44927V17.9911C3.44927 14.3817 6.38609 11.4449 9.99561 11.4449C12.6548 11.4449 14.818 9.28172 14.818 6.62244C14.818 3.96315 12.6548 1.8 9.99561 1.8C7.33632 1.8 5.17317 3.96315 5.17317 6.62244ZM18.1414 13.6351L18.2828 13.4937L18.1414 13.3522L15.2011 10.4119L15.0597 10.2705L14.9183 10.4119L14.0349 11.2952L13.8934 11.4366L14.0348 11.5781L15.0944 12.6376H14.5563C12.2607 12.6376 10.3919 14.5049 10.39 16.8005L10.389 17.9904L10.3888 18.1904L10.5888 18.1906L11.8381 18.1916L12.0381 18.1917L12.0383 17.9918L12.0394 16.8019V16.8019C12.0405 15.4155 13.1698 14.287 14.5563 14.287H15.1569L14.0348 15.4091L13.8934 15.5505L14.0348 15.692L14.9183 16.5754L15.0597 16.7168L15.2011 16.5754L18.1414 13.6351ZM9.99561 9.79561C8.24608 9.79561 6.82244 8.37196 6.82244 6.62244C6.82244 4.87291 8.24608 3.44927 9.99561 3.44927C11.745 3.44927 13.1687 4.8729 13.1687 6.62244C13.1687 8.37197 11.745 9.79561 9.99561 9.79561Z" fill="#040404" stroke="#040404" stroke-width="0.4"/>
</svg>
