<svg width="16" height="17" viewBox="0 0 16 17" fill="none" xmlns="http://www.w3.org/2000/svg">
<path d="M2.72895 16.5406H13.271C15.0961 16.5406 16 15.6367 16 13.8464V3.23475C16 1.44441 15.0961 0.540558 13.271 0.540558H2.72895C0.912548 0.540558 0 1.43572 0 3.23475V13.8464C0 15.6454 0.912548 16.5406 2.72895 16.5406ZM6.81369 12.986C6.5182 12.986 6.28354 12.8556 6.0402 12.5601L3.53721 9.46614C3.40684 9.30101 3.32863 9.09243 3.32863 8.90123C3.32863 8.49276 3.6415 8.17988 4.03259 8.17988C4.28463 8.17988 4.49321 8.27548 4.70179 8.5449L6.77892 11.2304L10.8115 4.75566C10.9853 4.48624 11.2113 4.35588 11.4373 4.35588C11.8197 4.35588 12.1847 4.60791 12.1847 5.02508C12.1847 5.21628 12.0804 5.42486 11.9674 5.59868L7.54373 12.5601C7.36122 12.8469 7.11787 12.986 6.81369 12.986Z" fill="#FED64D"/>
</svg>
