<svg height="20" viewBox="-1 0 511 512" width="20" xmlns="http://www.w3.org/2000/svg"><path d="m442.085938 290.839844-35.617188 35.617187c-1.023438 1.023438-2.386719 1.585938-3.84375 1.585938h-117.363281c-7.230469 0-7.242188-10.941407 0-10.941407h52.144531c49.519531 0 49.519531-74.933593 0-74.933593h-107.558594c-31.496094 0-61.097656 13.820312-81.324218 37.941406l-44.441407 46.828125c-.214843-.214844-13.773437-13.78125-14.007812-13.976562 0-.011719-.007813-.019532-.019531-.011719-5.1875-4.816407-13.410157-5.167969-18.8125-1.382813-1.8125 1.195313 2.820312-3.25-66.242188 65.8125-2.882812 2.882813-4.5 6.796875-4.5 10.863282v108.386718c0 8.496094 6.886719 15.371094 15.371094 15.371094h148.050781c4.078125 0 7.984375-1.617188 10.871094-4.5l44.0625-44.058594c6.066406-6.070312 5.941406-15.789062 0-21.734375l-14.550781-14.546875.195312-.238281c5.6875-6.957031 14.097656-10.953125 23.085938-10.953125h184.066406c11.230468 0 21.785156-4.363281 29.714844-12.304688l56.777343-56.765624c36.898438-36.847657-18.980469-93.140626-56.058593-56.058594zm34.324218 34.324218-56.773437 56.765626c-2.132813 2.132812-4.972657 3.300781-7.984375 3.300781h-184.066406c-17.320313 0-33.601563 7.304687-45.078126 20.132812l-56.671874-56.671875c.519531-.550781 45.53125-47.960937 46.007812-48.550781 14.363281-17.304687 35.503906-27.234375 58.003906-27.234375h107.558594c8.886719 0 8.910156 13.453125 0 13.453125h-52.144531c-47.847657 0-47.863281 72.425781 0 72.425781h117.363281c9.664062 0 18.742188-3.761718 25.578125-10.597656l35.617187-35.617188c8.476563-8.453124 20.75 4.4375 12.589844 12.59375zm-291.65625 125.921876-9.652344 11.8125-106.074218-106.074219 10.730468-10.726563zm-153.515625-56.46875 16.058594-16.058594 102.699219 102.699218h-118.757813zm0 0" fill=
"black"/><path d="m230.984375 228.199219h211.386719c8.484375 0 15.371094-6.882813 15.371094-15.367188v-197.460937c0-8.484375-6.886719-15.371094-15.371094-15.371094-5.4375 0-206.039063 0-211.386719 0-8.492187 0-15.367187 6.886719-15.367187 15.371094v197.460937c0 8.484375 6.875 15.367188 15.367187 15.367188zm124.773437-197.460938v54.503907l-10.820312-6.90625c-5.039062-3.207032-11.484375-3.207032-16.527344 0l-10.820312 6.90625v-54.503907zm-109.402343 0h40.496093v82.527344c0 12.1875 13.46875 19.429687 23.628907 12.960937l26.199219-16.699218 26.191406 16.699218c10.183594 6.503907 23.628906-.8125 23.628906-12.960937v-82.527344h40.503906v166.722657h-180.648437zm0 0" fill="black"/></svg>