<svg width="54" height="54" viewBox="0 0 44 44" fill="none" xmlns="http://www.w3.org/2000/svg">
<g filter="url(#filter0_d)">
<circle cx="22" cy="18" r="18" fill="#FED64D"/>
</g>
<path d="M21.0694 21.4291L21.0696 21.4289C21.261 21.2371 21.261 20.9266 21.0696 20.7348L21.0694 20.7346C20.8776 20.5434 20.5673 20.5434 20.3755 20.7346L20.3755 20.7346L20.3753 20.7348C20.1839 20.9266 20.1839 21.2371 20.3753 21.4289L20.3755 21.4291C20.5673 21.6203 20.8776 21.6203 21.0694 21.4291Z" fill="black" stroke="black" stroke-width="0.2"/>
<path d="M21.0409 12.254V12.9455C21.0409 14.2956 22.1345 15.3892 23.4846 15.3892C24.8323 15.3892 25.9285 14.2932 25.9285 12.9455V12.2541C26.1515 12.2079 26.3191 12.0103 26.3191 11.7736C26.3191 11.5026 26.0995 11.283 25.8285 11.283H25.0473C24.7763 11.283 24.5566 11.5026 24.5566 11.7736C24.5566 12.0103 24.7242 12.2079 24.9473 12.2541V12.9455C24.9473 13.7518 24.2911 14.408 23.4846 14.408C22.677 14.408 22.0221 13.7534 22.0221 12.9455V12.254C22.2451 12.2079 22.4127 12.0103 22.4127 11.7736C22.4127 11.5026 22.1931 11.283 21.9221 11.283H21.1409C20.8699 11.283 20.6502 11.5026 20.6502 11.7736C20.6502 12.0103 20.8178 12.2079 21.0409 12.254Z" fill="black" stroke="black" stroke-width="0.2"/>
<path d="M28.1744 22.9586C28.1868 22.9466 28.1985 22.934 28.2095 22.9207L31.7082 18.7192C31.7082 18.7192 31.7083 18.7191 31.7083 18.7191C32.2999 18.0189 32.2113 16.9681 31.5107 16.3759L31.5106 16.3758C30.815 15.7896 29.7735 15.8732 29.1797 16.5596L28.9756 16.7707V9.39063C28.9756 9.11961 28.7558 8.9 28.485 8.9H18.4455C18.1747 8.9 17.9548 9.11961 17.9548 9.39063V18.0621C16.4713 18.3968 15.2888 19.3243 14.6341 20.6697C14.12 20.661 13.6227 20.8582 13.25 21.2314C13.2499 21.2314 13.2499 21.2314 13.2499 21.2314L12.0445 22.4309L12.0445 22.4309C11.9521 22.5229 11.9002 22.6478 11.9 22.7781C11.8998 22.9087 11.9518 23.0337 12.0439 23.1257L12.0439 23.1258L16.4691 27.545L16.4692 27.5451C16.565 27.6407 16.6905 27.6884 16.8158 27.6884C16.9412 27.6884 17.0669 27.6405 17.1627 27.5449L17.1627 27.5448L18.3622 26.3454C18.3622 26.3454 18.3622 26.3454 18.3622 26.3454C18.7625 25.9454 18.9614 25.4012 18.9199 24.8477L19.3156 24.4655C19.3157 24.4655 19.3157 24.4655 19.3157 24.4655C19.6384 24.1545 20.0623 23.9833 20.5097 23.9833H25.6528C26.6001 23.9833 27.496 23.6193 28.1744 22.9586ZM28.1744 22.9586C28.1744 22.9586 28.1743 22.9587 28.1743 22.9587L28.1047 22.8869L28.1745 22.9585C28.1745 22.9586 28.1744 22.9586 28.1744 22.9586ZM29.8409 17.1426L29.9172 17.2072C30.1599 16.9206 30.5912 16.8844 30.8778 17.1259C31.1645 17.3684 31.2011 17.7991 30.9568 18.0881L30.9564 18.0887L27.4723 22.2726C26.9801 22.7433 26.3352 23.002 25.6528 23.002H20.5097C19.807 23.002 19.141 23.2709 18.6344 23.7593L18.6343 23.7593L18.5465 23.8441C18.4906 23.7691 18.4291 23.698 18.3623 23.6312L15.9631 21.232C15.8515 21.1204 15.7276 21.0245 15.5947 20.9446C16.1836 19.8467 17.2024 19.1463 18.5158 18.9554C19.2907 18.8433 20.0627 18.9094 20.8107 19.2142L20.811 19.2144C20.9441 19.2681 21.0823 19.2958 21.2213 19.2958H25.7505C26.1198 19.2958 26.4317 19.5975 26.4317 19.977C26.4317 20.3526 26.126 20.6583 25.7505 20.6583H22.3519C22.0811 20.6583 21.8612 20.8779 21.8612 21.1489C21.8612 21.4199 22.0811 21.6395 22.3519 21.6395H25.7505C26.6674 21.6395 27.413 20.8938 27.413 19.977C27.413 19.9199 27.4097 19.8633 27.4039 19.8075C27.7047 19.4971 29.8182 17.3112 29.8954 17.2313L29.8959 17.2307C29.9023 17.224 29.91 17.2158 29.9176 17.2067L29.8409 17.1426ZM29.8409 17.1426C30.1192 16.8139 30.6134 16.7724 30.9423 17.0495L29.8235 17.1618C29.8294 17.1555 29.8354 17.1491 29.8409 17.1426ZM13.9431 21.926L13.9433 21.9257C14.3141 21.5544 14.9067 21.5632 15.2691 21.9259L15.2691 21.926L17.6687 24.3254L17.6688 24.3255C18.0323 24.6883 18.0386 25.2816 17.6686 25.6512L17.6686 25.6513L16.8155 26.5042L13.0856 22.7793L13.9431 21.926ZM27.9944 9.88125V17.7854L26.9676 18.8469C26.6598 18.5167 26.2216 18.3144 25.7505 18.3144H21.2213C21.2114 18.3144 21.197 18.312 21.1793 18.3049C20.5588 18.0519 19.9017 17.9238 19.2269 17.9238C19.1296 17.9238 19.0327 17.9263 18.9362 17.9311V9.88125H27.9944Z" fill="black" stroke="black" stroke-width="0.2"/>
<defs>
<filter id="filter0_d" x="0" y="0" width="44" height="44" filterUnits="userSpaceOnUse" color-interpolation-filters="sRGB">
<feFlood flood-opacity="0" result="BackgroundImageFix"/>
<feColorMatrix in="SourceAlpha" type="matrix" values="0 0 0 0 0 0 0 0 0 0 0 0 0 0 0 0 0 0 127 0"/>
<feOffset dy="4"/>
<feGaussianBlur stdDeviation="2"/>
<feColorMatrix type="matrix" values="0 0 0 0 0 0 0 0 0 0 0 0 0 0 0 0 0 0 0.22 0"/>
<feBlend mode="normal" in2="BackgroundImageFix" result="effect1_dropShadow"/>
<feBlend mode="normal" in="SourceGraphic" in2="effect1_dropShadow" result="shape"/>
</filter>
</defs>
</svg>
