<svg width="18" height="18" viewBox="0 0 18 18" fill="none" xmlns="http://www.w3.org/2000/svg">
<path d="M17.4727 9.87891H16.6289V5.17113C16.6289 4.5103 16.0913 3.97266 15.4304 3.97266H12.9727V0.527344C12.9727 0.236109 12.7365 0 12.4453 0H3.44531C3.15408 0 2.91797 0.236109 2.91797 0.527344V3.97266H2.27855C1.02684 3.97266 0 4.95598 0 6.1875V16.2347C0 17.1903 0.773965 18 1.73334 18H13.1804C13.8413 18 14.3789 17.4624 14.3789 16.8015V16.5586H15.4304C16.0913 16.5586 16.6289 16.021 16.6289 15.3601V14.3086H17.4727C17.7639 14.3086 18 14.0725 18 13.7812V10.4062C18 10.115 17.7639 9.87891 17.4727 9.87891ZM15.4304 5.02734C15.5097 5.02734 15.5742 5.09182 15.5742 5.17113V9.87891H14.3789V8.54613C14.3789 7.89303 13.8496 7.34766 13.1786 7.34766H12.9727V5.02734H15.4304ZM3.97266 1.05469H11.918V7.34766H10.7227V2.8125C10.7227 2.52127 10.4865 2.28516 10.1953 2.28516H5.69531C5.40408 2.28516 5.16797 2.52127 5.16797 2.8125V7.34766H3.97266V1.05469ZM7.94531 5.09766C7.65408 5.09766 7.41797 5.33377 7.41797 5.625V7.34766H6.22266V3.33984H9.66797V7.34766H8.47266V5.625C8.47266 5.33377 8.23655 5.09766 7.94531 5.09766ZM1.40625 5.37395C1.83916 4.95657 2.30875 5.02734 2.91797 5.02734V7.34766C2.69701 7.34766 2.50857 7.34766 2.27855 7.34766C1.19911 7.34766 0.647227 6.10481 1.40625 5.37395ZM13.3242 16.8015C13.3242 16.8808 13.2597 16.9453 13.1804 16.9453H1.73334C1.36547 16.9453 1.05469 16.6199 1.05469 16.2347V8.05426C1.66686 8.43483 2.18686 8.40234 2.61316 8.40234H13.1804C13.2597 8.40234 13.3242 8.46682 13.3242 8.54613V9.87891H12.0532C11.1645 9.87891 10.4414 10.5993 10.4414 11.4849V12.7027C10.4414 13.5882 11.1645 14.3086 12.0532 14.3086H13.3242V16.8015ZM15.5742 15.3601C15.5742 15.4394 15.5097 15.5039 15.4304 15.5039H14.3789V14.3086H15.5742V15.3601ZM16.9453 13.2539H12.0532C11.7461 13.2539 11.4961 13.0066 11.4961 12.7026V11.4848C11.4961 11.1809 11.746 10.9336 12.0532 10.9336H16.9453V13.2539Z" fill="black"/>
</svg>
