<svg width="23" height="21" viewBox="0 0 23 21" fill="none" xmlns="http://www.w3.org/2000/svg">
<path d="M11.0688 15.0261C9.22863 15.0239 7.46444 14.292 6.16321 12.9907C4.86198 11.6895 4.13005 9.92524 4.12793 8.08502V1.86603C4.1278 1.75209 4.15009 1.63924 4.1936 1.53394C4.23712 1.42863 4.30095 1.33293 4.38147 1.25232C4.46199 1.1717 4.55759 1.10778 4.66284 1.06415C4.7681 1.02051 4.88093 0.998047 4.99487 0.998047H17.1418C17.3721 0.998047 17.5928 1.08948 17.7556 1.25226C17.9184 1.41504 18.0099 1.63582 18.0099 1.86603V8.08502C18.0075 9.92516 17.2754 11.6892 15.9742 12.9904C14.6731 14.2916 12.909 15.0237 11.0688 15.0261ZM5.86292 2.73407V8.08502C5.86292 9.46574 6.41138 10.7899 7.3877 11.7662C8.36401 12.7425 9.68813 13.291 11.0688 13.291C12.4496 13.291 13.7738 12.7425 14.7501 11.7662C15.7264 10.7899 16.2749 9.46574 16.2749 8.08502V2.73407H5.86292Z" fill="#4F453C"/>
<path d="M4.6261 8.60957C3.39935 8.60798 2.22334 8.11978 1.35608 7.25215C0.488823 6.38452 0.00105892 5.20827 5.77642e-07 3.98152V1.86653C-0.000131014 1.7525 0.022222 1.63956 0.0657965 1.53419C0.109371 1.42882 0.173401 1.33308 0.254029 1.25245C0.334656 1.17183 0.430397 1.10792 0.535767 1.06434C0.641137 1.02077 0.754018 0.998415 0.868043 0.998547H5.06006C5.17646 0.994594 5.29242 1.0141 5.40112 1.05592C5.50982 1.09774 5.60901 1.16101 5.69275 1.24196C5.77649 1.3229 5.84307 1.41989 5.88855 1.52711C5.93403 1.63433 5.95752 1.74957 5.95752 1.86604C5.95752 1.98251 5.93403 2.09781 5.88855 2.20503C5.84307 2.31225 5.77649 2.40918 5.69275 2.49012C5.60901 2.57107 5.50982 2.63434 5.40112 2.67616C5.29242 2.71798 5.17646 2.73748 5.06006 2.73353H1.73511V3.98054C1.73695 4.7469 2.04203 5.48136 2.58374 6.02345C3.12545 6.56554 3.85974 6.87117 4.6261 6.87355C4.85108 6.88119 5.06425 6.97591 5.2207 7.13777C5.37715 7.29962 5.4646 7.51593 5.4646 7.74104C5.4646 7.96615 5.37715 8.18246 5.2207 8.34431C5.06425 8.50616 4.85108 8.60089 4.6261 8.60853V8.60957Z" fill="#4F453C"/>
<path d="M17.5101 8.61005C17.3937 8.614 17.2778 8.59449 17.1691 8.55267C17.0604 8.51086 16.9612 8.44758 16.8774 8.36664C16.7937 8.28569 16.7271 8.1887 16.6816 8.08148C16.6362 7.97426 16.6127 7.85896 16.6127 7.74249C16.6127 7.62603 16.6362 7.51078 16.6816 7.40356C16.7271 7.29635 16.7937 7.19935 16.8774 7.11841C16.9612 7.03746 17.0604 6.97419 17.1691 6.93237C17.2778 6.89056 17.3937 6.87105 17.5101 6.875C18.2765 6.87262 19.0108 6.56705 19.5525 6.02496C20.0942 5.48288 20.3993 4.74835 20.4011 3.98199V2.73505H17.0762C16.8512 2.72741 16.6379 2.63262 16.4814 2.47076C16.325 2.30891 16.2375 2.0926 16.2375 1.86749C16.2375 1.64239 16.325 1.42614 16.4814 1.26428C16.6379 1.10243 16.8512 1.00764 17.0762 1H21.2692C21.4992 1.00027 21.7196 1.09182 21.8822 1.25458C22.0448 1.41733 22.1361 1.63801 22.1361 1.86804V3.98303C22.1348 5.2097 21.6471 6.38578 20.7799 7.25336C19.9127 8.12093 18.7368 8.60917 17.5101 8.61102V8.61005Z" fill="#4F453C"/>
<path d="M10.9589 18.2079C10.8448 18.208 10.732 18.1857 10.6266 18.1421C10.5212 18.0985 10.4255 18.0346 10.3448 17.954C10.2642 17.8734 10.2002 17.7776 10.1566 17.6722C10.113 17.5669 10.0907 17.4539 10.0908 17.3399V14.4479C10.0985 14.2229 10.1932 14.0097 10.3551 13.8533C10.517 13.6968 10.7333 13.6094 10.9584 13.6094C11.1835 13.6094 11.3998 13.6968 11.5616 13.8533C11.7235 14.0097 11.8182 14.2229 11.8258 14.4479V17.3409C11.8259 17.4549 11.8036 17.5678 11.76 17.6732C11.7164 17.7786 11.6525 17.8743 11.5719 17.955C11.4913 18.0356 11.3955 18.0995 11.2902 18.1431C11.1848 18.1866 11.0719 18.2091 10.9579 18.2089L10.9589 18.2079Z" fill="#4F453C"/>
<path d="M17.7531 20.6671H4.16003C4.04363 20.6711 3.92767 20.6516 3.81897 20.6098C3.71027 20.5679 3.61108 20.5047 3.52734 20.4237C3.4436 20.3428 3.37702 20.2458 3.33154 20.1386C3.28606 20.0314 3.2627 19.9161 3.2627 19.7996C3.2627 19.6832 3.28606 19.5679 3.33154 19.4606C3.37702 19.3534 3.4436 19.2565 3.52734 19.1755C3.61108 19.0946 3.71027 19.0313 3.81897 18.9895C3.92767 18.9477 4.04363 18.9282 4.16003 18.9321H17.7531C17.8695 18.9282 17.9855 18.9477 18.0942 18.9895C18.2029 19.0313 18.3021 19.0946 18.3859 19.1755C18.4696 19.2565 18.5362 19.3534 18.5817 19.4606C18.6271 19.5679 18.6505 19.6832 18.6505 19.7996C18.6505 19.9161 18.6271 20.0314 18.5817 20.1386C18.5362 20.2458 18.4696 20.3428 18.3859 20.4237C18.3021 20.5047 18.2029 20.5679 18.0942 20.6098C17.9855 20.6516 17.8695 20.6711 17.7531 20.6671Z" fill="#4F453C"/>
<path d="M13.632 18.4244H8.28198C8.057 18.4168 7.84371 18.3221 7.68726 18.1602C7.53081 17.9984 7.44336 17.7821 7.44336 17.5569C7.44336 17.3318 7.53081 17.1155 7.68726 16.9537C7.84371 16.7918 8.057 16.6971 8.28198 16.6895H13.632C13.8569 16.6971 14.0701 16.7918 14.2266 16.9537C14.383 17.1155 14.4705 17.3318 14.4705 17.5569C14.4705 17.7821 14.383 17.9984 14.2266 18.1602C14.0701 18.3221 13.8569 18.4168 13.632 18.4244Z" fill="#4F453C"/>
</svg>
