<svg width="10" height="13" viewBox="0 0 5 7" fill="none" xmlns="http://www.w3.org/2000/svg">
<path  d="M3.95389 3.13863L0.923976 0.108771C0.853898 0.0386372 0.760349 0 0.660601 0C0.560853 0 0.467305 0.0386372 0.397226 0.108771L0.174094 0.331848C0.0289001 0.477208 0.0289001 0.713459 0.174094 0.858598L2.71839 3.40289L0.171271 5.95001C0.101193 6.02015 0.0625 6.11364 0.0625 6.21333C0.0625 6.31314 0.101193 6.40663 0.171271 6.47682L0.394403 6.69984C0.464537 6.76997 0.55803 6.80861 0.657778 6.80861C0.757526 6.80861 0.851075 6.76997 0.921153 6.69984L3.95389 3.66721C4.02414 3.59685 4.06272 3.50292 4.0625 3.40306C4.06272 3.30281 4.02414 3.20893 3.95389 3.13863Z" fill="#000000"/>
</svg>
