<svg width="21" height="21" viewBox="0 0 21 21" fill="none" xmlns="http://www.w3.org/2000/svg">
<path d="M8.86366 16.5763C7.34195 16.362 5.91794 15.7014 4.77171 14.6778C3.62547 13.6543 2.8085 12.3138 2.42407 10.8259C2.03964 9.33809 2.10501 7.76967 2.61195 6.31898C3.1189 4.86828 4.04463 3.60048 5.27209 2.6759C6.49954 1.75131 7.97361 1.21149 9.50787 1.12464C11.0421 1.03779 12.5677 1.4078 13.8917 2.18796C15.2156 2.96812 16.2785 4.12337 16.9459 5.50758C17.6133 6.8918 17.8553 8.44282 17.6412 9.96456C17.3519 12.0043 16.2652 13.846 14.6197 15.0855C12.9741 16.325 10.904 16.8612 8.86366 16.5763ZM10.8094 2.73133C9.59304 2.56057 8.35329 2.75435 7.247 3.28813C6.1407 3.82191 5.21751 4.67175 4.59417 5.73017C3.97083 6.78859 3.67531 8.00805 3.745 9.23441C3.81469 10.4608 4.24648 11.6389 4.98571 12.6199C5.72494 13.6009 6.73843 14.3407 7.89807 14.7457C9.05771 15.1507 10.3114 15.2028 11.5006 14.8954C12.6899 14.5879 13.7612 13.9347 14.5793 13.0184C15.3973 12.1021 15.9253 10.9638 16.0964 9.74745C16.323 8.11639 15.8937 6.46202 14.9027 5.1469C13.9117 3.83177 12.4398 2.96312 10.8094 2.73133Z" fill="#4F453C"/>
<path d="M5.61853 8.2737L4.84712 8.16528C5.03868 6.81368 5.75853 5.59322 6.84876 4.77167C7.93898 3.95013 9.31055 3.59459 10.6626 3.78301L10.5542 4.55442C9.40668 4.39448 8.24261 4.69621 7.31732 5.39347C6.39202 6.09073 5.78109 7.12657 5.61853 8.2737Z" fill="#4F453C"/>
<path d="M17.6749 20.4086C17.5735 20.3943 17.4759 20.3602 17.3878 20.3081C17.2996 20.256 17.2226 20.187 17.1612 20.1051L13.4674 15.2033C13.3565 15.0379 13.3131 14.8363 13.3463 14.6399C13.3794 14.4435 13.4865 14.2672 13.6456 14.1473C13.8047 14.0275 14.0036 13.9731 14.2016 13.9954C14.3995 14.0176 14.5813 14.1149 14.7098 14.2671L18.4035 19.1689C18.4962 19.292 18.5502 19.4399 18.5589 19.5938C18.5676 19.7476 18.5305 19.9006 18.4523 20.0334C18.3741 20.1662 18.2583 20.2729 18.1196 20.3399C17.9808 20.407 17.8253 20.4315 17.6727 20.4103L17.6749 20.4086Z" fill="#4F453C"/>
</svg>
