<svg width="25" height="25" viewBox="0 0 25 25" fill="none" xmlns="http://www.w3.org/2000/svg">
<path d="M1.62401 24.5869H1.61205C1.37531 24.584 1.14728 24.4972 0.968558 24.3419C0.789837 24.1866 0.672008 23.9729 0.636039 23.7389L0.604057 23.5979C-0.611943 18.3079 0.0210013 13.5289 2.385 10.1389C4.494 7.11494 7.91801 5.20192 12.572 4.44692V1.00393C12.5722 0.81648 12.6251 0.632815 12.7246 0.473962C12.8241 0.315109 12.9663 0.187442 13.1349 0.105493C13.3035 0.0235447 13.4917 -0.00935406 13.6781 0.0105224C13.8645 0.0303989 14.0415 0.102263 14.189 0.21792L24.247 8.11794C24.3662 8.21151 24.4625 8.33088 24.5287 8.46713C24.595 8.60338 24.6294 8.75294 24.6294 8.90444C24.6294 9.05594 24.595 9.20545 24.5287 9.3417C24.4625 9.47795 24.3662 9.59738 24.247 9.69094L14.189 17.5909C14.0414 17.7066 13.8643 17.7785 13.6778 17.7984C13.4913 17.8182 13.303 17.7852 13.1344 17.7031C12.9658 17.621 12.8236 17.4932 12.7242 17.3342C12.6247 17.1752 12.572 16.9915 12.572 16.8039V12.8139C8.86201 13.3219 3.57206 15.5139 2.61706 23.7019C2.58885 23.9455 2.47207 24.1703 2.28899 24.3335C2.10591 24.4966 1.86925 24.5868 1.62401 24.5869ZM14.572 3.05593V5.31289C14.572 5.55628 14.4833 5.79134 14.3224 5.97396C14.1615 6.15658 13.9395 6.27423 13.6981 6.30489C9.18205 6.88089 5.92802 8.5559 4.02502 11.2839C2.66889 13.3522 1.96485 15.78 2.00402 18.2529C4.80402 12.0359 10.704 10.8909 13.504 10.7109C13.6407 10.702 13.7778 10.7213 13.9067 10.7675C14.0357 10.8138 14.1537 10.8861 14.2535 10.9798C14.3534 11.0736 14.4329 11.1868 14.4872 11.3126C14.5414 11.4384 14.5693 11.5739 14.569 11.7109V14.7369L22.008 8.89791L14.569 3.05795L14.572 3.05593Z" fill="#4F453C"/>
</svg>
