<svg width="22" height="22" viewBox="0 0 22 22" fill="none" xmlns="http://www.w3.org/2000/svg">
<path d="M17.419 15.5811C15.9064 15.5811 14.6758 16.8117 14.6758 18.3242C14.6758 19.8368 15.9064 21.0674 17.419 21.0674C18.9315 21.0674 20.1621 19.8368 20.1621 18.3242C20.1621 16.8117 18.9315 15.5811 17.419 15.5811ZM17.419 19.4215C16.8138 19.4215 16.3217 18.9294 16.3217 18.3242C16.3217 17.7191 16.8138 17.227 17.419 17.227C18.0241 17.227 18.5162 17.7191 18.5162 18.3242C18.5162 18.9294 18.0241 19.4215 17.419 19.4215Z" fill="black"/>
<path d="M21.8251 4.979C21.6693 4.77959 21.4304 4.66327 21.1772 4.66327H5.0798L4.33914 1.56435C4.25054 1.19404 3.91942 0.932617 3.53867 0.932617H0.822942C0.368416 0.932574 0 1.30099 0 1.75552C0 2.21004 0.368416 2.57846 0.822942 2.57846H2.88911L5.56367 13.7695C5.65227 14.1401 5.98339 14.4012 6.36414 14.4012H19.1747C19.553 14.4012 19.8827 14.1433 19.9735 13.7763L21.976 5.68395C22.0366 5.43821 21.9809 5.17842 21.8251 4.979ZM18.5309 12.7553H7.0137L5.47313 6.30915H20.1257L18.5309 12.7553Z" fill="black"/>
<path d="M7.4614 15.5811C5.94881 15.5811 4.71826 16.8117 4.71826 18.3242C4.71826 19.8368 5.94885 21.0674 7.4614 21.0674C8.97395 21.0674 10.2045 19.8368 10.2045 18.3242C10.2045 16.8117 8.97395 15.5811 7.4614 15.5811ZM7.4614 19.4215C6.85627 19.4215 6.36415 18.9294 6.36415 18.3242C6.36415 17.7191 6.85627 17.227 7.4614 17.227C8.06653 17.227 8.55866 17.7191 8.55866 18.3242C8.55866 18.9294 8.06653 19.4215 7.4614 19.4215Z" fill="black"/>
</svg>
