<svg width="90" height="80" viewBox="0 0 31 20" fill="none" xmlns="http://www.w3.org/2000/svg">
<path d="M30.1875 0H0.1875V19.9996H30.1875V0Z" fill="#F0F0F0"/>
<path d="M30.1875 0H0.1875V9.99978H30.1875V0Z" fill="#D80027"/>
<path d="M5.07969 4.99975C5.07969 3.54281 6.10367 2.3257 7.47101 2.02705C7.26084 1.98111 7.04281 1.95627 6.81886 1.95627C5.13793 1.95627 3.77539 3.31881 3.77539 4.99969C3.77539 6.68057 5.13799 8.04316 6.81886 8.04316C7.04281 8.04316 7.26084 8.01826 7.47101 7.97238C6.10367 7.67385 5.07969 6.45674 5.07969 4.99975Z" fill="#F0F0F0"/>
<path d="M8.99248 2.17371L9.20834 2.83798H9.90684L9.3417 3.24855L9.55756 3.91283L8.99248 3.50232L8.42734 3.91283L8.64326 3.24855L8.07812 2.83798H8.77662L8.99248 2.17371Z" fill="#F0F0F0"/>
<path d="M7.29912 3.47809L7.51492 4.14237H8.21342L7.64828 4.55293L7.86414 5.21721L7.29912 4.8067L6.73398 5.21721L6.9499 4.55293L6.38477 4.14237H7.08326L7.29912 3.47809Z" fill="#F0F0F0"/>
<path d="M10.6877 3.47809L10.9036 4.14237H11.6021L11.037 4.55293L11.2528 5.21721L10.6877 4.8067L10.1227 5.21721L10.3386 4.55293L9.77344 4.14237H10.4719L10.6877 3.47809Z" fill="#F0F0F0"/>
<path d="M10.0353 5.43457L10.2512 6.09885H10.9497L10.3846 6.50941L10.6005 7.17369L10.0353 6.76318L9.47031 7.17369L9.68617 6.50941L9.12109 6.09885H9.81953L10.0353 5.43457Z" fill="#F0F0F0"/>
<path d="M7.9514 5.43457L8.1672 6.09885H8.8657L8.30062 6.50941L8.51648 7.17369L7.9514 6.76318L7.38633 7.17369L7.60219 6.50941L7.03711 6.09885H7.73554L7.9514 5.43457Z" fill="#F0F0F0"/>
</svg>
