<svg width="15" height="15" viewBox="0 0 15 15" fill="none" xmlns="http://www.w3.org/2000/svg">
<g clip-path="url(#clip0)">
<path d="M15 7.50018C15 11.6426 11.6424 15.0001 7.50012 15C3.3576 15.0001 9.39337e-09 11.6426 9.39337e-09 7.50018C-0.000205069 3.35772 3.3576 0 7.50012 0C11.6424 0 15 3.35783 15 7.50018Z" fill="#FED64D"/>
<path d="M10.126 7.28118H7.93454L9.12965 5.34143C9.1929 5.23851 9.16105 5.10378 9.05805 5.04032C8.95524 4.97672 8.82039 5.009 8.75693 5.11192L7.54261 7.08287L6.3267 5.11078C6.26324 5.00797 6.12836 4.9756 6.02559 5.03941C5.92258 5.10278 5.89073 5.23763 5.95398 5.34052L7.15056 7.28121H4.87363C4.75267 7.28121 4.65479 7.37921 4.65479 7.50006C4.65479 7.62093 4.75267 7.7189 4.87363 7.7189H7.15079L5.95568 9.65865C5.89243 9.76157 5.92428 9.8963 6.02729 9.95976C6.06297 9.98176 6.10272 9.99225 6.14184 9.99225C6.21537 9.99225 6.28697 9.95528 6.32843 9.88816L7.54275 7.91721L8.75866 9.8893C8.80012 9.95639 8.87172 9.99328 8.94525 9.99328C8.98436 9.99328 9.02412 9.98282 9.0598 9.96067C9.16281 9.8973 9.19466 9.76245 9.13141 9.65956L7.9348 7.71887H10.1261C10.247 7.71887 10.3449 7.62088 10.3449 7.50003C10.3448 7.37915 10.2469 7.28118 10.126 7.28118Z" fill="#040404"/>
</g>
<defs>
<clipPath id="clip0">
<rect width="15" height="15" fill="white"/>
</clipPath>
</defs>
</svg>
