<svg width="20" height="20" viewBox="0 0 18 22" fill="none" xmlns="http://www.w3.org/2000/svg">
<g clip-path="url(#clip0)">
<path d="M21.4321 6.92343C20.6783 6.1695 19.4515 6.16954 18.6974 6.9236C18.4654 7.15576 16.9845 8.63788 16.7583 8.86432V3.75659C16.7583 3.2401 16.5572 2.75455 16.1919 2.38936L14.369 0.566328C14.0038 0.201094 13.5182 0 13.0017 0H1.93408C0.867898 0 0.000488281 0.86741 0.000488281 1.93359V20.0664C0.000488281 21.1326 0.867898 22 1.93408 22H14.8247C15.8909 22 16.7583 21.1326 16.7583 20.0664V14.3357L21.4321 9.65796C22.1878 8.90231 22.188 7.67916 21.4321 6.92343ZM12.8912 1.28906C13.0129 1.28906 13.2476 1.26796 13.4575 1.47782L15.2805 3.30086C15.485 3.50543 15.4693 3.7296 15.4693 3.86719H12.8912V1.28906ZM15.4692 20.0664C15.4692 20.4218 15.1801 20.7109 14.8247 20.7109H1.93408C1.57869 20.7109 1.28955 20.4218 1.28955 20.0664V1.93359C1.28955 1.5782 1.57869 1.28906 1.93408 1.28906H11.6021V4.51172C11.6021 4.86767 11.8906 5.15625 12.2466 5.15625H15.4692V10.1545C15.4692 10.1545 13.5677 12.0577 13.5676 12.0577L12.6565 12.9688C12.5858 13.0396 12.5325 13.1258 12.5008 13.2208L11.5893 15.9553C11.5121 16.1869 11.5724 16.4422 11.745 16.6149C11.9179 16.7877 12.1733 16.8477 12.4046 16.7706L15.1391 15.8591C15.234 15.8275 15.3203 15.7741 15.391 15.7034L15.4692 15.6252V20.0664ZM14.0238 13.4246L14.9353 14.3361L14.5871 14.6843L13.2199 15.14L13.6756 13.7727L14.0238 13.4246ZM15.8466 13.4244L14.9351 12.5129C15.4205 12.0271 17.5762 9.86958 18.0334 9.412L18.9449 10.3235L15.8466 13.4244ZM20.5204 8.74663L19.856 9.41162L18.9445 8.50012L19.6091 7.83492C19.8606 7.5836 20.2694 7.58364 20.5207 7.83492C20.7719 8.08629 20.7733 8.49376 20.5204 8.74663Z" fill="black" stroke="black" stroke-width="0.2"/>
<path d="M12.2466 6.44531H3.22314C2.86719 6.44531 2.57861 6.73389 2.57861 7.08984C2.57861 7.4458 2.86719 7.73438 3.22314 7.73438H12.2466C12.6025 7.73438 12.8911 7.4458 12.8911 7.08984C12.8911 6.73389 12.6025 6.44531 12.2466 6.44531Z" fill="black"/>
<path d="M9.66846 9.02344H3.22314C2.86719 9.02344 2.57861 9.31202 2.57861 9.66797C2.57861 10.0239 2.86719 10.3125 3.22314 10.3125H9.66846C10.0244 10.3125 10.313 10.0239 10.313 9.66797C10.313 9.31202 10.0244 9.02344 9.66846 9.02344Z" fill="black"/>
<path d="M9.66846 11.6016H3.22314C2.86719 11.6016 2.57861 11.8901 2.57861 12.2461C2.57861 12.602 2.86719 12.8906 3.22314 12.8906H9.66846C10.0244 12.8906 10.313 12.602 10.313 12.2461C10.313 11.8901 10.0244 11.6016 9.66846 11.6016Z" fill="black"/>
<path d="M9.66846 14.1797H3.22314C2.86719 14.1797 2.57861 14.4683 2.57861 14.8242C2.57861 15.1802 2.86719 15.4688 3.22314 15.4688H9.66846C10.0244 15.4688 10.313 15.1802 10.313 14.8242C10.313 14.4683 10.0244 14.1797 9.66846 14.1797Z" fill="black"/>
</g>
<defs>
<clipPath id="clip0">
<rect width="22" height="22" fill="white"/>
</clipPath>
</defs>
</svg>
