<svg width="20" height="20" viewBox="0 0 20 20" fill="none" xmlns="http://www.w3.org/2000/svg">
<rect width="20" height="20" fill="white"/>
<path d="M14.8272 10.2759L14.8267 10.2772C14.6846 10.6613 14.4507 11.0465 14.1276 11.4217L14.1267 11.4226C14.1244 11.4251 14.1217 11.4283 14.1186 11.4321L10.0003 16.2692L5.87663 11.4256L5.87575 11.4246C5.55152 11.0489 5.31673 10.6627 5.17269 10.2735L5.17219 10.2722C4.58072 8.70791 4.80449 6.93557 5.77438 5.53188L5.77438 5.53187C6.74652 4.12484 8.2853 3.31888 10.0003 3.31888C11.7153 3.31888 13.2539 4.1248 14.2261 5.53187L14.2261 5.53189C15.1961 6.93553 15.4202 8.70784 14.8272 10.2759ZM15.4757 4.66822C14.2168 2.84622 12.2193 1.8 10.0003 1.8C7.78134 1.8 5.78392 2.84622 4.52501 4.66822C3.27302 6.47994 2.98276 8.77525 3.75 10.805C3.95822 11.367 4.28752 11.9089 4.7233 12.4134C4.72346 12.4136 4.72361 12.4138 4.72377 12.414L9.42209 17.9327C9.56635 18.1022 9.77774 18.2 10.0003 18.2C10.2229 18.2 10.4343 18.1023 10.5785 17.9327C10.5786 17.9327 10.5786 17.9327 10.5786 17.9326L15.2757 12.4154C15.2758 12.4152 15.276 12.4151 15.2761 12.4149C15.7136 11.9077 16.0426 11.3664 16.2492 10.8086C17.0179 8.7753 16.7277 6.48 15.4757 4.66822Z" fill="#040404" stroke="#040404" stroke-width="0.4"/>
<path d="M10.0001 5.11934C8.16224 5.11934 6.66719 6.61418 6.66719 8.45221C6.66719 10.2902 8.16204 11.7851 10.0001 11.7851C11.8381 11.7851 13.3329 10.2902 13.3329 8.45221C13.3329 6.61438 11.8379 5.11934 10.0001 5.11934ZM10.0001 10.2662C9.00002 10.2662 8.18606 9.45222 8.18606 8.45218C8.18606 7.45214 9.00002 6.63818 10.0001 6.63818C11.0001 6.63818 11.8141 7.45214 11.8141 8.45218C11.8141 9.45222 11.0001 10.2662 10.0001 10.2662Z" fill="#040404" stroke="#040404" stroke-width="0.4"/>
</svg>
