<svg width="22" height="22" viewBox="0 0 22 22" fill="none" xmlns="http://www.w3.org/2000/svg">
<path d="M11 0C6.37987 0 2.62109 3.75878 2.62109 8.37891C2.62109 11.3615 3.52838 12.5575 7.88825 18.3051C8.64505 19.3028 9.50288 20.4336 10.4844 21.7422C10.6061 21.9045 10.7971 22 11 22C11.2029 22 11.3939 21.9044 11.5157 21.7421C12.4914 20.4406 13.3455 19.3141 14.0991 18.3202C18.4694 12.5559 19.3789 11.3563 19.3789 8.37891C19.3789 3.75878 15.6201 0 11 0ZM13.0719 17.5413C12.453 18.3577 11.7664 19.2633 10.9999 20.2823C10.2281 19.2567 9.5376 18.3465 8.91524 17.526C4.67431 11.9353 3.91016 10.9279 3.91016 8.37891C3.91016 4.46957 7.09066 1.28906 11 1.28906C14.9093 1.28906 18.0898 4.46957 18.0898 8.37891C18.0898 10.9229 17.3237 11.9334 13.0719 17.5413Z" fill="black"/>
<path d="M11 3.86719C8.51224 3.86719 6.48828 5.89114 6.48828 8.37891C6.48828 10.8667 8.51224 12.8906 11 12.8906C13.4878 12.8906 15.5117 10.8667 15.5117 8.37891C15.5117 5.89114 13.4878 3.86719 11 3.86719ZM11 11.6016C9.22303 11.6016 7.77734 10.1559 7.77734 8.37891C7.77734 6.60193 9.22303 5.15625 11 5.15625C12.777 5.15625 14.2227 6.60193 14.2227 8.37891C14.2227 10.1559 12.777 11.6016 11 11.6016Z" fill="black"/>
</svg>
