<svg width="22" height="22" viewBox="0 0 22 22" fill="none" xmlns="http://www.w3.org/2000/svg">
<path d="M11.2383 9.76252C11.2383 9.35244 10.9059 9.02002 10.4958 9.02002H6.81769C6.40761 9.02002 6.0752 9.35244 6.0752 9.76252C6.0752 10.1726 6.40761 10.505 6.81769 10.505H10.4958C10.9059 10.505 11.2383 10.1726 11.2383 9.76252Z" fill="black" stroke="black" stroke-width="0.1"/>
<path d="M6.81769 11.77C6.40761 11.77 6.0752 12.1024 6.0752 12.5125C6.0752 12.9226 6.40761 13.255 6.81769 13.255H8.29582C8.7059 13.255 9.03832 12.9226 9.03832 12.5125C9.03832 12.1024 8.7059 11.77 8.29582 11.77H6.81769Z" fill="black" stroke="black" stroke-width="0.1"/>
<path d="M9.87716 18.37H6.1341C5.4063 18.37 4.8141 17.7778 4.8141 17.05V4.95002C4.8141 4.22222 5.4063 3.63002 6.1341 3.63002H14.5865C15.3144 3.63002 15.9065 4.22222 15.9065 4.95002V8.80002C15.9065 9.2101 16.2389 9.54252 16.649 9.54252C17.0591 9.54252 17.3915 9.2101 17.3915 8.80002V4.95002C17.3915 3.4033 16.1333 2.14502 14.5865 2.14502H6.1341C4.58737 2.14502 3.3291 3.4033 3.3291 4.95002V17.05C3.3291 18.5967 4.58737 19.855 6.1341 19.855H9.87712C10.2872 19.855 10.6196 19.5226 10.6196 19.1125C10.6196 18.7024 10.2872 18.37 9.87716 18.37Z" fill="black" stroke="black" stroke-width="0.1"/>
<path d="M15.3305 10.5972C15.2116 10.544 15.086 10.5246 14.9647 10.5351C14.8433 10.5247 14.7177 10.544 14.5987 10.5971L11.2242 12.105C10.9569 12.2244 10.7847 12.49 10.7847 12.7829V15.4009C10.7847 16.4901 11.2148 17.6005 11.964 18.4485C12.7641 19.3541 13.8131 19.855 14.9183 19.855H15.011C16.1162 19.855 17.1651 19.3541 17.9654 18.4485C18.7146 17.6005 19.1447 16.4901 19.1447 15.4009V12.7829C19.1447 12.49 18.9725 12.2244 18.7051 12.105M15.3305 10.5972L18.7051 12.105M15.3305 10.5972L15.3081 10.6474M18.7051 12.105L18.6846 12.151M15.3081 10.6474C15.1963 10.5974 15.0784 10.5797 14.9647 10.5903L11.2467 12.1551C10.9991 12.2658 10.8397 12.5117 10.8397 12.7829V15.4009C10.8397 16.4762 11.2645 17.5736 12.0051 18.4121C12.796 19.3071 13.8306 19.8 14.9183 19.8H15.011C16.0988 19.8 17.1332 19.3071 17.9241 18.4121C18.6649 17.5736 19.0897 16.4762 19.0897 15.4009V12.7829C19.0897 12.5117 18.9302 12.2658 18.6827 12.1551L15.3081 10.6474Z" stroke="black"/>
<path d="M14.6414 7.01252C14.6414 6.60244 14.309 6.27002 13.8989 6.27002H6.8177C6.40762 6.27002 6.0752 6.60244 6.0752 7.01252C6.0752 7.4226 6.40762 7.75502 6.8177 7.75502H13.8989C14.309 7.75502 14.6414 7.4226 14.6414 7.01252Z" fill="black" stroke="black" stroke-width="0.1"/>
</svg>
