<svg width="22" height="22" viewBox="0 0 22 22" fill="none" xmlns="http://www.w3.org/2000/svg">
<path d="M10.9635 20.1362H2.74085C2.23652 20.1362 1.82725 19.7269 1.82725 19.2226V2.77739C1.82725 2.27307 2.23657 1.86379 2.74085 1.86379H10.9635C11.4687 1.86379 11.8771 1.45541 11.8771 0.950187C11.8771 0.44496 11.4687 0.036499 10.9635 0.036499H2.74085C1.22972 0.036499 0 1.26626 0 2.77739V19.2226C0 20.7337 1.22972 21.9634 2.74085 21.9634H10.9635C11.4687 21.9634 11.8771 21.555 11.8771 21.0498C11.8771 20.5446 11.4687 20.1362 10.9635 20.1362Z" fill="black"/>
<path d="M21.7278 10.3495L16.173 4.86776C15.8149 4.51327 15.2356 4.51787 14.8811 4.87691C14.5267 5.23596 14.5303 5.81428 14.8903 6.16877L18.86 10.0864H8.22268C7.71746 10.0864 7.30908 10.4947 7.30908 11C7.30908 11.5052 7.71746 11.9136 8.22268 11.9136H18.86L14.8903 15.8312C14.5304 16.1857 14.5276 16.764 14.8811 17.123C15.0602 17.3039 15.2959 17.3953 15.5317 17.3953C15.7637 17.3953 15.9958 17.3076 16.173 17.1322L21.7278 11.6504C21.9014 11.4787 22.0001 11.2448 22.0001 10.9999C22.0001 10.7552 21.9023 10.5222 21.7278 10.3495Z" fill="black"/>
</svg>
