<svg width="20" height="17" viewBox="0 0 26 15" fill="none" xmlns="http://www.w3.org/2000/svg">
<path d="M12.3704 4.15438L12.3692 4.15446C10.6999 4.26333 9.34511 5.60922 9.24149 7.2829C9.10895 9.30473 10.7808 10.9673 12.7986 10.8405C14.466 10.7371 15.8186 9.38869 15.9275 7.71259C16.0604 5.69047 14.3884 4.0275 12.3704 4.15438ZM0.596651 7.20321C3.74531 3.02201 7.96992 0.5 12.5819 0.5C17.194 0.5 21.4186 3.02203 24.5672 7.20835C24.6961 7.38046 24.6961 7.62458 24.5673 7.7967C21.4186 11.978 17.194 14.5 12.5819 14.5C7.96996 14.5 3.74538 11.978 0.59675 7.79178C0.467783 7.61964 0.46775 7.37538 0.596651 7.20321Z" stroke="black"/>
</svg>
