<svg width="20" height="20" viewBox="0 0 20 20" fill="none" xmlns="http://www.w3.org/2000/svg">
<rect width="20" height="20" fill="white"/>
<path d="M16.6187 8.63926V6.69531C16.6187 5.85589 15.951 5.16977 15.1187 5.14006V3.50781C15.1187 3.16609 14.8417 2.88906 14.5 2.88906H11.6187V2.50781C11.6187 2.16609 11.3417 1.88906 11 1.88906H3.5C3.15828 1.88906 2.88125 2.16609 2.88125 2.50781V5.23061C2.28093 5.44639 1.85 6.02092 1.85 6.69531V16.5703C1.85 17.4286 2.548 18.1266 3.40625 18.1266H15.0625C15.9207 18.1266 16.6187 17.4286 16.6187 16.5703V13.8764C17.4655 13.863 18.15 13.1702 18.15 12.3203V10.1953C18.15 9.34541 17.4655 8.65266 16.6187 8.63926ZM13.8813 4.12656V5.13906H11.6187V4.12656H13.8813ZM4.11875 3.12656H10.3813V5.13906H4.11875V3.12656ZM15.0625 16.8891H3.40625C3.23062 16.8891 3.0875 16.7459 3.0875 16.5703V16.1266H15.3813V16.5703C15.3813 16.7459 15.2381 16.8891 15.0625 16.8891ZM15.3813 14.8891H3.0875V6.69531C3.0875 6.51969 3.23062 6.37656 3.40625 6.37656H15.0625C15.2381 6.37656 15.3813 6.51969 15.3813 6.69531V8.63906H12.4375C11.5793 8.63906 10.8813 9.33706 10.8813 10.1953V12.3203C10.8813 13.1786 11.5793 13.8766 12.4375 13.8766H15.3813V14.8891ZM16.9125 12.3203C16.9125 12.4959 16.7694 12.6391 16.5938 12.6391H12.4375C12.2619 12.6391 12.1187 12.4959 12.1187 12.3203V10.1953C12.1187 10.0197 12.2619 9.87656 12.4375 9.87656H16.5938C16.7694 9.87656 16.9125 10.0197 16.9125 10.1953V12.3203Z" fill="#040404" stroke="#040404" stroke-width="0.3"/>
<path d="M14.1072 11.1387L14.1073 11.1387L14.1066 11.1357C14.0312 10.7737 13.6693 10.5619 13.321 10.6657L13.321 10.6656L13.3174 10.6668C12.9667 10.7811 12.8169 11.1317 12.9079 11.437L12.9079 11.437L12.9091 11.4406C13.0234 11.7913 13.3733 11.9409 13.6791 11.8501L13.6791 11.8501L13.683 11.8489C14.007 11.7429 14.1626 11.4346 14.1072 11.1387Z" fill="#040404" stroke="#040404" stroke-width="0.3"/>
</svg>
