<svg width="20" height="20" viewBox="0 0 20 20" fill="none" xmlns="http://www.w3.org/2000/svg">
<rect width="20" height="20" fill="white"/>
<path d="M15.6556 4.34391C12.53 1.21827 7.4705 1.21777 4.34443 4.34391C1.21876 7.46955 1.21829 12.529 4.34443 15.6551C7.47 18.7807 12.5295 18.7812 15.6556 15.6551C18.7812 12.5295 18.7817 7.47002 15.6556 4.34391ZM15.3213 14.515C14.9476 14.1808 14.5479 13.8851 14.1265 13.6302C14.405 12.6682 14.57 11.6096 14.609 10.5092H16.9605C16.8542 11.9925 16.2843 13.3839 15.3213 14.515ZM3.03949 10.5092H5.39098C5.42998 11.6096 5.59497 12.6682 5.87346 13.6302C5.45212 13.8851 5.05238 14.1808 4.67869 14.515C3.71572 13.3839 3.14584 11.9925 3.03949 10.5092ZM4.67872 5.48404C5.05241 5.81821 5.45215 6.11394 5.87349 6.36879C5.595 7.33079 5.43001 8.38939 5.39101 9.48981H3.03949C3.14584 8.00658 3.71572 6.61518 4.67872 5.48404ZM9.49032 6.47414C8.65906 6.41469 7.85756 6.20995 7.11451 5.8722C7.54666 4.75939 8.34332 3.42469 9.49032 3.09393V6.47414ZM9.49032 7.49544V9.48984H6.4108C6.44609 8.55897 6.57798 7.66511 6.79733 6.84725C7.64174 7.21638 8.54987 7.43683 9.49032 7.49544ZM9.49032 10.5092V12.5036C8.54987 12.5622 7.64174 12.7827 6.79733 13.1518C6.57798 12.3339 6.44609 11.4401 6.4108 10.5092H9.49032ZM9.49032 13.5249V16.9051C8.34338 16.5743 7.54672 15.2398 7.11451 14.1268C7.85756 13.7891 8.65906 13.5843 9.49032 13.5249ZM10.5097 13.5249C11.3409 13.5843 12.1424 13.7891 12.8855 14.1268C12.4533 15.2397 11.6567 16.5743 10.5097 16.9051V13.5249ZM10.5097 12.5036V10.5092H13.5892C13.5539 11.4401 13.422 12.3339 13.2027 13.1518C12.3583 12.7827 11.4501 12.5622 10.5097 12.5036ZM10.5097 9.48984V7.49544C11.4501 7.43683 12.3583 7.21638 13.2027 6.84725C13.422 7.66511 13.5539 8.55897 13.5892 9.48984H10.5097ZM10.5097 6.47414V3.09396C11.6567 3.42472 12.4533 4.75942 12.8855 5.87223C12.1424 6.20995 11.3409 6.41469 10.5097 6.47414ZM12.7991 3.60283C13.4515 3.88853 14.0602 4.27594 14.6058 4.75661C14.3461 4.98561 14.0721 5.19325 13.7859 5.37894C13.5317 4.74971 13.2071 4.13821 12.7991 3.60283ZM6.21409 5.37894C5.92792 5.19325 5.65389 4.98561 5.39413 4.75661C5.93978 4.27594 6.54847 3.88853 7.20091 3.60283C6.79287 4.13827 6.46823 4.74977 6.21409 5.37894ZM6.21412 14.6201C6.46823 15.2493 6.79293 15.8608 7.20094 16.3962C6.5485 16.1105 5.93981 15.7231 5.39417 15.2424C5.65389 15.0134 5.92795 14.8058 6.21412 14.6201ZM13.7859 14.6201C14.0721 14.8058 14.3461 15.0134 14.6058 15.2424C14.0602 15.7231 13.4515 16.1105 12.7991 16.3962C13.2071 15.8609 13.5317 15.2493 13.7859 14.6201ZM14.609 9.48984C14.57 8.38943 14.405 7.33079 14.1265 6.36882C14.5479 6.11397 14.9476 5.81824 15.3213 5.48408C16.2843 6.61518 16.8542 8.00658 16.9605 9.48984H14.609Z" fill="black"/>
</svg>
