<svg width="43" height="43" viewBox="0 0 100 100" fill="none" xmlns="http://www.w3.org/2000/svg">
<rect width="100" height="100" rx="20" fill="#161616"/>
<path d="M29.4329 35.819L32.5789 29.098C32.6309 28.994 32.6742 28.9203 32.7089 28.877C32.7436 28.825 32.7782 28.7903 32.8129 28.773C32.8475 28.747 32.8822 28.734 32.9169 28.734C32.9602 28.7253 33.0079 28.7123 33.0599 28.695H38.0649C38.1256 28.695 38.1732 28.7167 38.2079 28.76C38.2512 28.7947 38.2729 28.838 38.2729 28.89C38.2729 28.9853 38.2122 29.0937 38.0909 29.215L31.9289 40.122V47.389C31.9289 47.7963 31.7296 48 31.3309 48H27.4309C27.2575 48 27.1232 47.948 27.0279 47.844C26.9326 47.7313 26.8849 47.5797 26.8849 47.389V40.096L20.7359 29.215C20.6232 29.1023 20.5669 28.994 20.5669 28.89C20.5669 28.838 20.5842 28.7947 20.6189 28.76C20.6535 28.7167 20.7012 28.695 20.7619 28.695H25.7669C25.8275 28.7123 25.8752 28.7253 25.9099 28.734C25.9445 28.734 25.9792 28.747 26.0139 28.773C26.0485 28.7903 26.0832 28.825 26.1179 28.877C26.1525 28.9203 26.2002 28.994 26.2609 29.098L29.4329 35.819ZM43.6329 38.354C43.6329 39.0733 43.7543 39.745 43.9969 40.369C44.2396 40.993 44.5776 41.539 45.0109 42.007C45.4529 42.4663 45.9729 42.8303 46.5709 43.099C47.1689 43.359 47.8276 43.489 48.5469 43.489C49.2663 43.489 49.9249 43.359 50.5229 43.099C51.1296 42.8303 51.6496 42.4663 52.0829 42.007C52.5249 41.539 52.8673 40.993 53.1099 40.369C53.3526 39.745 53.4739 39.0733 53.4739 38.354C53.4739 37.6433 53.3526 36.976 53.1099 36.352C52.8673 35.7193 52.5249 35.169 52.0829 34.701C51.6496 34.233 51.1296 33.8647 50.5229 33.596C49.9249 33.3273 49.2663 33.193 48.5469 33.193C47.8276 33.193 47.1689 33.3273 46.5709 33.596C45.9729 33.8647 45.4529 34.233 45.0109 34.701C44.5776 35.169 44.2396 35.7193 43.9969 36.352C43.7543 36.976 43.6329 37.6433 43.6329 38.354ZM38.6149 38.367C38.6149 37.4483 38.7319 36.5687 38.9659 35.728C39.1999 34.8787 39.5336 34.0857 39.9669 33.349C40.4003 32.6037 40.9159 31.9277 41.5139 31.321C42.1206 30.7143 42.7923 30.1987 43.5289 29.774C44.2656 29.3407 45.0543 29.007 45.8949 28.773C46.7443 28.5303 47.6283 28.409 48.5469 28.409C49.4569 28.409 50.3366 28.5303 51.1859 28.773C52.0353 29.007 52.8283 29.3407 53.5649 29.774C54.3016 30.1987 54.9733 30.7143 55.5799 31.321C56.1866 31.9277 56.7023 32.6037 57.1269 33.349C57.5603 34.0857 57.8939 34.8787 58.1279 35.728C58.3706 36.5687 58.4919 37.4483 58.4919 38.367C58.4919 39.2857 58.3706 40.1697 58.1279 41.019C57.8939 41.8597 57.5603 42.6483 57.1269 43.385C56.7023 44.113 56.1866 44.7803 55.5799 45.387C54.9733 45.985 54.3016 46.5007 53.5649 46.934C52.8283 47.3673 52.0353 47.701 51.1859 47.935C50.3366 48.169 49.4569 48.286 48.5469 48.286C47.6283 48.286 46.7443 48.169 45.8949 47.935C45.0543 47.701 44.2656 47.3673 43.5289 46.934C42.7923 46.5007 42.1206 45.985 41.5139 45.387C40.9159 44.7803 40.4003 44.113 39.9669 43.385C39.5336 42.6483 39.1999 41.8597 38.9659 41.019C38.7319 40.1697 38.6149 39.2857 38.6149 38.367ZM66.657 40.291C66.657 40.9323 66.7436 41.4783 66.917 41.929C67.099 42.371 67.333 42.735 67.619 43.021C67.9136 43.2983 68.2516 43.502 68.633 43.632C69.023 43.762 69.426 43.827 69.842 43.827C70.2753 43.827 70.6826 43.7533 71.064 43.606C71.454 43.45 71.792 43.2247 72.078 42.93C72.3726 42.6267 72.6023 42.254 72.767 41.812C72.9403 41.37 73.027 40.863 73.027 40.291V29.267C73.027 29.111 73.079 28.9767 73.183 28.864C73.2956 28.7513 73.443 28.695 73.625 28.695H77.421C77.6203 28.695 77.7763 28.7557 77.889 28.877C78.0016 28.9897 78.058 29.1197 78.058 29.267V40.226C78.058 41.7427 77.8326 43.0167 77.382 44.048C76.94 45.0793 76.342 45.9113 75.588 46.544C74.834 47.168 73.9586 47.6187 72.962 47.896C71.974 48.1647 70.934 48.299 69.842 48.299C68.75 48.299 67.7056 48.1603 66.709 47.883C65.7123 47.597 64.837 47.1377 64.083 46.505C63.329 45.8637 62.7266 45.0317 62.276 44.009C61.834 42.9777 61.613 41.7167 61.613 40.226V29.267C61.613 29.1197 61.6606 28.9897 61.756 28.877C61.86 28.7557 61.9856 28.695 62.133 28.695H66.033C66.163 28.695 66.2973 28.7513 66.436 28.864C66.5833 28.968 66.657 29.1023 66.657 29.267V40.291ZM32.969 67.334C32.969 67.436 32.951 67.535 32.915 67.631C32.879 67.721 32.819 67.793 32.735 67.847C32.669 67.913 32.591 67.955 32.501 67.973C32.411 67.991 32.333 68 32.267 68H30.494C30.368 68 30.266 67.985 30.188 67.955C30.11 67.919 30.047 67.871 29.999 67.811C29.951 67.751 29.909 67.679 29.873 67.595C29.843 67.505 29.81 67.409 29.774 67.307L29.657 66.902C29.495 67.064 29.309 67.223 29.099 67.379C28.895 67.535 28.667 67.676 28.415 67.802C28.169 67.922 27.902 68.018 27.614 68.09C27.332 68.168 27.038 68.207 26.732 68.207C26.186 68.207 25.661 68.138 25.157 68C24.659 67.862 24.191 67.667 23.753 67.415C23.321 67.157 22.928 66.851 22.574 66.497C22.22 66.137 21.914 65.738 21.656 65.3C21.404 64.862 21.209 64.391 21.071 63.887C20.933 63.377 20.864 62.846 20.864 62.294C20.864 61.46 21.017 60.686 21.323 59.972C21.629 59.252 22.046 58.628 22.574 58.1C23.102 57.566 23.723 57.149 24.437 56.849C25.151 56.543 25.916 56.39 26.732 56.39C27.104 56.39 27.449 56.432 27.767 56.516C28.091 56.6 28.385 56.714 28.649 56.858C28.919 57.002 29.162 57.176 29.378 57.38C29.594 57.578 29.783 57.794 29.945 58.028L30.206 57.209C30.266 57.059 30.314 56.939 30.35 56.849C30.392 56.753 30.434 56.684 30.476 56.642C30.524 56.594 30.581 56.564 30.647 56.552C30.713 56.534 30.806 56.525 30.926 56.525H32.267C32.333 56.525 32.411 56.534 32.501 56.552C32.591 56.57 32.669 56.612 32.735 56.678C32.819 56.744 32.879 56.819 32.915 56.903C32.951 56.987 32.969 57.083 32.969 57.191V67.334ZM24.104 62.294C24.104 62.69 24.164 63.062 24.284 63.41C24.41 63.752 24.587 64.049 24.815 64.301C25.043 64.553 25.316 64.754 25.634 64.904C25.958 65.048 26.315 65.12 26.705 65.12C27.107 65.12 27.479 65.048 27.821 64.904C28.169 64.754 28.469 64.553 28.721 64.301C28.979 64.049 29.18 63.752 29.324 63.41C29.468 63.062 29.54 62.69 29.54 62.294C29.54 61.91 29.468 61.544 29.324 61.196C29.18 60.848 28.979 60.542 28.721 60.278C28.469 60.014 28.169 59.807 27.821 59.657C27.479 59.501 27.107 59.423 26.705 59.423C26.315 59.423 25.958 59.501 25.634 59.657C25.316 59.807 25.043 60.014 24.815 60.278C24.587 60.542 24.41 60.848 24.284 61.196C24.164 61.544 24.104 61.91 24.104 62.294ZM43.2729 66.875C43.1109 67.037 42.9249 67.199 42.7149 67.361C42.5109 67.517 42.2859 67.658 42.0399 67.784C41.7999 67.91 41.5389 68.012 41.2569 68.09C40.9809 68.168 40.6869 68.207 40.3749 68.207C39.5589 68.207 38.8059 68.054 38.1159 67.748C37.4319 67.442 36.8409 67.025 36.3429 66.497C35.8509 65.963 35.4639 65.336 35.1819 64.616C34.9059 63.896 34.7679 63.122 34.7679 62.294C34.7679 61.46 34.9059 60.686 35.1819 59.972C35.4639 59.252 35.8509 58.628 36.3429 58.1C36.8409 57.566 37.4319 57.149 38.1159 56.849C38.8059 56.543 39.5589 56.39 40.3749 56.39C40.7049 56.39 41.0049 56.42 41.2749 56.48C41.5509 56.534 41.7999 56.615 42.0219 56.723C42.2499 56.831 42.4569 56.96 42.6429 57.11C42.8349 57.26 43.0149 57.425 43.1829 57.605V53.852C43.1829 53.66 43.2399 53.498 43.3539 53.366C43.4739 53.234 43.6509 53.168 43.8849 53.168H45.9099C45.9879 53.168 46.0689 53.186 46.1529 53.222C46.2429 53.252 46.3239 53.297 46.3959 53.357C46.4679 53.417 46.5249 53.489 46.5669 53.573C46.6149 53.657 46.6389 53.75 46.6389 53.852V67.307C46.6389 67.769 46.3959 68 45.9099 68H44.1459C44.0259 68 43.9329 67.985 43.8669 67.955C43.8009 67.925 43.7439 67.883 43.6959 67.829C43.6539 67.769 43.6149 67.697 43.5789 67.613C43.5429 67.523 43.4979 67.421 43.4439 67.307L43.2729 66.875ZM38.0079 62.294C38.0079 62.69 38.0679 63.062 38.1879 63.41C38.3139 63.752 38.4909 64.049 38.7189 64.301C38.9469 64.553 39.2199 64.754 39.5379 64.904C39.8619 65.048 40.2189 65.12 40.6089 65.12C40.9929 65.12 41.3529 65.051 41.6889 64.913C42.0309 64.775 42.3279 64.586 42.5799 64.346C42.8319 64.1 43.0329 63.812 43.1829 63.482C43.3389 63.152 43.4259 62.798 43.4439 62.42V62.294C43.4439 61.91 43.3719 61.544 43.2279 61.196C43.0839 60.848 42.8829 60.542 42.6249 60.278C42.3729 60.014 42.0729 59.807 41.7249 59.657C41.3829 59.501 41.0109 59.423 40.6089 59.423C40.2189 59.423 39.8619 59.501 39.5379 59.657C39.2199 59.807 38.9469 60.014 38.7189 60.278C38.4909 60.542 38.3139 60.848 38.1879 61.196C38.0679 61.544 38.0079 61.91 38.0079 62.294ZM49.2661 56.723C49.3441 56.657 49.4251 56.615 49.5091 56.597C49.5991 56.579 49.6831 56.57 49.7611 56.57H51.1201C51.2281 56.57 51.3211 56.591 51.3991 56.633C51.4771 56.669 51.5431 56.72 51.5971 56.786C51.6511 56.852 51.6931 56.927 51.7231 57.011C51.7591 57.095 51.7921 57.182 51.8221 57.272L52.0111 58.064C52.1011 57.878 52.2301 57.686 52.3981 57.488C52.5661 57.29 52.7791 57.11 53.0371 56.948C53.2951 56.786 53.6011 56.654 53.9551 56.552C54.3151 56.444 54.7351 56.39 55.2151 56.39C55.5931 56.39 55.9351 56.429 56.2411 56.507C56.5531 56.579 56.8351 56.69 57.0871 56.84C57.3451 56.984 57.5791 57.164 57.7891 57.38C57.9991 57.59 58.1971 57.833 58.3831 58.109C58.4971 57.923 58.6651 57.728 58.8871 57.524C59.1151 57.32 59.3851 57.134 59.6971 56.966C60.0091 56.798 60.3571 56.66 60.7411 56.552C61.1251 56.444 61.5331 56.39 61.9651 56.39C62.6491 56.39 63.2461 56.522 63.7561 56.786C64.2661 57.05 64.6891 57.41 65.0251 57.866C65.3671 58.322 65.6221 58.856 65.7901 59.468C65.9581 60.074 66.0421 60.722 66.0421 61.412V67.307C66.0421 67.535 65.9911 67.709 65.8891 67.829C65.7931 67.943 65.6371 68 65.4211 68H63.3421C63.0841 68 62.9071 67.958 62.8111 67.874C62.7151 67.784 62.6671 67.613 62.6671 67.361V61.412C62.6671 61.154 62.6251 60.914 62.5411 60.692C62.4631 60.47 62.3521 60.278 62.2081 60.116C62.0641 59.948 61.8871 59.819 61.6771 59.729C61.4731 59.633 61.2451 59.585 60.9931 59.585C60.7651 59.585 60.5491 59.63 60.3451 59.72C60.1411 59.81 59.9611 59.936 59.8051 60.098C59.6491 60.254 59.5231 60.446 59.4271 60.674C59.3371 60.896 59.2921 61.142 59.2921 61.412V67.307C59.2921 67.535 59.2411 67.709 59.1391 67.829C59.0431 67.943 58.8871 68 58.6711 68H58.4821H58.4101H56.5921C56.3341 68 56.1571 67.958 56.0611 67.874C55.9651 67.784 55.9171 67.613 55.9171 67.361V61.412C55.9171 61.154 55.8781 60.914 55.8001 60.692C55.7281 60.47 55.6201 60.278 55.4761 60.116C55.3381 59.948 55.1671 59.819 54.9631 59.729C54.7651 59.633 54.5401 59.585 54.2881 59.585C54.0721 59.585 53.8591 59.63 53.6491 59.72C53.4451 59.804 53.2591 59.927 53.0911 60.089C52.9291 60.245 52.7911 60.434 52.6771 60.656C52.5691 60.878 52.5061 61.124 52.4881 61.394V67.334C52.4881 67.436 52.4671 67.538 52.4251 67.64C52.3891 67.742 52.3321 67.82 52.2541 67.874C52.1761 67.922 52.1011 67.955 52.0291 67.973C51.9631 67.991 51.8851 68 51.7951 68H49.7611C49.5031 68 49.3171 67.937 49.2031 67.811C49.0891 67.685 49.0321 67.517 49.0321 67.307V57.236C49.0321 57.122 49.0561 57.017 49.1041 56.921C49.1581 56.825 49.2301 56.75 49.3201 56.696L49.2661 56.723ZM77.7859 66.632C77.2579 67.118 76.6639 67.499 76.0039 67.775C75.3439 68.045 74.6449 68.18 73.9069 68.18C73.0849 68.18 72.3079 68.03 71.5759 67.73C70.8439 67.43 70.2019 67.016 69.6499 66.488C69.0979 65.954 68.6599 65.327 68.3359 64.607C68.0119 63.887 67.8499 63.104 67.8499 62.258C67.8499 61.73 67.9129 61.22 68.0389 60.728C68.1709 60.23 68.3539 59.765 68.5879 59.333C68.8279 58.901 69.1159 58.505 69.4519 58.145C69.7939 57.779 70.1749 57.467 70.5949 57.209C71.0149 56.951 71.4709 56.75 71.9629 56.606C72.4549 56.462 72.9739 56.39 73.5199 56.39C74.0179 56.39 74.5009 56.456 74.9689 56.588C75.4369 56.72 75.8749 56.906 76.2829 57.146C76.6969 57.386 77.0749 57.674 77.4169 58.01C77.7589 58.346 78.0529 58.715 78.2989 59.117C78.5449 59.513 78.7339 59.939 78.8659 60.395C79.0039 60.845 79.0729 61.31 79.0729 61.79C79.0729 62.102 79.0669 62.357 79.0549 62.555C79.0489 62.753 79.0039 62.912 78.9199 63.032C78.8359 63.146 78.6949 63.227 78.4969 63.275C78.3049 63.317 78.0199 63.338 77.6419 63.338H71.1619C71.2219 63.722 71.3419 64.043 71.5219 64.301C71.7079 64.559 71.9209 64.766 72.1609 64.922C72.4009 65.072 72.6559 65.18 72.9259 65.246C73.1959 65.312 73.4509 65.345 73.6909 65.345C73.9069 65.345 74.1289 65.324 74.3569 65.282C74.5849 65.234 74.8039 65.174 75.0139 65.102C75.2299 65.024 75.4249 64.937 75.5989 64.841C75.7789 64.739 75.9229 64.634 76.0309 64.526C76.1269 64.448 76.2079 64.391 76.2739 64.355C76.3459 64.313 76.4209 64.292 76.4989 64.292C76.5769 64.292 76.6549 64.319 76.7329 64.373C76.8169 64.427 76.9099 64.505 77.0119 64.607L77.9659 65.687C78.0319 65.765 78.0739 65.837 78.0919 65.903C78.1099 65.963 78.1189 66.026 78.1189 66.092C78.1189 66.212 78.0859 66.317 78.0199 66.407C77.9539 66.491 77.8759 66.566 77.7859 66.632ZM73.4569 59.135C73.2229 59.135 72.9949 59.183 72.7729 59.279C72.5569 59.369 72.3529 59.492 72.1609 59.648C71.9689 59.804 71.7949 59.981 71.6389 60.179C71.4889 60.377 71.3659 60.578 71.2699 60.782H75.8689C75.7429 60.548 75.6049 60.332 75.4549 60.134C75.3109 59.936 75.1429 59.762 74.9509 59.612C74.7649 59.462 74.5489 59.345 74.3029 59.261C74.0629 59.177 73.7809 59.135 73.4569 59.135Z" fill="#FDCF09"/>
<path d="M26 6L78.2353 6.76817C86.9791 6.89675 94 14.0216 94 22.7664V76H91V24C91 15.7157 84.2843 9 76 9H26V6Z" fill="#FDCF09"/>
<path d="M74 94L21.7647 93.2318C13.0209 93.1032 6 85.9784 6 77.2336V24H9V76C9 84.2843 15.7157 91 24 91H74V94Z" fill="#FDCF09"/>
<path d="M13.2 14.8709C13.2 15.4838 12.9789 16.0114 12.5368 16.4535C12.1047 16.8956 11.5521 17.1167 10.8788 17.1167C10.0247 17.1167 9.62503 17.0271 9.02995 16.5648C8.32022 16.0136 8 15.4314 8 14.5069C8 13.5725 8.27633 13.0106 8.79884 11.9656C9.32135 10.9105 10.5442 9.90482 11.0868 9.36222C11.6395 8.81961 12.3861 8.10701 12.5368 8.10701C12.2153 7.86586 12.6373 8.10701 12.5368 8.10701C12.788 8.27784 12.9328 8.74143 12.9328 8.84191C12.9328 8.91225 12.8081 8.75942 12.5368 9.14125C11.7932 10.2164 11.0748 10.7662 11.0748 11.3892C11.0748 11.8614 11.4265 12.3538 12.1299 12.8663C12.8433 13.3687 13.2 14.0369 13.2 14.8709Z" fill="#FDCF09"/>
<path d="M21.2 14.6776C21.2 15.2733 20.9789 15.786 20.5368 16.2157C20.1047 16.6454 19.5521 16.8602 18.8788 16.8602C18.0247 16.8602 17.625 16.7731 17.03 16.3239C16.3202 15.7881 16 15.2223 16 14.3239C16 13.4157 16.2763 12.8697 16.7988 11.854C17.3214 10.8286 18.5442 9.85124 19.0868 9.32389C19.6395 8.79655 20.3861 8.104 20.5368 8.104C20.2153 7.86963 20.6373 8.104 20.5368 8.104C20.788 8.27002 20.9328 8.72057 20.9328 8.81823C20.9328 8.88659 20.8081 8.73805 20.5368 9.10915C19.7932 10.1541 19.0748 10.6883 19.0748 11.2938C19.0748 11.7528 19.4265 12.2313 20.1299 12.7294C20.8433 13.2176 21.2 13.8671 21.2 14.6776Z" fill="#FDCF09"/>
<path d="M86.0002 82.2467C86.0002 81.6336 86.2213 81.1058 86.6634 80.6635C87.0955 80.2213 87.6481 80.0001 88.3214 80.0001C89.1755 80.0001 89.5752 80.0898 90.1702 80.5522C90.88 81.1037 91.2002 81.686 91.2002 82.6108C91.2002 83.5456 90.9239 84.1077 90.4014 85.1531C89.8788 86.2085 88.656 87.2146 88.1134 87.7574C87.5607 88.3002 86.8141 89.0131 86.6634 89.0131C86.9849 89.2543 86.5629 89.0131 86.6634 89.0131C86.4122 88.8422 86.2674 88.3784 86.2674 88.2779C86.2674 88.2075 86.3921 88.3604 86.6634 87.9785C87.407 86.9029 88.1254 86.353 88.1254 85.7297C88.1254 85.2573 87.7737 84.7647 87.0703 84.2521C86.3569 83.7495 86.0002 83.081 86.0002 82.2467Z" fill="#FDCF09"/>
<path d="M78.0002 82.4401C78.0002 81.8442 78.2213 81.3313 78.6634 80.9015C79.0955 80.4716 79.6481 80.2567 80.3214 80.2567C81.1755 80.2567 81.5752 80.3438 82.1702 80.7932C82.88 81.3292 83.2002 81.8952 83.2002 82.7939C83.2002 83.7025 82.9239 84.2487 82.4014 85.2647C81.8788 86.2904 80.656 87.2682 80.1134 87.7957C79.5607 88.3233 78.8141 89.0161 78.6634 89.0161C78.9849 89.2505 78.5629 89.0161 78.6634 89.0161C78.4122 88.85 78.2674 88.3993 78.2674 88.3016C78.2674 88.2332 78.3921 88.3818 78.6634 88.0106C79.407 86.9653 80.1254 86.4308 80.1254 85.8251C80.1254 85.366 79.7737 84.8873 79.0703 84.389C78.3569 83.9006 78.0002 83.2509 78.0002 82.4401Z" fill="#FDCF09"/>
</svg>
