<svg width="20" height="20" viewBox="0 0 20 22" fill="none" xmlns="http://www.w3.org/2000/svg">
<path d="M3.8125 1H16.1875C17.7383 1 19 2.40184 19 4.12492V10.9998C19 11.4313 18.6852 11.781 18.2969 11.781H14.7812V20.2179C14.7812 20.7837 14.2538 21.1648 13.7872 20.9291L7.89066 17.9511L1.99408 20.9291C1.53163 21.1626 1 20.7885 1 20.2179V4.12492C1 2.40184 2.26169 1 3.8125 1V1ZM14.7812 10.2186H17.5938V4.12492C17.5938 3.2634 16.9629 2.56246 16.1875 2.56246C15.4121 2.56246 14.7812 3.2634 14.7812 4.12492V10.2186ZM2.40625 19.0046L7.59971 16.3817C7.78463 16.2883 7.99673 16.2883 8.18165 16.3817L13.375 19.0046V10.9998V4.12492C13.375 3.55594 13.5132 3.02246 13.7534 2.56246H3.8125C3.03709 2.56246 2.40625 3.2634 2.40625 4.12492V19.0046Z" fill="black" stroke="black" stroke-width="0.3"/>
</svg>
