<svg width="20" height="20" viewBox="0 0 20 20" fill="none" xmlns="http://www.w3.org/2000/svg">
<rect width="20" height="20" fill="white"/>
<path d="M2.85003 6.85301L2.85 6.85301V6.85578V6.85581V6.85583V6.85586V6.85588V6.85591V6.85593V6.85596V6.85598V6.856V6.85603V6.85605V6.85608V6.8561V6.85612V6.85615V6.85617V6.8562V6.85622V6.85624V6.85627V6.85629V6.85631V6.85634V6.85636V6.85638V6.8564V6.85643V6.85645V6.85647V6.85649V6.85652V6.85654V6.85656V6.85658V6.8566V6.85663V6.85665V6.85667V6.85669V6.85671V6.85673V6.85676V6.85678V6.8568V6.85682V6.85684V6.85686V6.85688V6.8569V6.85692V6.85694V6.85696V6.85699V6.85701V6.85703V6.85705V6.85707V6.85709V6.85711V6.85713V6.85715V6.85717V6.85719V6.85721V6.85722V6.85724V6.85726V6.85728V6.8573V6.85732V6.85734V6.85736V6.85738V6.8574V6.85742V6.85744V6.85745V6.85747V6.85749V6.85751V6.85753V6.85755V6.85756V6.85758V6.8576V6.85762V6.85764V6.85766V6.85767V6.85769V6.85771V6.85773V6.85774V6.85776V6.85778V6.8578V6.85781V6.85783V6.85785V6.85787V6.85788V6.8579V6.85792V6.85793V6.85795V6.85797V6.85799V6.858V6.85802V6.85804V6.85805V6.85807V6.85809V6.8581V6.85812V6.85813V6.85815V6.85817V6.85818V6.8582V6.85822V6.85823V6.85825V6.85826V6.85828V6.85829V6.85831V6.85833V6.85834V6.85836V6.85837V6.85839V6.8584V6.85842V6.85843V6.85845V6.85847V6.85848V6.8585V6.85851V6.85853V6.85854V6.85856V6.85857V6.85859V6.8586V6.85862V6.85863V6.85865V6.85866V6.85868V6.85869V6.8587V6.85872V6.85873V6.85875V6.85876V6.85878V6.85879V6.85881V6.85882V6.85883V6.85885V6.85886V6.85888V6.85889V6.8589V6.85892V6.85893V6.85895V6.85896V6.85897V6.85899V6.859V6.85902V6.85903V6.85904V6.85906V6.85907V6.85908V6.8591V6.85911V6.85913V6.85914V6.85915V6.85917V6.85918V6.85919V6.85921V6.85922V6.85923V6.85925V6.85926V6.85927V6.85929V6.8593V6.85931V6.85933V6.85934V6.85935V6.85937V6.85938V6.85939V6.85941V6.85942V6.85943V6.85944V6.85946V6.85947V6.85948V6.8595V6.85951V6.85952V6.85953V6.85955V6.85956V6.85957V6.85959V6.8596V6.85961V6.85962V6.85964V6.85965V6.85966V6.85968V6.85969V6.8597V6.85971V6.85973V6.85974V6.85975V6.85976V6.85978V6.85979V6.8598V6.85982V6.85983V6.85984V6.85985V6.85987V6.85988V6.85989V6.8599V6.85992V6.85993V6.85994V6.85995V6.85997V6.85998V6.85999V6.86V6.86002V6.86003V6.86004V6.86005V6.86007V6.86008V6.86009V6.8601V6.86012V6.86013V6.86014V6.86015V6.86017V6.86018V6.86019V6.8602V6.86022V6.86023V6.86024V6.86025V6.86027V6.86028V6.86029V6.86031V6.86032V6.86033V6.86034V6.86036V6.86037V6.86038V6.86039V6.86041V6.86042V6.86043V6.86044V6.86046V6.86047V6.86048V6.8605V6.86051V6.86052V6.86053V6.86055V6.86056V6.86057V6.86059V6.8606V6.86061V6.86062V6.86064V6.86065V6.86066V6.86068V6.86069V6.8607V6.86071V6.86073V6.86074V6.86075V6.86077V6.86078V6.86079V6.86081V6.86082V6.86083V6.86085V6.86086V6.86087V6.86089V6.8609V6.86091V6.86093V6.86094V6.86095V6.86097V6.86098V6.86099V6.86101V6.86102V6.86103V6.86105V6.86106V6.86108V6.86109V6.8611V6.86112V6.86113V6.86114V6.86116V6.86117V6.86119V6.8612V6.86121V6.86123V6.86124V6.86126V6.86127V6.86128V6.8613V6.86131V6.86133V6.86134V6.86136V6.86137V6.86139V6.8614V6.86141V6.86143V6.86144V6.86146V6.86147V6.86149V6.8615V6.86152V6.86153V6.86155V6.86156V6.86158V6.86159V6.86161V6.86162V6.86164V6.86165V6.86167V6.86168V6.8617V6.86171V6.86173V6.86174V6.86176V6.86178V6.86179V6.86181V6.86182V6.86184V6.86185V6.86187V6.86189V6.8619V6.86192V6.86193V6.86195V6.86197V6.86198V6.862V6.86201V6.86203V6.86205V6.86206V6.86208V6.8621V6.86211V6.86213V6.86215V6.86216V6.86218V6.8622V6.86222V6.86223V6.86225V6.86227V6.86228V6.8623V6.86232V6.86234V6.86235V6.86237V6.86239V6.86241V6.86242V6.86244V6.86246V6.86248V6.8625V6.86251V6.86253V6.86255V6.86257V6.86259V6.8626V6.86262V6.86264V6.86266V6.86268V6.8627V6.86272V6.86274V6.86275V6.86277V6.86279V6.86281V6.86283V6.86285V6.86287V6.86289V6.86291V6.86293V6.86295V6.86297V6.86299V6.86301V6.86303V6.86305V6.86307V6.86309V6.86311V6.86313V6.86315V6.86317V6.86319V6.86321V6.86323V6.86325V6.86327V6.86329V6.86331V6.86334V6.86336V6.86338V6.8634V6.86342V6.86344V6.86346V6.86348V6.86351V6.86353V6.86355V6.86357V6.8636V6.86362V6.86364V6.86366V6.86368V6.86371V6.86373V6.86375V6.86377V6.8638V6.86382V6.86384V6.86387V6.86389V6.86391V6.86394V6.86396V6.86398V6.86401V6.86403V6.86406V6.86408V6.8641V6.86413V6.86415V6.86418V6.8642V6.86423V6.86425V6.86427V6.8643V6.86432V6.86435V16.8624C2.85 18.128 3.87709 19.15 5.14184 19.15H14.0519C15.3166 19.15 16.3437 18.128 16.3437 16.8624V6.86435C16.3437 6.55019 16.0881 6.29455 15.7739 6.29455H15.7739H15.7739H15.7738H15.7738H15.7738H15.7738H15.7737H15.7737H15.7737H15.7737H15.7736H15.7736H15.7736H15.7736H15.7736H15.7735H15.7735H15.7735H15.7735H15.7734H15.7734H15.7734H15.7734H15.7733H15.7733H15.7733H15.7733H15.7733H15.7732H15.7732H15.7732H15.7732H15.7731H15.7731H15.7731H15.7731H15.7731H15.773H15.773H15.773H15.773H15.7729H15.7729H15.7729H15.7729H15.7729H15.7728H15.7728H15.7728H15.7728H15.7728H15.7727H15.7727H15.7727H15.7727H15.7727H15.7726H15.7726H15.7726H15.7726H15.7726H15.7725H15.7725H15.7725H15.7725H15.7725H15.7724H15.7724H15.7724H15.7724H15.7724H15.7723H15.7723H15.7723H15.7723H15.7723H15.7722H15.7722H15.7722H15.7722H15.7722H15.7722H15.7721H15.7721H15.7721H15.7721H15.7721H15.772H15.772H15.772H15.772H15.772H15.772H15.7719H15.7719H15.7719H15.7719H15.7719H15.7719H15.7718H15.7718H15.7718H15.7718H15.7718H15.7717H15.7717H15.7717H15.7717H15.7717H15.7717H15.7716H15.7716H15.7716H15.7716H15.7716H15.7716H15.7716H15.7715H15.7715H15.7715H15.7715H15.7715H15.7715H15.7714H15.7714H15.7714H15.7714H15.7714H15.7714H15.7713H15.7713H15.7713H15.7713H15.7713H15.7713H15.7713H15.7712H15.7712H15.7712H15.7712H15.7712H15.7712H15.7711H15.7711H15.7711H15.7711H15.7711H15.7711H15.7711H15.771H15.771H15.771H15.771H15.771H15.771H15.771H15.7709H15.7709H15.7709H15.7709H15.7709H15.7709H15.7709H15.7708H15.7708H15.7708H15.7708H15.7708H15.7708H15.7708H15.7707H15.7707H15.7707H15.7707H15.7707H15.7707H15.7707H15.7706H15.7706H15.7706H15.7706H15.7706H15.7706H15.7706H15.7705H15.7705H15.7705H15.7705H15.7705H15.7705H15.7705H15.7705H15.7704H15.7704H15.7704H15.7704H15.7704H15.7704H15.7704H15.7703H15.7703H15.7703H15.7703H15.7703H15.7703H15.7703H15.7703H15.7702H15.7702H15.7702H15.7702H15.7702H15.7702H15.7702H15.7702H15.7701H15.7701H15.7701H15.7701H15.7701H15.7701H15.7701H15.7701H15.77H15.77H15.77H15.77H15.77H15.77H15.77H15.7699H15.7699H15.7699H15.7699H15.7699H15.7699H15.7699H15.7699H15.7698H15.7698H15.7698H15.7698H15.7698H15.7698H15.7698H15.7698H15.7697H15.7697H15.7697H15.7697H15.7697H15.7697H15.7697H15.7697H15.7696H15.7696H15.7696H15.7696H15.7696H15.7696H15.7696H15.7696H15.7695H15.7695H15.7695H15.7695H15.7695H15.7695H15.7695H15.7695H15.7694H15.7694H15.7694H15.7694H15.7694H15.7694H15.7694H15.7694H15.7693H15.7693H15.7693H15.7693H15.7693H15.7693H15.7693H15.7693H15.7692H15.7692H15.7692H15.7692H15.7692H15.7692H15.7692H15.7692H15.7691H15.7691H15.7691H15.7691H15.7691H15.7691H15.7691H15.7691H15.769H15.769H15.769H15.769H15.769H15.769H15.769H15.7689H15.7689H15.7689H15.7689H15.7689H15.7689H15.7689H15.7689H15.7688H15.7688H15.7688H15.7688H15.7688H15.7688H15.7688H15.7687H15.7687H15.7687H15.7687H15.7687H15.7687H15.7687H15.7687H15.7686H15.7686H15.7686H15.7686H15.7686H15.7686H15.7686H15.7685H15.7685H15.7685H15.7685H15.7685H15.7685H15.7685H15.7684H15.7684H15.7684H15.7684H15.7684H15.7684H15.7684H15.7683H15.7683H15.7683H15.7683H15.7683H15.7683H15.7683H15.7682H15.7682H15.7682H15.7682H15.7682H15.7682H15.7682H15.7681H15.7681H15.7681H15.7681H15.7681H15.7681H15.768H15.768H15.768H15.768H15.768H15.768H15.768H15.7679H15.7679H15.7679H15.7679H15.7679H15.7679H15.7678H15.7678H15.7678H15.7678H15.7678H15.7678H15.7678H15.7677H15.7677H15.7677H15.7677H15.7677H15.7677H15.7676H15.7676H15.7676H15.7676H15.7676H15.7676H15.7675H15.7675H15.7675H15.7675H15.7675H15.7675H15.7674H15.7674H15.7674H15.7674H15.7674H15.7673H15.7673H15.7673H15.7673H15.7673H15.7673H15.7672H15.7672H15.7672H15.7672H15.7672H15.7672H15.7671H15.7671H15.7671H15.7671H15.7671H15.767H15.767H15.767H15.767H15.767H15.7669H15.7669H15.7669H15.7669H15.7669H15.7669H15.7668H15.7668H15.7668H15.7668H15.7668H15.7667H15.7667H15.7667H15.7667H15.7667H15.7666H15.7666H15.7666H15.7666H15.7666H15.7665H15.7665H15.7665H15.7665H15.7664H15.7664H15.7664H15.7664H15.7664H15.7663H15.7663H15.7663H15.7663H15.7663H15.7662H15.7662H15.7662H15.7662H15.7662H15.7661H15.7661H15.7661H15.7661H15.766H15.766H15.766H15.766H15.7659H15.7659H15.7659H15.7659H15.7659H15.7658H15.7658H15.7658H15.7658H15.7657H15.7657H15.7657H15.7657H15.7656H15.7656H15.7656H15.7656H15.7655H15.7655H15.7655H15.7655H15.7655H15.7654H15.7654H15.7654H15.7654H13.4308V4.56402C13.4308 2.51427 11.7523 0.85 9.70395 0.85C7.6556 0.85 5.97708 2.51427 5.97708 4.56402V6.29455H3.42965C3.1169 6.28957 2.85585 6.53862 2.85003 6.85301ZM7.13382 4.56402C7.13382 3.15278 8.29087 2.00673 9.70395 2.00673C11.117 2.00673 12.2741 3.15278 12.2741 4.56402V6.29455H7.13382V4.56402ZM15.187 16.8582C15.187 17.4818 14.6805 17.989 14.0519 17.989H5.14184C4.51656 17.989 4.00673 17.4851 4.00673 16.8624V7.45129H5.97708V9.7901C5.97708 10.1085 6.23701 10.3685 6.55545 10.3685C6.8739 10.3685 7.13382 10.1085 7.13382 9.7901V7.45129H12.2741V9.7901C12.2741 10.1085 12.534 10.3685 12.8525 10.3685C13.1709 10.3685 13.4308 10.1085 13.4308 9.7901V7.45129H15.187V16.8582Z" fill="#040404" stroke="#040404" stroke-width="0.3"/>
<path d="M9.25404 11.9489H6.08413C5.76568 11.9489 5.50576 12.2088 5.50576 12.5272C5.50576 12.8457 5.76568 13.1056 6.08413 13.1056H9.25404C9.57249 13.1056 9.83241 12.8457 9.83241 12.5272C9.83241 12.2088 9.57249 11.9489 9.25404 11.9489Z" fill="#040404" stroke="#040404" stroke-width="0.3"/>
<path d="M13.1094 14.0907H6.08413C5.76568 14.0907 5.50576 14.3506 5.50576 14.6691C5.50576 14.9875 5.76568 15.2475 6.08413 15.2475H13.1094C13.4278 15.2475 13.6877 14.9875 13.6877 14.6691C13.6877 14.3506 13.4278 14.0907 13.1094 14.0907Z" fill="#040404" stroke="#040404" stroke-width="0.3"/>
</svg>
