<svg width="20" height="20" viewBox="0 0 22 20" fill="none" xmlns="http://www.w3.org/2000/svg">
<path d="M8.22991 4.828C8.28479 5.12112 8.57558 5.35229 8.91859 5.28815C9.25164 5.21862 9.44106 4.89929 9.37875 4.59909C9.30559 4.25003 8.96082 4.05557 8.63417 4.153C8.34241 4.24007 8.16983 4.54136 8.22991 4.828Z" fill="black" stroke="black" stroke-width="1"/>
<path d="M20.8531 13.0114C17.6648 3.73043 17.8841 4.3663 17.8705 4.3347C17.5386 3.56659 16.8943 2.96947 16.1029 2.69637C15.9895 2.65727 9.57195 1.15606 9.38648 1.09184C8.81767 0.89484 8.02742 1.00527 7.47264 1.51552L1.97292 6.57617C1.35462 7.14485 1 7.95441 1 8.79732V17.7589C1 18.815 1.85459 19.6742 2.90505 19.6742H14.6712C15.7217 19.6742 16.5762 18.815 16.5762 17.7589V16.8927L19.8558 15.4891C20.8093 15.0765 21.2529 13.9691 20.8531 13.0114V13.0114ZM14.6712 18.5023H2.90505C2.50078 18.5023 2.17191 18.1688 2.17191 17.7589V8.79732C2.17191 8.28133 2.38855 7.78608 2.76634 7.43861C7.47818 3.10303 4.56576 5.80732 8.28481 2.37758C8.47876 2.19882 8.74654 2.12702 9.01213 2.2071C9.24952 2.278 8.83064 1.93682 14.81 7.43869C15.1877 7.78612 15.4043 8.28133 15.4043 8.79732V17.7589C15.4043 18.1688 15.0754 18.5023 14.6712 18.5023V18.5023ZM19.3926 14.4127L16.5762 15.618V8.79732C16.5762 7.95441 16.2216 7.14485 15.6034 6.57625L11.5076 2.80751L15.7461 3.81324C16.2088 3.98071 16.5859 4.33126 16.7863 4.78034C19.9685 14.0436 19.7539 13.4219 19.7678 13.4539C19.9278 13.8238 19.7585 14.2543 19.3926 14.4127Z" fill="black" stroke="black" stroke-width="0.8"/>
<path d="M10.4517 8.23915C10.1534 8.11392 9.8099 8.25439 9.68466 8.55276L6.83212 15.3514C6.66939 15.7392 6.95685 16.1642 7.37218 16.1642C7.60113 16.1642 7.81864 16.0292 7.91278 15.8048L10.7653 9.00621C10.8905 8.70776 10.7501 8.36435 10.4517 8.23915V8.23915Z" fill="black" stroke="black" stroke-width="0.5"/>
<path d="M7.70569 9.92888C7.70569 8.79799 6.87742 7.87793 5.85929 7.87793C4.84117 7.87793 4.01294 8.79799 4.01294 9.92888C4.01294 11.0598 4.84121 11.9798 5.85933 11.9798C6.87746 11.9798 7.70569 11.0598 7.70569 9.92888V9.92888ZM5.85933 10.8079C5.49373 10.8079 5.18486 10.4054 5.18486 9.92888C5.18486 9.45239 5.4937 9.04984 5.85933 9.04984C6.22497 9.04984 6.53381 9.45239 6.53381 9.92888C6.53377 10.4054 6.22493 10.8079 5.85933 10.8079V10.8079Z" fill="black" stroke="black" stroke-width="0.5"/>
<path d="M11.7719 12.5234C10.7538 12.5234 9.92554 13.4435 9.92554 14.5744C9.92554 15.7053 10.7538 16.6253 11.7719 16.6253C12.79 16.6253 13.6183 15.7053 13.6183 14.5744C13.6183 13.4435 12.79 12.5234 11.7719 12.5234ZM11.7719 15.4534C11.4063 15.4534 11.0974 15.0509 11.0974 14.5744C11.0974 14.0979 11.4063 13.6953 11.7719 13.6953C12.1376 13.6953 12.4464 14.0979 12.4464 14.5744C12.4464 15.0509 12.1375 15.4534 11.7719 15.4534Z" fill="black" stroke="black" stroke-width="0.5"/>
</svg>
