<svg width="16" height="18" viewBox="0 0 16 18" fill="none" xmlns="http://www.w3.org/2000/svg">
<path d="M12.817 1.79978L12.8158 1.80006C12.3641 1.91022 12.0089 2.27523 11.9156 2.73006C11.8998 2.80779 11.8914 2.88762 11.8914 2.96947V7.27113H14.0236V2.72638C14.0236 2.20534 13.6016 1.77614 13.0807 1.76475C13.0793 1.76489 13.0764 1.76522 13.0709 1.76596C13.07 1.76608 13.069 1.76623 13.0678 1.7664L12.817 1.79978ZM12.817 1.79978C12.8261 1.79749 12.8338 1.79506 12.8391 1.79329L12.8458 1.79099L12.846 1.79091C12.896 1.7803 12.9519 1.77572 13.0218 1.77133L12.817 1.79978ZM10.9287 15.5751V8.03383V2.96947C10.9287 2.89499 10.9328 2.82146 10.9402 2.7495C10.9474 2.67793 10.9586 2.60708 10.9724 2.53902C10.9724 2.53899 10.9724 2.53897 10.9724 2.53894L11.1684 2.57867L10.9287 15.5751ZM10.9287 15.5751L6.51213 12.6306C6.41136 12.5634 6.28007 12.5634 6.1793 12.6306L1.76271 15.5751M10.9287 15.5751H1.76271M1.76271 15.5751V2.71344C1.76271 2.18945 2.18945 1.76271 2.71344 1.76271H11.2963L1.76271 15.5751ZM11.8914 16.6263V8.23383H14.4863C14.7625 8.23383 14.9863 8.00997 14.9863 7.73383V2.72638C14.9863 1.74821 14.2473 0.935171 13.2982 0.81712V0.8H13.0982H2.71344C1.65822 0.8 0.8 1.6579 0.8 2.71344V16.6263C0.8 16.9458 1.15605 17.1363 1.42187 16.9591L6.34571 13.6767L11.2696 16.9591C11.5354 17.1363 11.8914 16.9458 11.8914 16.6263Z" fill="black" stroke="black" stroke-width="0.4"/>
</svg>
