<svg width="25" height="22" viewBox="0 0 25 22" fill="none" xmlns="http://www.w3.org/2000/svg">
<path d="M6.1636 16.1144L6.12009 16.1118C5.77856 16.0911 5.44919 16.0283 5.13641 15.9299L2.95036 19.715C2.75008 20.0617 2.87192 20.5052 3.22122 20.7011L5.37306 21.908C5.71632 22.1005 6.15066 21.9813 6.34744 21.6405L9.53903 16.1144H6.1636Z" fill="black"/>
<path d="M18.4937 0.106937L12 4.0825V15.5312L18.5019 19.3938C18.9811 19.6785 19.5881 19.3332 19.5881 18.776V0.719859C19.5881 0.158253 18.9727 -0.186348 18.4937 0.106937Z" fill="black"/>
<path d="M2.32529 12.1519V7.32403C2.32529 7.04737 2.35523 6.77785 2.41067 6.51782H1.36537C0.611293 6.51782 0 7.12892 0 7.88276V11.5932C0 12.347 0.611293 12.9581 1.36537 12.9581H2.41029C2.35504 12.6974 2.32529 12.4279 2.32529 12.1519Z" fill="black"/>
<path d="M10.3712 14.677H6.20701C4.85726 14.5951 3.76308 13.5013 3.76308 12.152V7.3241C3.76308 5.97478 4.85726 4.88099 6.20701 4.96287H10.3712V14.677Z" fill="black"/>
<path d="M22.5556 15.6137C22.3716 15.6137 22.1876 15.5435 22.0472 15.4031L20.5969 13.9533C20.3162 13.6727 20.3162 13.2176 20.5969 12.9369C20.8777 12.6563 21.3329 12.6563 21.6137 12.9369L23.064 14.3867C23.3448 14.6674 23.3448 15.1225 23.064 15.4031C22.9236 15.5435 22.7396 15.6137 22.5556 15.6137Z" fill="black"/>
<path d="M21.1042 6.98911C20.9201 6.98911 20.7362 6.91896 20.5958 6.77857C20.315 6.49794 20.315 6.04285 20.5958 5.76216L22.0461 4.31232C22.3269 4.03164 22.7821 4.03164 23.0629 4.31232C23.3436 4.59295 23.3436 5.04804 23.0629 5.32873L21.6125 6.77857C21.4722 6.91891 21.2882 6.98911 21.1042 6.98911Z" fill="black"/>
<path d="M23.8134 10.5765H21.7623C21.3653 10.5765 21.0434 10.2547 21.0434 9.85775C21.0434 9.46083 21.3653 9.13904 21.7623 9.13904H23.8134C24.2105 9.13904 24.5324 9.46083 24.5324 9.85775C24.5324 10.2547 24.2105 10.5765 23.8134 10.5765Z" fill="black"/>
</svg>
