<svg width="25" height="22" viewBox="0 0 25 22" fill="none" xmlns="http://www.w3.org/2000/svg">
<path d="M21.1755 13.1205C20.9005 12.8456 20.4547 12.8456 20.1797 13.1205C19.9047 13.3955 19.9047 13.8413 20.1797 14.1163L21.6002 15.5368C21.7377 15.6743 21.9179 15.743 22.0981 15.743C22.2783 15.743 22.4585 15.6742 22.596 15.5368C22.871 15.2618 22.871 14.816 22.596 14.541L21.1755 13.1205Z" fill="black"/>
<path d="M20.6776 7.29309C20.8578 7.29309 21.038 7.22432 21.1755 7.08687L22.596 5.66641C22.871 5.39146 22.871 4.9456 22.596 4.6706C22.321 4.39561 21.8752 4.39561 21.6002 4.6706L20.1797 6.09106C19.9047 6.36601 19.9047 6.81188 20.1797 7.08687C20.3172 7.22437 20.4974 7.29309 20.6776 7.29309Z" fill="black"/>
<path d="M23.3305 9.39966H21.3217C20.9328 9.39966 20.6175 9.71493 20.6175 10.1038C20.6175 10.4927 20.9328 10.808 21.3217 10.808H23.3305C23.7194 10.808 24.0347 10.4927 24.0347 10.1038C24.0347 9.71493 23.7194 9.39966 23.3305 9.39966Z" fill="black"/>
<path d="M18.742 0.0898018C18.5197 -0.0347389 18.2474 -0.0293873 18.0301 0.10365L9.96593 5.04233H6.38599C5.62142 5.00191 4.89408 5.26836 4.33574 5.79393C4.12792 5.9895 3.95272 6.21525 3.81311 6.46123H2.04143C0.915771 6.46123 0 7.37701 0 8.50266V11.7048C0 12.8304 0.915771 13.7462 2.04143 13.7462H3.80959C4.09313 14.2531 4.52116 14.6733 5.04153 14.9514L2.58822 19.2007C2.4941 19.3637 2.46917 19.5576 2.51898 19.7392C2.56883 19.9207 2.68929 20.0748 2.85345 20.1669L5.96026 21.9098C6.06917 21.9709 6.18746 22 6.30416 22C6.54766 22 6.7843 21.8735 6.91457 21.6478L10.4178 15.58L18.0381 20.1086C18.1489 20.1744 18.2733 20.2074 18.3978 20.2074C18.5179 20.2074 18.638 20.1767 18.746 20.1152C18.9661 19.99 19.102 19.7563 19.102 19.5032V0.704149C19.102 0.449341 18.9643 0.214389 18.742 0.0898018ZM2.04143 12.3379C1.69231 12.3379 1.4083 12.0539 1.4083 11.7048V8.50266C1.4083 8.15354 1.69231 7.86953 2.04143 7.86953H3.43348C3.43339 7.88005 3.43269 7.89052 3.43269 7.90103V12.3064C3.43269 12.3169 3.43334 12.3274 3.43348 12.3379H2.04143ZM4.84099 7.90103C4.84099 7.48878 5.00862 7.09455 5.30089 6.81946C5.57908 6.55766 5.94204 6.42598 6.32346 6.44936C6.33768 6.4502 9.46035 6.45063 9.46035 6.45063V13.9062H6.38923C5.51941 13.8437 4.84099 13.1446 4.84099 12.3063V7.90103ZM6.04274 20.3413L4.16425 19.2875L6.41655 15.3863C6.43011 15.3629 6.4418 15.3388 6.45236 15.3145H8.94492L6.04274 20.3413ZM17.6937 18.2657L10.8687 14.2097V6.14094L17.6937 1.9611V18.2657Z" fill="black"/>
</svg>
