<svg width="26" height="22" viewBox="0 0 26 22" fill="none" xmlns="http://www.w3.org/2000/svg">
<path d="M8.11547 14.6667H21.3644C21.6925 14.6667 21.9803 14.4498 22.0691 14.1347L25.0026 3.86791C25.0656 3.64658 25.0224 3.40882 24.8836 3.22491C24.7446 3.04158 24.5284 2.9333 24.2977 2.9333H6.42252L5.89831 0.574439C5.82383 0.238522 5.52591 0 5.18217 0H0.733326C0.328087 0 0 0.328087 0 0.733326C0 1.13876 0.328087 1.46665 0.733326 1.46665H4.5936L7.24178 13.3832C6.46262 13.722 5.91549 14.4975 5.91549 15.4C5.91549 16.6131 6.90243 17.6 8.11547 17.6H21.3644C21.7698 17.6 22.0977 17.2721 22.0977 16.8667C22.0977 16.4614 21.7698 16.1334 21.3644 16.1334H8.11547C7.71157 16.1334 7.38214 15.8047 7.38214 15.4C7.38214 14.9954 7.71157 14.6667 8.11547 14.6667Z" fill="black"/>
<path d="M7.38214 19.8C7.38214 21.0132 8.36908 22 9.58231 22C10.7954 22 11.7823 21.0132 11.7823 19.8C11.7823 18.587 10.7954 17.6 9.58231 17.6C8.36908 17.6 7.38214 18.587 7.38214 19.8Z" fill="black"/>
<path d="M17.6978 19.8C17.6978 21.0132 18.6847 22 19.8977 22C21.111 22 22.0977 21.0132 22.0977 19.8C22.0977 18.587 21.111 17.6 19.8977 17.6C18.6847 17.6 17.6978 18.587 17.6978 19.8Z" fill="black"/>
</svg>
