<svg width="26" height="22" viewBox="0 0 26 22" fill="none" xmlns="http://www.w3.org/2000/svg">
<path d="M8.06478 14.6669H8.06593C8.06688 14.6669 8.06784 14.6667 8.0688 14.6667H21.3645C21.6918 14.6667 21.9796 14.4496 22.0696 14.1349L25.0029 3.86816C25.0661 3.64682 25.0218 3.40887 24.8834 3.22515C24.7447 3.04143 24.528 2.93334 24.2979 2.93334H6.37353L5.84931 0.574255C5.77464 0.238716 5.4771 0 5.13335 0H0.733336C0.328282 0 0 0.328282 0 0.733336C0 1.13839 0.328282 1.46667 0.733336 1.46667H4.54515C4.63797 1.88471 7.05377 12.756 7.1928 13.3815C6.41344 13.7203 5.86669 14.4973 5.86669 15.4001C5.86669 16.6131 6.85363 17.6001 8.06669 17.6001H21.3645C21.7696 17.6001 22.0979 17.2718 22.0979 16.8667C22.0979 16.4617 21.7696 16.1334 21.3645 16.1334H8.06669C7.6624 16.1334 7.33336 15.8043 7.33336 15.4001C7.33336 14.9963 7.66126 14.6679 8.06478 14.6669ZM23.3256 4.40002L20.8113 13.2H8.65489L6.69933 4.40002H23.3256Z" fill="black"/>
<path d="M7.33337 19.8C7.33337 21.013 8.32032 22 9.53338 22C10.7464 22 11.7334 21.013 11.7334 19.8C11.7334 18.5869 10.7464 17.6 9.53338 17.6C8.32032 17.6 7.33337 18.5869 7.33337 19.8ZM9.53338 19.0666C9.93767 19.0666 10.2667 19.3957 10.2667 19.8C10.2667 20.2043 9.93767 20.5333 9.53338 20.5333C9.12909 20.5333 8.80005 20.2043 8.80005 19.8C8.80005 19.3957 9.12909 19.0666 9.53338 19.0666Z" fill="black"/>
<path d="M17.6979 19.8C17.6979 21.013 18.6848 22 19.8979 22C21.1109 22 22.0979 21.013 22.0979 19.8C22.0979 18.5869 21.1109 17.6 19.8979 17.6C18.6848 17.6 17.6979 18.5869 17.6979 19.8ZM19.8979 19.0666C20.3022 19.0666 20.6312 19.3957 20.6312 19.8C20.6312 20.2043 20.3022 20.5333 19.8979 20.5333C19.4936 20.5333 19.1645 20.2043 19.1645 19.8C19.1645 19.3957 19.4936 19.0666 19.8979 19.0666Z" fill="black"/>
</svg>
