<svg width="19" height="22" viewBox="0 0 19 22" fill="none" xmlns="http://www.w3.org/2000/svg">
<path d="M18.2676 18.5561L16.6937 15.9326C15.9668 14.7217 15.5827 13.3348 15.5827 11.9231V9.625C15.5827 6.72375 13.6467 4.26985 10.9994 3.47875V1.83335C10.9994 0.82225 10.1771 0 9.166 0C8.15491 0 7.33266 0.82225 7.33266 1.83335V3.47875C4.68535 4.26985 2.74935 6.72375 2.74935 9.625V11.9231C2.74935 13.3348 2.36525 14.7208 1.63925 15.9317L0.0653482 18.5552C-0.0199018 18.6973 -0.0217494 18.8733 0.0598483 19.0172C0.141446 19.1611 0.292696 19.2501 0.457696 19.2501H17.8744C18.0394 19.2501 18.1915 19.1611 18.2731 19.0181C18.3547 18.8751 18.352 18.6973 18.2676 18.5561Z" fill="black"/>
<path d="M6.27962 20.1667C6.79662 21.2465 7.89112 22 9.16617 22C10.4412 22 11.5358 21.2465 12.0528 20.1667H6.27962Z" fill="black"/>
</svg>
