<svg width="23" height="22" viewBox="0 0 23 22" fill="none" xmlns="http://www.w3.org/2000/svg">
<path d="M0.65 21.0443C0.65 18.1544 1.81685 15.9521 3.68719 14.4581C5.57335 12.9514 8.21748 12.1341 11.1911 12.1341C14.1647 12.1341 16.8089 12.9514 18.6951 14.4581C20.5654 15.9521 21.7323 18.1544 21.7323 21.0443C21.7323 21.2131 21.5955 21.3499 21.4267 21.3499H0.955599C0.786839 21.3499 0.65 21.2131 0.65 21.0443Z" stroke="black" stroke-width="1.3"/>
<path d="M7.17365 4.89269C7.17365 2.55384 9.07748 0.65 11.4163 0.65C13.7551 0.65 15.659 2.55386 15.659 4.89269C15.659 7.23152 13.7551 9.13533 11.4163 9.13533C9.07747 9.13533 7.17365 7.23153 7.17365 4.89269Z" stroke="black" stroke-width="1.3"/>
</svg>
